<?xml version="1.0" standalone="no"?><svg xmlns:xlink="http://www.w3.org/1999/xlink" xmlns="http://www.w3.org/2000/svg" viewBox="0 0 1000 299.9970902036858" preserveAspectRatio="xMaxYMax slice"><g transform="scale(0.9699321047526673)"><rect x="0" y="0" width="1031" height="309.29999999999995" fill="#ffffff"/><rect x="0" y="0" width="51.55" height="51.55" fill="#ffffff"/><g transform="translate(25.78,25.78) scale(1.2890000000000001) rotate(0)"><path d="M10 1L12.2451 7.90983H19.5106L13.6327 12.1803L15.8779 19.0902L10 14.8197L4.12215 19.0902L6.36729 12.1803L0.489441 7.90983H7.75487L10 1Z" fill="#f5f6f8"/></g><rect x="51.55" y="0" width="51.55" height="51.55" fill="#ffffff"/><g transform="translate(51.55,0) scale(1.2890000000000001) rotate(0)"><path d="M10 1L12.2451 7.90983H19.5106L13.6327 12.1803L15.8779 19.0902L10 14.8197L4.12215 19.0902L6.36729 12.1803L0.489441 7.90983H7.75487L10 1Z" fill="#fdfdfd"/></g><g transform="translate(77.32,25.78) scale(1.2890000000000001) rotate(0)"><path d="M10 1L12.2451 7.90983H19.5106L13.6327 12.1803L15.8779 19.0902L10 14.8197L4.12215 19.0902L6.36729 12.1803L0.489441 7.90983H7.75487L10 1Z" fill="#fdfdfe"/></g><rect x="103.1" y="0" width="51.55" height="51.55" fill="#ffffff"/><g transform="translate(128.88,0) scale(1.2890000000000001) rotate(0)"><path d="M10 1L12.2451 7.90983H19.5106L13.6327 12.1803L15.8779 19.0902L10 14.8197L4.12215 19.0902L6.36729 12.1803L0.489441 7.90983H7.75487L10 1Z" fill="#fbfcfc"/></g><g transform="translate(103.1,25.78) scale(1.2890000000000001) rotate(0)"><path d="M10 1L12.2451 7.90983H19.5106L13.6327 12.1803L15.8779 19.0902L10 14.8197L4.12215 19.0902L6.36729 12.1803L0.489441 7.90983H7.75487L10 1Z" fill="#fefefe"/></g><rect x="154.64999999999998" y="0" width="51.55" height="51.55" fill="#ffffff"/><g transform="translate(154.65,0) scale(1.2890000000000001) rotate(0)"><path d="M10 1L12.2451 7.90983H19.5106L13.6327 12.1803L15.8779 19.0902L10 14.8197L4.12215 19.0902L6.36729 12.1803L0.489441 7.90983H7.75487L10 1Z" fill="#f7f7f9"/></g><g transform="translate(180.43,0) scale(1.2890000000000001) rotate(0)"><path d="M10 1L12.2451 7.90983H19.5106L13.6327 12.1803L15.8779 19.0902L10 14.8197L4.12215 19.0902L6.36729 12.1803L0.489441 7.90983H7.75487L10 1Z" fill="#f5f6f7"/></g><g transform="translate(180.43,25.78) scale(1.2890000000000001) rotate(0)"><path d="M10 1L12.2451 7.90983H19.5106L13.6327 12.1803L15.8779 19.0902L10 14.8197L4.12215 19.0902L6.36729 12.1803L0.489441 7.90983H7.75487L10 1Z" fill="#f8f8fa"/></g><rect x="206.2" y="0" width="51.55" height="51.55" fill="#ffffff"/><g transform="translate(206.2,0) scale(1.2890000000000001) rotate(0)"><path d="M10 1L12.2451 7.90983H19.5106L13.6327 12.1803L15.8779 19.0902L10 14.8197L4.12215 19.0902L6.36729 12.1803L0.489441 7.90983H7.75487L10 1Z" fill="#f4f5f6"/></g><g transform="translate(231.98,0) scale(1.2890000000000001) rotate(0)"><path d="M10 1L12.2451 7.90983H19.5106L13.6327 12.1803L15.8779 19.0902L10 14.8197L4.12215 19.0902L6.36729 12.1803L0.489441 7.90983H7.75487L10 1Z" fill="#f6f7f9"/></g><g transform="translate(206.2,25.78) scale(1.2890000000000001) rotate(0)"><path d="M10 1L12.2451 7.90983H19.5106L13.6327 12.1803L15.8779 19.0902L10 14.8197L4.12215 19.0902L6.36729 12.1803L0.489441 7.90983H7.75487L10 1Z" fill="#fafbfb"/></g><g transform="translate(231.98,25.78) scale(1.2890000000000001) rotate(0)"><path d="M10 1L12.2451 7.90983H19.5106L13.6327 12.1803L15.8779 19.0902L10 14.8197L4.12215 19.0902L6.36729 12.1803L0.489441 7.90983H7.75487L10 1Z" fill="#fefefe"/></g><rect x="309.29999999999995" y="0" width="51.55" height="51.55" fill="#ffffff"/><g transform="translate(309.3,0) scale(1.2890000000000001) rotate(0)"><path d="M10 1L12.2451 7.90983H19.5106L13.6327 12.1803L15.8779 19.0902L10 14.8197L4.12215 19.0902L6.36729 12.1803L0.489441 7.90983H7.75487L10 1Z" fill="#f9fafb"/></g><g transform="translate(335.07,0) scale(1.2890000000000001) rotate(0)"><path d="M10 1L12.2451 7.90983H19.5106L13.6327 12.1803L15.8779 19.0902L10 14.8197L4.12215 19.0902L6.36729 12.1803L0.489441 7.90983H7.75487L10 1Z" fill="#fcfdfd"/></g><g transform="translate(335.07,25.78) scale(1.2890000000000001) rotate(0)"><path d="M10 1L12.2451 7.90983H19.5106L13.6327 12.1803L15.8779 19.0902L10 14.8197L4.12215 19.0902L6.36729 12.1803L0.489441 7.90983H7.75487L10 1Z" fill="#f7f7f9"/></g><g transform="translate(360.85,0) scale(2.5774999999999997) rotate(0)"><path d="M10 1L12.2451 7.90983H19.5106L13.6327 12.1803L15.8779 19.0902L10 14.8197L4.12215 19.0902L6.36729 12.1803L0.489441 7.90983H7.75487L10 1Z" fill="#fbfbfc"/></g><g transform="translate(412.4,0) scale(2.5774999999999997) rotate(0)"><path d="M10 1L12.2451 7.90983H19.5106L13.6327 12.1803L15.8779 19.0902L10 14.8197L4.12215 19.0902L6.36729 12.1803L0.489441 7.90983H7.75487L10 1Z" fill="#fdfdfe"/></g><rect x="515.5" y="0" width="51.55" height="51.55" fill="#ffffff"/><g transform="translate(515.5,25.78) scale(1.2890000000000001) rotate(0)"><path d="M10 1L12.2451 7.90983H19.5106L13.6327 12.1803L15.8779 19.0902L10 14.8197L4.12215 19.0902L6.36729 12.1803L0.489441 7.90983H7.75487L10 1Z" fill="#f8f8f9"/></g><g transform="translate(541.28,25.78) scale(1.2890000000000001) rotate(0)"><path d="M10 1L12.2451 7.90983H19.5106L13.6327 12.1803L15.8779 19.0902L10 14.8197L4.12215 19.0902L6.36729 12.1803L0.489441 7.90983H7.75487L10 1Z" fill="#fcfcfd"/></g><rect x="567.05" y="0" width="51.55" height="51.55" fill="#ffffff"/><g transform="translate(567.05,0) scale(1.2890000000000001) rotate(0)"><path d="M10 1L12.2451 7.90983H19.5106L13.6327 12.1803L15.8779 19.0902L10 14.8197L4.12215 19.0902L6.36729 12.1803L0.489441 7.90983H7.75487L10 1Z" fill="#fdfdfe"/></g><g transform="translate(592.82,0) scale(1.2890000000000001) rotate(0)"><path d="M10 1L12.2451 7.90983H19.5106L13.6327 12.1803L15.8779 19.0902L10 14.8197L4.12215 19.0902L6.36729 12.1803L0.489441 7.90983H7.75487L10 1Z" fill="#f5f6f7"/></g><g transform="translate(592.82,25.78) scale(1.2890000000000001) rotate(0)"><path d="M10 1L12.2451 7.90983H19.5106L13.6327 12.1803L15.8779 19.0902L10 14.8197L4.12215 19.0902L6.36729 12.1803L0.489441 7.90983H7.75487L10 1Z" fill="#f8f9fa"/></g><rect x="618.5999999999999" y="0" width="51.55" height="51.55" fill="#ffffff"/><g transform="translate(618.6,0) scale(1.2890000000000001) rotate(0)"><path d="M10 1L12.2451 7.90983H19.5106L13.6327 12.1803L15.8779 19.0902L10 14.8197L4.12215 19.0902L6.36729 12.1803L0.489441 7.90983H7.75487L10 1Z" fill="#f8f8f9"/></g><g transform="translate(618.6,25.78) scale(1.2890000000000001) rotate(0)"><path d="M10 1L12.2451 7.90983H19.5106L13.6327 12.1803L15.8779 19.0902L10 14.8197L4.12215 19.0902L6.36729 12.1803L0.489441 7.90983H7.75487L10 1Z" fill="#f9fafb"/></g><rect x="927.9" y="0" width="51.55" height="51.55" fill="#ffffff"/><g transform="translate(927.9,0) scale(1.2890000000000001) rotate(0)"><path d="M10 1L12.2451 7.90983H19.5106L13.6327 12.1803L15.8779 19.0902L10 14.8197L4.12215 19.0902L6.36729 12.1803L0.489441 7.90983H7.75487L10 1Z" fill="#f7f7f9"/></g><g transform="translate(953.68,0) scale(1.2890000000000001) rotate(0)"><path d="M10 1L12.2451 7.90983H19.5106L13.6327 12.1803L15.8779 19.0902L10 14.8197L4.12215 19.0902L6.36729 12.1803L0.489441 7.90983H7.75487L10 1Z" fill="#fcfdfd"/></g><g transform="translate(927.9,25.78) scale(1.2890000000000001) rotate(0)"><path d="M10 1L12.2451 7.90983H19.5106L13.6327 12.1803L15.8779 19.0902L10 14.8197L4.12215 19.0902L6.36729 12.1803L0.489441 7.90983H7.75487L10 1Z" fill="#fafafb"/></g><g transform="translate(953.68,25.78) scale(1.2890000000000001) rotate(0)"><path d="M10 1L12.2451 7.90983H19.5106L13.6327 12.1803L15.8779 19.0902L10 14.8197L4.12215 19.0902L6.36729 12.1803L0.489441 7.90983H7.75487L10 1Z" fill="#fbfbfc"/></g><rect x="51.55" y="51.55" width="51.55" height="51.55" fill="#ffffff"/><g transform="translate(51.55,51.55) scale(1.2890000000000001) rotate(0)"><path d="M10 1L12.2451 7.90983H19.5106L13.6327 12.1803L15.8779 19.0902L10 14.8197L4.12215 19.0902L6.36729 12.1803L0.489441 7.90983H7.75487L10 1Z" fill="#f6f7f8"/></g><g transform="translate(77.32,51.55) scale(1.2890000000000001) rotate(0)"><path d="M10 1L12.2451 7.90983H19.5106L13.6327 12.1803L15.8779 19.0902L10 14.8197L4.12215 19.0902L6.36729 12.1803L0.489441 7.90983H7.75487L10 1Z" fill="#fafafb"/></g><rect x="103.1" y="51.55" width="51.55" height="51.55" fill="#ffffff"/><g transform="translate(103.1,51.55) scale(1.2890000000000001) rotate(0)"><path d="M10 1L12.2451 7.90983H19.5106L13.6327 12.1803L15.8779 19.0902L10 14.8197L4.12215 19.0902L6.36729 12.1803L0.489441 7.90983H7.75487L10 1Z" fill="#fefefe"/></g><g transform="translate(103.1,77.32) scale(1.2890000000000001) rotate(0)"><path d="M10 1L12.2451 7.90983H19.5106L13.6327 12.1803L15.8779 19.0902L10 14.8197L4.12215 19.0902L6.36729 12.1803L0.489441 7.90983H7.75487L10 1Z" fill="#fefefe"/></g><rect x="154.64999999999998" y="51.55" width="51.55" height="51.55" fill="#ffffff"/><g transform="translate(154.65,51.55) scale(1.2890000000000001) rotate(0)"><path d="M10 1L12.2451 7.90983H19.5106L13.6327 12.1803L15.8779 19.0902L10 14.8197L4.12215 19.0902L6.36729 12.1803L0.489441 7.90983H7.75487L10 1Z" fill="#f8f9fa"/></g><g transform="translate(154.65,77.32) scale(1.2890000000000001) rotate(0)"><path d="M10 1L12.2451 7.90983H19.5106L13.6327 12.1803L15.8779 19.0902L10 14.8197L4.12215 19.0902L6.36729 12.1803L0.489441 7.90983H7.75487L10 1Z" fill="#ffffff"/></g><g transform="translate(180.43,77.32) scale(1.2890000000000001) rotate(0)"><path d="M10 1L12.2451 7.90983H19.5106L13.6327 12.1803L15.8779 19.0902L10 14.8197L4.12215 19.0902L6.36729 12.1803L0.489441 7.90983H7.75487L10 1Z" fill="#fefefe"/></g><rect x="206.2" y="51.55" width="51.55" height="51.55" fill="#ffffff"/><g transform="translate(231.98,51.55) scale(1.2890000000000001) rotate(0)"><path d="M10 1L12.2451 7.90983H19.5106L13.6327 12.1803L15.8779 19.0902L10 14.8197L4.12215 19.0902L6.36729 12.1803L0.489441 7.90983H7.75487L10 1Z" fill="#f9fafb"/></g><g transform="translate(206.2,77.32) scale(1.2890000000000001) rotate(0)"><path d="M10 1L12.2451 7.90983H19.5106L13.6327 12.1803L15.8779 19.0902L10 14.8197L4.12215 19.0902L6.36729 12.1803L0.489441 7.90983H7.75487L10 1Z" fill="#fbfcfc"/></g><g transform="translate(231.98,77.32) scale(1.2890000000000001) rotate(0)"><path d="M10 1L12.2451 7.90983H19.5106L13.6327 12.1803L15.8779 19.0902L10 14.8197L4.12215 19.0902L6.36729 12.1803L0.489441 7.90983H7.75487L10 1Z" fill="#fbfbfc"/></g><rect x="257.75" y="51.55" width="51.55" height="51.55" fill="#ffffff"/><g transform="translate(257.75,51.55) scale(1.2890000000000001) rotate(0)"><path d="M10 1L12.2451 7.90983H19.5106L13.6327 12.1803L15.8779 19.0902L10 14.8197L4.12215 19.0902L6.36729 12.1803L0.489441 7.90983H7.75487L10 1Z" fill="#fcfcfd"/></g><g transform="translate(283.52,51.55) scale(1.2890000000000001) rotate(0)"><path d="M10 1L12.2451 7.90983H19.5106L13.6327 12.1803L15.8779 19.0902L10 14.8197L4.12215 19.0902L6.36729 12.1803L0.489441 7.90983H7.75487L10 1Z" fill="#f6f7f8"/></g><rect x="309.29999999999995" y="51.55" width="51.55" height="51.55" fill="#ffffff"/><g transform="translate(309.3,51.55) scale(1.2890000000000001) rotate(0)"><path d="M10 1L12.2451 7.90983H19.5106L13.6327 12.1803L15.8779 19.0902L10 14.8197L4.12215 19.0902L6.36729 12.1803L0.489441 7.90983H7.75487L10 1Z" fill="#f4f5f7"/></g><g transform="translate(335.07,51.55) scale(1.2890000000000001) rotate(0)"><path d="M10 1L12.2451 7.90983H19.5106L13.6327 12.1803L15.8779 19.0902L10 14.8197L4.12215 19.0902L6.36729 12.1803L0.489441 7.90983H7.75487L10 1Z" fill="#f6f7f8"/></g><g transform="translate(309.3,77.32) scale(1.2890000000000001) rotate(0)"><path d="M10 1L12.2451 7.90983H19.5106L13.6327 12.1803L15.8779 19.0902L10 14.8197L4.12215 19.0902L6.36729 12.1803L0.489441 7.90983H7.75487L10 1Z" fill="#f8f9fa"/></g><rect x="412.4" y="51.55" width="51.55" height="51.55" fill="#ffffff"/><g transform="translate(412.4,51.55) scale(1.2890000000000001) rotate(0)"><path d="M10 1L12.2451 7.90983H19.5106L13.6327 12.1803L15.8779 19.0902L10 14.8197L4.12215 19.0902L6.36729 12.1803L0.489441 7.90983H7.75487L10 1Z" fill="#f6f7f9"/></g><g transform="translate(412.4,77.32) scale(1.2890000000000001) rotate(0)"><path d="M10 1L12.2451 7.90983H19.5106L13.6327 12.1803L15.8779 19.0902L10 14.8197L4.12215 19.0902L6.36729 12.1803L0.489441 7.90983H7.75487L10 1Z" fill="#f7f8f9"/></g><g transform="translate(438.17,77.32) scale(1.2890000000000001) rotate(0)"><path d="M10 1L12.2451 7.90983H19.5106L13.6327 12.1803L15.8779 19.0902L10 14.8197L4.12215 19.0902L6.36729 12.1803L0.489441 7.90983H7.75487L10 1Z" fill="#fcfdfd"/></g><g transform="translate(463.95,51.55) scale(2.5774999999999997) rotate(0)"><path d="M10 1L12.2451 7.90983H19.5106L13.6327 12.1803L15.8779 19.0902L10 14.8197L4.12215 19.0902L6.36729 12.1803L0.489441 7.90983H7.75487L10 1Z" fill="#ffffff"/></g><rect x="515.5" y="51.55" width="51.55" height="51.55" fill="#ffffff"/><g transform="translate(515.5,77.32) scale(1.2890000000000001) rotate(0)"><path d="M10 1L12.2451 7.90983H19.5106L13.6327 12.1803L15.8779 19.0902L10 14.8197L4.12215 19.0902L6.36729 12.1803L0.489441 7.90983H7.75487L10 1Z" fill="#f9f9fa"/></g><rect x="567.05" y="51.55" width="51.55" height="51.55" fill="#ffffff"/><g transform="translate(567.05,51.55) scale(1.2890000000000001) rotate(0)"><path d="M10 1L12.2451 7.90983H19.5106L13.6327 12.1803L15.8779 19.0902L10 14.8197L4.12215 19.0902L6.36729 12.1803L0.489441 7.90983H7.75487L10 1Z" fill="#fdfefe"/></g><g transform="translate(592.82,77.32) scale(1.2890000000000001) rotate(0)"><path d="M10 1L12.2451 7.90983H19.5106L13.6327 12.1803L15.8779 19.0902L10 14.8197L4.12215 19.0902L6.36729 12.1803L0.489441 7.90983H7.75487L10 1Z" fill="#f9f9fa"/></g><rect x="773.25" y="51.55" width="51.55" height="51.55" fill="#ffffff"/><g transform="translate(773.25,77.32) scale(1.2890000000000001) rotate(0)"><path d="M10 1L12.2451 7.90983H19.5106L13.6327 12.1803L15.8779 19.0902L10 14.8197L4.12215 19.0902L6.36729 12.1803L0.489441 7.90983H7.75487L10 1Z" fill="#fbfcfc"/></g><rect x="876.3499999999999" y="51.55" width="51.55" height="51.55" fill="#ffffff"/><g transform="translate(902.12,51.55) scale(1.2890000000000001) rotate(0)"><path d="M10 1L12.2451 7.90983H19.5106L13.6327 12.1803L15.8779 19.0902L10 14.8197L4.12215 19.0902L6.36729 12.1803L0.489441 7.90983H7.75487L10 1Z" fill="#f9fafb"/></g><g transform="translate(902.12,77.32) scale(1.2890000000000001) rotate(0)"><path d="M10 1L12.2451 7.90983H19.5106L13.6327 12.1803L15.8779 19.0902L10 14.8197L4.12215 19.0902L6.36729 12.1803L0.489441 7.90983H7.75487L10 1Z" fill="#f8f8fa"/></g><g transform="translate(927.9,51.55) scale(2.5774999999999997) rotate(0)"><path d="M10 1L12.2451 7.90983H19.5106L13.6327 12.1803L15.8779 19.0902L10 14.8197L4.12215 19.0902L6.36729 12.1803L0.489441 7.90983H7.75487L10 1Z" fill="#f8f8f9"/></g><rect x="979.4499999999999" y="51.55" width="51.55" height="51.55" fill="#ffffff"/><g transform="translate(979.45,51.55) scale(1.2890000000000001) rotate(0)"><path d="M10 1L12.2451 7.90983H19.5106L13.6327 12.1803L15.8779 19.0902L10 14.8197L4.12215 19.0902L6.36729 12.1803L0.489441 7.90983H7.75487L10 1Z" fill="#f8f9fa"/></g><g transform="translate(979.45,77.32) scale(1.2890000000000001) rotate(0)"><path d="M10 1L12.2451 7.90983H19.5106L13.6327 12.1803L15.8779 19.0902L10 14.8197L4.12215 19.0902L6.36729 12.1803L0.489441 7.90983H7.75487L10 1Z" fill="#f6f6f8"/></g><g transform="translate(0,103.1) scale(2.5774999999999997) rotate(0)"><path d="M10 1L12.2451 7.90983H19.5106L13.6327 12.1803L15.8779 19.0902L10 14.8197L4.12215 19.0902L6.36729 12.1803L0.489441 7.90983H7.75487L10 1Z" fill="#f7f8f9"/></g><g transform="translate(103.1,103.1) scale(2.5774999999999997) rotate(0)"><path d="M10 1L12.2451 7.90983H19.5106L13.6327 12.1803L15.8779 19.0902L10 14.8197L4.12215 19.0902L6.36729 12.1803L0.489441 7.90983H7.75487L10 1Z" fill="#fefefe"/></g><g transform="translate(154.65,103.1) scale(2.5774999999999997) rotate(0)"><path d="M10 1L12.2451 7.90983H19.5106L13.6327 12.1803L15.8779 19.0902L10 14.8197L4.12215 19.0902L6.36729 12.1803L0.489441 7.90983H7.75487L10 1Z" fill="#f5f6f8"/></g><g transform="translate(206.2,103.1) scale(2.5774999999999997) rotate(0)"><path d="M10 1L12.2451 7.90983H19.5106L13.6327 12.1803L15.8779 19.0902L10 14.8197L4.12215 19.0902L6.36729 12.1803L0.489441 7.90983H7.75487L10 1Z" fill="#f7f8f9"/></g><rect x="412.4" y="103.1" width="51.55" height="51.55" fill="#ffffff"/><g transform="translate(412.4,103.1) scale(1.2890000000000001) rotate(0)"><path d="M10 1L12.2451 7.90983H19.5106L13.6327 12.1803L15.8779 19.0902L10 14.8197L4.12215 19.0902L6.36729 12.1803L0.489441 7.90983H7.75487L10 1Z" fill="#f8f9fa"/></g><g transform="translate(438.17,103.1) scale(1.2890000000000001) rotate(0)"><path d="M10 1L12.2451 7.90983H19.5106L13.6327 12.1803L15.8779 19.0902L10 14.8197L4.12215 19.0902L6.36729 12.1803L0.489441 7.90983H7.75487L10 1Z" fill="#fdfdfe"/></g><g transform="translate(412.4,128.88) scale(1.2890000000000001) rotate(0)"><path d="M10 1L12.2451 7.90983H19.5106L13.6327 12.1803L15.8779 19.0902L10 14.8197L4.12215 19.0902L6.36729 12.1803L0.489441 7.90983H7.75487L10 1Z" fill="#fbfcfc"/></g><g transform="translate(438.17,128.88) scale(1.2890000000000001) rotate(0)"><path d="M10 1L12.2451 7.90983H19.5106L13.6327 12.1803L15.8779 19.0902L10 14.8197L4.12215 19.0902L6.36729 12.1803L0.489441 7.90983H7.75487L10 1Z" fill="#fafbfb"/></g><g transform="translate(463.95,103.1) scale(2.5774999999999997) rotate(0)"><path d="M10 1L12.2451 7.90983H19.5106L13.6327 12.1803L15.8779 19.0902L10 14.8197L4.12215 19.0902L6.36729 12.1803L0.489441 7.90983H7.75487L10 1Z" fill="#fdfdfe"/></g><rect x="567.05" y="103.1" width="51.55" height="51.55" fill="#ffffff"/><g transform="translate(567.05,103.1) scale(1.2890000000000001) rotate(0)"><path d="M10 1L12.2451 7.90983H19.5106L13.6327 12.1803L15.8779 19.0902L10 14.8197L4.12215 19.0902L6.36729 12.1803L0.489441 7.90983H7.75487L10 1Z" fill="#f6f6f8"/></g><g transform="translate(592.82,128.88) scale(1.2890000000000001) rotate(0)"><path d="M10 1L12.2451 7.90983H19.5106L13.6327 12.1803L15.8779 19.0902L10 14.8197L4.12215 19.0902L6.36729 12.1803L0.489441 7.90983H7.75487L10 1Z" fill="#f5f5f7"/></g><rect x="670.15" y="103.1" width="51.55" height="51.55" fill="#ffffff"/><g transform="translate(670.15,103.1) scale(1.2890000000000001) rotate(0)"><path d="M10 1L12.2451 7.90983H19.5106L13.6327 12.1803L15.8779 19.0902L10 14.8197L4.12215 19.0902L6.36729 12.1803L0.489441 7.90983H7.75487L10 1Z" fill="#fdfdfd"/></g><g transform="translate(695.93,103.1) scale(1.2890000000000001) rotate(0)"><path d="M10 1L12.2451 7.90983H19.5106L13.6327 12.1803L15.8779 19.0902L10 14.8197L4.12215 19.0902L6.36729 12.1803L0.489441 7.90983H7.75487L10 1Z" fill="#fdfdfd"/></g><g transform="translate(670.15,128.88) scale(1.2890000000000001) rotate(0)"><path d="M10 1L12.2451 7.90983H19.5106L13.6327 12.1803L15.8779 19.0902L10 14.8197L4.12215 19.0902L6.36729 12.1803L0.489441 7.90983H7.75487L10 1Z" fill="#f3f4f6"/></g><g transform="translate(721.7,103.1) scale(2.5774999999999997) rotate(0)"><path d="M10 1L12.2451 7.90983H19.5106L13.6327 12.1803L15.8779 19.0902L10 14.8197L4.12215 19.0902L6.36729 12.1803L0.489441 7.90983H7.75487L10 1Z" fill="#f7f8f9"/></g><rect x="773.25" y="103.1" width="51.55" height="51.55" fill="#ffffff"/><g transform="translate(773.25,103.1) scale(1.2890000000000001) rotate(0)"><path d="M10 1L12.2451 7.90983H19.5106L13.6327 12.1803L15.8779 19.0902L10 14.8197L4.12215 19.0902L6.36729 12.1803L0.489441 7.90983H7.75487L10 1Z" fill="#f6f6f8"/></g><g transform="translate(799.03,103.1) scale(1.2890000000000001) rotate(0)"><path d="M10 1L12.2451 7.90983H19.5106L13.6327 12.1803L15.8779 19.0902L10 14.8197L4.12215 19.0902L6.36729 12.1803L0.489441 7.90983H7.75487L10 1Z" fill="#f9fafb"/></g><g transform="translate(799.03,128.88) scale(1.2890000000000001) rotate(0)"><path d="M10 1L12.2451 7.90983H19.5106L13.6327 12.1803L15.8779 19.0902L10 14.8197L4.12215 19.0902L6.36729 12.1803L0.489441 7.90983H7.75487L10 1Z" fill="#fcfcfd"/></g><rect x="824.8" y="103.1" width="51.55" height="51.55" fill="#ffffff"/><g transform="translate(824.8,103.1) scale(1.2890000000000001) rotate(0)"><path d="M10 1L12.2451 7.90983H19.5106L13.6327 12.1803L15.8779 19.0902L10 14.8197L4.12215 19.0902L6.36729 12.1803L0.489441 7.90983H7.75487L10 1Z" fill="#f4f5f7"/></g><g transform="translate(850.58,103.1) scale(1.2890000000000001) rotate(0)"><path d="M10 1L12.2451 7.90983H19.5106L13.6327 12.1803L15.8779 19.0902L10 14.8197L4.12215 19.0902L6.36729 12.1803L0.489441 7.90983H7.75487L10 1Z" fill="#fdfdfd"/></g><g transform="translate(824.8,128.88) scale(1.2890000000000001) rotate(0)"><path d="M10 1L12.2451 7.90983H19.5106L13.6327 12.1803L15.8779 19.0902L10 14.8197L4.12215 19.0902L6.36729 12.1803L0.489441 7.90983H7.75487L10 1Z" fill="#fbfcfc"/></g><g transform="translate(850.58,128.88) scale(1.2890000000000001) rotate(0)"><path d="M10 1L12.2451 7.90983H19.5106L13.6327 12.1803L15.8779 19.0902L10 14.8197L4.12215 19.0902L6.36729 12.1803L0.489441 7.90983H7.75487L10 1Z" fill="#fbfbfc"/></g><rect x="876.3499999999999" y="103.1" width="51.55" height="51.55" fill="#ffffff"/><g transform="translate(876.35,103.1) scale(1.2890000000000001) rotate(0)"><path d="M10 1L12.2451 7.90983H19.5106L13.6327 12.1803L15.8779 19.0902L10 14.8197L4.12215 19.0902L6.36729 12.1803L0.489441 7.90983H7.75487L10 1Z" fill="#fafafb"/></g><g transform="translate(902.12,128.88) scale(1.2890000000000001) rotate(0)"><path d="M10 1L12.2451 7.90983H19.5106L13.6327 12.1803L15.8779 19.0902L10 14.8197L4.12215 19.0902L6.36729 12.1803L0.489441 7.90983H7.75487L10 1Z" fill="#feffff"/></g><g transform="translate(927.9,103.1) scale(2.5774999999999997) rotate(0)"><path d="M10 1L12.2451 7.90983H19.5106L13.6327 12.1803L15.8779 19.0902L10 14.8197L4.12215 19.0902L6.36729 12.1803L0.489441 7.90983H7.75487L10 1Z" fill="#f6f7f8"/></g><rect x="979.4499999999999" y="103.1" width="51.55" height="51.55" fill="#ffffff"/><g transform="translate(979.45,103.1) scale(1.2890000000000001) rotate(0)"><path d="M10 1L12.2451 7.90983H19.5106L13.6327 12.1803L15.8779 19.0902L10 14.8197L4.12215 19.0902L6.36729 12.1803L0.489441 7.90983H7.75487L10 1Z" fill="#f5f6f7"/></g><g transform="translate(1005.22,103.1) scale(1.2890000000000001) rotate(0)"><path d="M10 1L12.2451 7.90983H19.5106L13.6327 12.1803L15.8779 19.0902L10 14.8197L4.12215 19.0902L6.36729 12.1803L0.489441 7.90983H7.75487L10 1Z" fill="#f8f9fa"/></g><g transform="translate(979.45,128.88) scale(1.2890000000000001) rotate(0)"><path d="M10 1L12.2451 7.90983H19.5106L13.6327 12.1803L15.8779 19.0902L10 14.8197L4.12215 19.0902L6.36729 12.1803L0.489441 7.90983H7.75487L10 1Z" fill="#fbfbfc"/></g><rect x="0" y="154.64999999999998" width="51.55" height="51.55" fill="#ffffff"/><g transform="translate(0,154.65) scale(1.2890000000000001) rotate(0)"><path d="M10 1L12.2451 7.90983H19.5106L13.6327 12.1803L15.8779 19.0902L10 14.8197L4.12215 19.0902L6.36729 12.1803L0.489441 7.90983H7.75487L10 1Z" fill="#fdfdfe"/></g><g transform="translate(25.78,154.65) scale(1.2890000000000001) rotate(0)"><path d="M10 1L12.2451 7.90983H19.5106L13.6327 12.1803L15.8779 19.0902L10 14.8197L4.12215 19.0902L6.36729 12.1803L0.489441 7.90983H7.75487L10 1Z" fill="#fefefe"/></g><g transform="translate(25.78,180.43) scale(1.2890000000000001) rotate(0)"><path d="M10 1L12.2451 7.90983H19.5106L13.6327 12.1803L15.8779 19.0902L10 14.8197L4.12215 19.0902L6.36729 12.1803L0.489441 7.90983H7.75487L10 1Z" fill="#fcfcfd"/></g><g transform="translate(51.55,154.65) scale(2.5774999999999997) rotate(0)"><path d="M10 1L12.2451 7.90983H19.5106L13.6327 12.1803L15.8779 19.0902L10 14.8197L4.12215 19.0902L6.36729 12.1803L0.489441 7.90983H7.75487L10 1Z" fill="#fcfcfc"/></g><g transform="translate(103.1,154.65) scale(2.5774999999999997) rotate(0)"><path d="M10 1L12.2451 7.90983H19.5106L13.6327 12.1803L15.8779 19.0902L10 14.8197L4.12215 19.0902L6.36729 12.1803L0.489441 7.90983H7.75487L10 1Z" fill="#fafbfb"/></g><rect x="206.2" y="154.64999999999998" width="51.55" height="51.55" fill="#ffffff"/><g transform="translate(206.2,154.65) scale(1.2890000000000001) rotate(0)"><path d="M10 1L12.2451 7.90983H19.5106L13.6327 12.1803L15.8779 19.0902L10 14.8197L4.12215 19.0902L6.36729 12.1803L0.489441 7.90983H7.75487L10 1Z" fill="#f6f6f8"/></g><g transform="translate(206.2,180.43) scale(1.2890000000000001) rotate(0)"><path d="M10 1L12.2451 7.90983H19.5106L13.6327 12.1803L15.8779 19.0902L10 14.8197L4.12215 19.0902L6.36729 12.1803L0.489441 7.90983H7.75487L10 1Z" fill="#fdfdfe"/></g><g transform="translate(231.98,180.43) scale(1.2890000000000001) rotate(0)"><path d="M10 1L12.2451 7.90983H19.5106L13.6327 12.1803L15.8779 19.0902L10 14.8197L4.12215 19.0902L6.36729 12.1803L0.489441 7.90983H7.75487L10 1Z" fill="#f7f8f9"/></g><rect x="257.75" y="154.64999999999998" width="51.55" height="51.55" fill="#ffffff"/><g transform="translate(257.75,154.65) scale(1.2890000000000001) rotate(0)"><path d="M10 1L12.2451 7.90983H19.5106L13.6327 12.1803L15.8779 19.0902L10 14.8197L4.12215 19.0902L6.36729 12.1803L0.489441 7.90983H7.75487L10 1Z" fill="#fafbfc"/></g><g transform="translate(283.52,154.65) scale(1.2890000000000001) rotate(0)"><path d="M10 1L12.2451 7.90983H19.5106L13.6327 12.1803L15.8779 19.0902L10 14.8197L4.12215 19.0902L6.36729 12.1803L0.489441 7.90983H7.75487L10 1Z" fill="#f8f9fa"/></g><g transform="translate(257.75,180.43) scale(1.2890000000000001) rotate(0)"><path d="M10 1L12.2451 7.90983H19.5106L13.6327 12.1803L15.8779 19.0902L10 14.8197L4.12215 19.0902L6.36729 12.1803L0.489441 7.90983H7.75487L10 1Z" fill="#fdfefe"/></g><g transform="translate(283.52,180.43) scale(1.2890000000000001) rotate(0)"><path d="M10 1L12.2451 7.90983H19.5106L13.6327 12.1803L15.8779 19.0902L10 14.8197L4.12215 19.0902L6.36729 12.1803L0.489441 7.90983H7.75487L10 1Z" fill="#f5f6f8"/></g><rect x="309.29999999999995" y="154.64999999999998" width="51.55" height="51.55" fill="#ffffff"/><g transform="translate(309.3,180.43) scale(1.2890000000000001) rotate(0)"><path d="M10 1L12.2451 7.90983H19.5106L13.6327 12.1803L15.8779 19.0902L10 14.8197L4.12215 19.0902L6.36729 12.1803L0.489441 7.90983H7.75487L10 1Z" fill="#fafafb"/></g><rect x="360.84999999999997" y="154.64999999999998" width="51.55" height="51.55" fill="#ffffff"/><g transform="translate(360.85,154.65) scale(1.2890000000000001) rotate(0)"><path d="M10 1L12.2451 7.90983H19.5106L13.6327 12.1803L15.8779 19.0902L10 14.8197L4.12215 19.0902L6.36729 12.1803L0.489441 7.90983H7.75487L10 1Z" fill="#fafbfc"/></g><g transform="translate(386.62,154.65) scale(1.2890000000000001) rotate(0)"><path d="M10 1L12.2451 7.90983H19.5106L13.6327 12.1803L15.8779 19.0902L10 14.8197L4.12215 19.0902L6.36729 12.1803L0.489441 7.90983H7.75487L10 1Z" fill="#f3f4f6"/></g><g transform="translate(360.85,180.43) scale(1.2890000000000001) rotate(0)"><path d="M10 1L12.2451 7.90983H19.5106L13.6327 12.1803L15.8779 19.0902L10 14.8197L4.12215 19.0902L6.36729 12.1803L0.489441 7.90983H7.75487L10 1Z" fill="#f4f5f7"/></g><g transform="translate(386.62,180.43) scale(1.2890000000000001) rotate(0)"><path d="M10 1L12.2451 7.90983H19.5106L13.6327 12.1803L15.8779 19.0902L10 14.8197L4.12215 19.0902L6.36729 12.1803L0.489441 7.90983H7.75487L10 1Z" fill="#fafbfc"/></g><rect x="412.4" y="154.64999999999998" width="51.55" height="51.55" fill="#ffffff"/><g transform="translate(412.4,154.65) scale(1.2890000000000001) rotate(0)"><path d="M10 1L12.2451 7.90983H19.5106L13.6327 12.1803L15.8779 19.0902L10 14.8197L4.12215 19.0902L6.36729 12.1803L0.489441 7.90983H7.75487L10 1Z" fill="#fefefe"/></g><g transform="translate(412.4,180.43) scale(1.2890000000000001) rotate(0)"><path d="M10 1L12.2451 7.90983H19.5106L13.6327 12.1803L15.8779 19.0902L10 14.8197L4.12215 19.0902L6.36729 12.1803L0.489441 7.90983H7.75487L10 1Z" fill="#fefeff"/></g><g transform="translate(438.17,180.43) scale(1.2890000000000001) rotate(0)"><path d="M10 1L12.2451 7.90983H19.5106L13.6327 12.1803L15.8779 19.0902L10 14.8197L4.12215 19.0902L6.36729 12.1803L0.489441 7.90983H7.75487L10 1Z" fill="#f6f6f8"/></g><g transform="translate(567.05,154.65) scale(2.5774999999999997) rotate(0)"><path d="M10 1L12.2451 7.90983H19.5106L13.6327 12.1803L15.8779 19.0902L10 14.8197L4.12215 19.0902L6.36729 12.1803L0.489441 7.90983H7.75487L10 1Z" fill="#f8f9fa"/></g><rect x="618.5999999999999" y="154.64999999999998" width="51.55" height="51.55" fill="#ffffff"/><g transform="translate(618.6,154.65) scale(1.2890000000000001) rotate(0)"><path d="M10 1L12.2451 7.90983H19.5106L13.6327 12.1803L15.8779 19.0902L10 14.8197L4.12215 19.0902L6.36729 12.1803L0.489441 7.90983H7.75487L10 1Z" fill="#f7f7f9"/></g><g transform="translate(644.37,154.65) scale(1.2890000000000001) rotate(0)"><path d="M10 1L12.2451 7.90983H19.5106L13.6327 12.1803L15.8779 19.0902L10 14.8197L4.12215 19.0902L6.36729 12.1803L0.489441 7.90983H7.75487L10 1Z" fill="#f6f7f8"/></g><g transform="translate(618.6,180.43) scale(1.2890000000000001) rotate(0)"><path d="M10 1L12.2451 7.90983H19.5106L13.6327 12.1803L15.8779 19.0902L10 14.8197L4.12215 19.0902L6.36729 12.1803L0.489441 7.90983H7.75487L10 1Z" fill="#fdfdfe"/></g><g transform="translate(644.37,180.43) scale(1.2890000000000001) rotate(0)"><path d="M10 1L12.2451 7.90983H19.5106L13.6327 12.1803L15.8779 19.0902L10 14.8197L4.12215 19.0902L6.36729 12.1803L0.489441 7.90983H7.75487L10 1Z" fill="#f9f9fa"/></g><rect x="824.8" y="154.64999999999998" width="51.55" height="51.55" fill="#ffffff"/><g transform="translate(850.58,154.65) scale(1.2890000000000001) rotate(0)"><path d="M10 1L12.2451 7.90983H19.5106L13.6327 12.1803L15.8779 19.0902L10 14.8197L4.12215 19.0902L6.36729 12.1803L0.489441 7.90983H7.75487L10 1Z" fill="#f4f5f7"/></g><rect x="876.3499999999999" y="154.64999999999998" width="51.55" height="51.55" fill="#ffffff"/><g transform="translate(876.35,154.65) scale(1.2890000000000001) rotate(0)"><path d="M10 1L12.2451 7.90983H19.5106L13.6327 12.1803L15.8779 19.0902L10 14.8197L4.12215 19.0902L6.36729 12.1803L0.489441 7.90983H7.75487L10 1Z" fill="#fdfdfd"/></g><g transform="translate(876.35,180.43) scale(1.2890000000000001) rotate(0)"><path d="M10 1L12.2451 7.90983H19.5106L13.6327 12.1803L15.8779 19.0902L10 14.8197L4.12215 19.0902L6.36729 12.1803L0.489441 7.90983H7.75487L10 1Z" fill="#fafafb"/></g><rect x="927.9" y="154.64999999999998" width="51.55" height="51.55" fill="#ffffff"/><g transform="translate(927.9,180.43) scale(1.2890000000000001) rotate(0)"><path d="M10 1L12.2451 7.90983H19.5106L13.6327 12.1803L15.8779 19.0902L10 14.8197L4.12215 19.0902L6.36729 12.1803L0.489441 7.90983H7.75487L10 1Z" fill="#f8f9fa"/></g><g transform="translate(953.68,180.43) scale(1.2890000000000001) rotate(0)"><path d="M10 1L12.2451 7.90983H19.5106L13.6327 12.1803L15.8779 19.0902L10 14.8197L4.12215 19.0902L6.36729 12.1803L0.489441 7.90983H7.75487L10 1Z" fill="#f9f9fa"/></g><rect x="979.4499999999999" y="154.64999999999998" width="51.55" height="51.55" fill="#ffffff"/><g transform="translate(979.45,154.65) scale(1.2890000000000001) rotate(0)"><path d="M10 1L12.2451 7.90983H19.5106L13.6327 12.1803L15.8779 19.0902L10 14.8197L4.12215 19.0902L6.36729 12.1803L0.489441 7.90983H7.75487L10 1Z" fill="#f6f7f8"/></g><rect x="0" y="206.2" width="51.55" height="51.55" fill="#ffffff"/><g transform="translate(0,206.2) scale(1.2890000000000001) rotate(0)"><path d="M10 1L12.2451 7.90983H19.5106L13.6327 12.1803L15.8779 19.0902L10 14.8197L4.12215 19.0902L6.36729 12.1803L0.489441 7.90983H7.75487L10 1Z" fill="#f4f5f6"/></g><g transform="translate(25.78,206.2) scale(1.2890000000000001) rotate(0)"><path d="M10 1L12.2451 7.90983H19.5106L13.6327 12.1803L15.8779 19.0902L10 14.8197L4.12215 19.0902L6.36729 12.1803L0.489441 7.90983H7.75487L10 1Z" fill="#fefefe"/></g><g transform="translate(0,231.98) scale(1.2890000000000001) rotate(0)"><path d="M10 1L12.2451 7.90983H19.5106L13.6327 12.1803L15.8779 19.0902L10 14.8197L4.12215 19.0902L6.36729 12.1803L0.489441 7.90983H7.75487L10 1Z" fill="#fbfbfc"/></g><g transform="translate(25.78,231.98) scale(1.2890000000000001) rotate(0)"><path d="M10 1L12.2451 7.90983H19.5106L13.6327 12.1803L15.8779 19.0902L10 14.8197L4.12215 19.0902L6.36729 12.1803L0.489441 7.90983H7.75487L10 1Z" fill="#f9fafb"/></g><rect x="51.55" y="206.2" width="51.55" height="51.55" fill="#ffffff"/><g transform="translate(51.55,231.98) scale(1.2890000000000001) rotate(0)"><path d="M10 1L12.2451 7.90983H19.5106L13.6327 12.1803L15.8779 19.0902L10 14.8197L4.12215 19.0902L6.36729 12.1803L0.489441 7.90983H7.75487L10 1Z" fill="#f9fafb"/></g><g transform="translate(77.32,231.98) scale(1.2890000000000001) rotate(0)"><path d="M10 1L12.2451 7.90983H19.5106L13.6327 12.1803L15.8779 19.0902L10 14.8197L4.12215 19.0902L6.36729 12.1803L0.489441 7.90983H7.75487L10 1Z" fill="#f8f9fa"/></g><rect x="154.64999999999998" y="206.2" width="51.55" height="51.55" fill="#ffffff"/><g transform="translate(154.65,206.2) scale(1.2890000000000001) rotate(0)"><path d="M10 1L12.2451 7.90983H19.5106L13.6327 12.1803L15.8779 19.0902L10 14.8197L4.12215 19.0902L6.36729 12.1803L0.489441 7.90983H7.75487L10 1Z" fill="#f4f5f6"/></g><g transform="translate(180.43,206.2) scale(1.2890000000000001) rotate(0)"><path d="M10 1L12.2451 7.90983H19.5106L13.6327 12.1803L15.8779 19.0902L10 14.8197L4.12215 19.0902L6.36729 12.1803L0.489441 7.90983H7.75487L10 1Z" fill="#ffffff"/></g><g transform="translate(154.65,231.98) scale(1.2890000000000001) rotate(0)"><path d="M10 1L12.2451 7.90983H19.5106L13.6327 12.1803L15.8779 19.0902L10 14.8197L4.12215 19.0902L6.36729 12.1803L0.489441 7.90983H7.75487L10 1Z" fill="#fefefe"/></g><rect x="257.75" y="206.2" width="51.55" height="51.55" fill="#ffffff"/><g transform="translate(283.52,206.2) scale(1.2890000000000001) rotate(0)"><path d="M10 1L12.2451 7.90983H19.5106L13.6327 12.1803L15.8779 19.0902L10 14.8197L4.12215 19.0902L6.36729 12.1803L0.489441 7.90983H7.75487L10 1Z" fill="#fcfcfc"/></g><g transform="translate(257.75,231.98) scale(1.2890000000000001) rotate(0)"><path d="M10 1L12.2451 7.90983H19.5106L13.6327 12.1803L15.8779 19.0902L10 14.8197L4.12215 19.0902L6.36729 12.1803L0.489441 7.90983H7.75487L10 1Z" fill="#f5f6f8"/></g><g transform="translate(283.52,231.98) scale(1.2890000000000001) rotate(0)"><path d="M10 1L12.2451 7.90983H19.5106L13.6327 12.1803L15.8779 19.0902L10 14.8197L4.12215 19.0902L6.36729 12.1803L0.489441 7.90983H7.75487L10 1Z" fill="#fbfbfc"/></g><rect x="309.29999999999995" y="206.2" width="51.55" height="51.55" fill="#ffffff"/><g transform="translate(309.3,206.2) scale(1.2890000000000001) rotate(0)"><path d="M10 1L12.2451 7.90983H19.5106L13.6327 12.1803L15.8779 19.0902L10 14.8197L4.12215 19.0902L6.36729 12.1803L0.489441 7.90983H7.75487L10 1Z" fill="#f8f8f9"/></g><g transform="translate(335.07,206.2) scale(1.2890000000000001) rotate(0)"><path d="M10 1L12.2451 7.90983H19.5106L13.6327 12.1803L15.8779 19.0902L10 14.8197L4.12215 19.0902L6.36729 12.1803L0.489441 7.90983H7.75487L10 1Z" fill="#fcfcfc"/></g><g transform="translate(309.3,231.98) scale(1.2890000000000001) rotate(0)"><path d="M10 1L12.2451 7.90983H19.5106L13.6327 12.1803L15.8779 19.0902L10 14.8197L4.12215 19.0902L6.36729 12.1803L0.489441 7.90983H7.75487L10 1Z" fill="#fbfbfc"/></g><g transform="translate(335.07,231.98) scale(1.2890000000000001) rotate(0)"><path d="M10 1L12.2451 7.90983H19.5106L13.6327 12.1803L15.8779 19.0902L10 14.8197L4.12215 19.0902L6.36729 12.1803L0.489441 7.90983H7.75487L10 1Z" fill="#f7f8f9"/></g><rect x="360.84999999999997" y="206.2" width="51.55" height="51.55" fill="#ffffff"/><g transform="translate(360.85,206.2) scale(1.2890000000000001) rotate(0)"><path d="M10 1L12.2451 7.90983H19.5106L13.6327 12.1803L15.8779 19.0902L10 14.8197L4.12215 19.0902L6.36729 12.1803L0.489441 7.90983H7.75487L10 1Z" fill="#f7f8f9"/></g><g transform="translate(386.62,206.2) scale(1.2890000000000001) rotate(0)"><path d="M10 1L12.2451 7.90983H19.5106L13.6327 12.1803L15.8779 19.0902L10 14.8197L4.12215 19.0902L6.36729 12.1803L0.489441 7.90983H7.75487L10 1Z" fill="#f5f6f7"/></g><g transform="translate(360.85,231.98) scale(1.2890000000000001) rotate(0)"><path d="M10 1L12.2451 7.90983H19.5106L13.6327 12.1803L15.8779 19.0902L10 14.8197L4.12215 19.0902L6.36729 12.1803L0.489441 7.90983H7.75487L10 1Z" fill="#f4f5f7"/></g><g transform="translate(386.62,231.98) scale(1.2890000000000001) rotate(0)"><path d="M10 1L12.2451 7.90983H19.5106L13.6327 12.1803L15.8779 19.0902L10 14.8197L4.12215 19.0902L6.36729 12.1803L0.489441 7.90983H7.75487L10 1Z" fill="#fafafb"/></g><g transform="translate(515.5,206.2) scale(2.5774999999999997) rotate(0)"><path d="M10 1L12.2451 7.90983H19.5106L13.6327 12.1803L15.8779 19.0902L10 14.8197L4.12215 19.0902L6.36729 12.1803L0.489441 7.90983H7.75487L10 1Z" fill="#fefefe"/></g><rect x="567.05" y="206.2" width="51.55" height="51.55" fill="#ffffff"/><g transform="translate(567.05,231.98) scale(1.2890000000000001) rotate(0)"><path d="M10 1L12.2451 7.90983H19.5106L13.6327 12.1803L15.8779 19.0902L10 14.8197L4.12215 19.0902L6.36729 12.1803L0.489441 7.90983H7.75487L10 1Z" fill="#f4f5f7"/></g><g transform="translate(670.15,206.2) scale(2.5774999999999997) rotate(0)"><path d="M10 1L12.2451 7.90983H19.5106L13.6327 12.1803L15.8779 19.0902L10 14.8197L4.12215 19.0902L6.36729 12.1803L0.489441 7.90983H7.75487L10 1Z" fill="#fdfdfe"/></g><rect x="773.25" y="206.2" width="51.55" height="51.55" fill="#ffffff"/><g transform="translate(799.03,206.2) scale(1.2890000000000001) rotate(0)"><path d="M10 1L12.2451 7.90983H19.5106L13.6327 12.1803L15.8779 19.0902L10 14.8197L4.12215 19.0902L6.36729 12.1803L0.489441 7.90983H7.75487L10 1Z" fill="#fbfcfc"/></g><g transform="translate(773.25,231.98) scale(1.2890000000000001) rotate(0)"><path d="M10 1L12.2451 7.90983H19.5106L13.6327 12.1803L15.8779 19.0902L10 14.8197L4.12215 19.0902L6.36729 12.1803L0.489441 7.90983H7.75487L10 1Z" fill="#fbfbfc"/></g><g transform="translate(799.03,231.98) scale(1.2890000000000001) rotate(0)"><path d="M10 1L12.2451 7.90983H19.5106L13.6327 12.1803L15.8779 19.0902L10 14.8197L4.12215 19.0902L6.36729 12.1803L0.489441 7.90983H7.75487L10 1Z" fill="#f3f4f6"/></g><rect x="824.8" y="206.2" width="51.55" height="51.55" fill="#ffffff"/><g transform="translate(824.8,206.2) scale(1.2890000000000001) rotate(0)"><path d="M10 1L12.2451 7.90983H19.5106L13.6327 12.1803L15.8779 19.0902L10 14.8197L4.12215 19.0902L6.36729 12.1803L0.489441 7.90983H7.75487L10 1Z" fill="#fafbfc"/></g><rect x="876.3499999999999" y="206.2" width="51.55" height="51.55" fill="#ffffff"/><g transform="translate(876.35,206.2) scale(1.2890000000000001) rotate(0)"><path d="M10 1L12.2451 7.90983H19.5106L13.6327 12.1803L15.8779 19.0902L10 14.8197L4.12215 19.0902L6.36729 12.1803L0.489441 7.90983H7.75487L10 1Z" fill="#fefefe"/></g><g transform="translate(902.12,206.2) scale(1.2890000000000001) rotate(0)"><path d="M10 1L12.2451 7.90983H19.5106L13.6327 12.1803L15.8779 19.0902L10 14.8197L4.12215 19.0902L6.36729 12.1803L0.489441 7.90983H7.75487L10 1Z" fill="#fefefe"/></g><g transform="translate(876.35,231.98) scale(1.2890000000000001) rotate(0)"><path d="M10 1L12.2451 7.90983H19.5106L13.6327 12.1803L15.8779 19.0902L10 14.8197L4.12215 19.0902L6.36729 12.1803L0.489441 7.90983H7.75487L10 1Z" fill="#fcfdfd"/></g><g transform="translate(902.12,231.98) scale(1.2890000000000001) rotate(0)"><path d="M10 1L12.2451 7.90983H19.5106L13.6327 12.1803L15.8779 19.0902L10 14.8197L4.12215 19.0902L6.36729 12.1803L0.489441 7.90983H7.75487L10 1Z" fill="#fbfbfc"/></g><rect x="927.9" y="206.2" width="51.55" height="51.55" fill="#ffffff"/><g transform="translate(927.9,206.2) scale(1.2890000000000001) rotate(0)"><path d="M10 1L12.2451 7.90983H19.5106L13.6327 12.1803L15.8779 19.0902L10 14.8197L4.12215 19.0902L6.36729 12.1803L0.489441 7.90983H7.75487L10 1Z" fill="#f7f7f9"/></g><g transform="translate(953.68,231.98) scale(1.2890000000000001) rotate(0)"><path d="M10 1L12.2451 7.90983H19.5106L13.6327 12.1803L15.8779 19.0902L10 14.8197L4.12215 19.0902L6.36729 12.1803L0.489441 7.90983H7.75487L10 1Z" fill="#fcfdfd"/></g><g transform="translate(51.55,257.75) scale(2.5774999999999997) rotate(0)"><path d="M10 1L12.2451 7.90983H19.5106L13.6327 12.1803L15.8779 19.0902L10 14.8197L4.12215 19.0902L6.36729 12.1803L0.489441 7.90983H7.75487L10 1Z" fill="#f4f5f7"/></g><rect x="103.1" y="257.75" width="51.55" height="51.55" fill="#ffffff"/><g transform="translate(103.1,257.75) scale(1.2890000000000001) rotate(0)"><path d="M10 1L12.2451 7.90983H19.5106L13.6327 12.1803L15.8779 19.0902L10 14.8197L4.12215 19.0902L6.36729 12.1803L0.489441 7.90983H7.75487L10 1Z" fill="#f8f8fa"/></g><g transform="translate(103.1,283.52) scale(1.2890000000000001) rotate(0)"><path d="M10 1L12.2451 7.90983H19.5106L13.6327 12.1803L15.8779 19.0902L10 14.8197L4.12215 19.0902L6.36729 12.1803L0.489441 7.90983H7.75487L10 1Z" fill="#f6f7f8"/></g><g transform="translate(128.88,283.52) scale(1.2890000000000001) rotate(0)"><path d="M10 1L12.2451 7.90983H19.5106L13.6327 12.1803L15.8779 19.0902L10 14.8197L4.12215 19.0902L6.36729 12.1803L0.489441 7.90983H7.75487L10 1Z" fill="#f8f9fa"/></g><rect x="206.2" y="257.75" width="51.55" height="51.55" fill="#ffffff"/><g transform="translate(206.2,257.75) scale(1.2890000000000001) rotate(0)"><path d="M10 1L12.2451 7.90983H19.5106L13.6327 12.1803L15.8779 19.0902L10 14.8197L4.12215 19.0902L6.36729 12.1803L0.489441 7.90983H7.75487L10 1Z" fill="#f7f7f9"/></g><g transform="translate(231.98,257.75) scale(1.2890000000000001) rotate(0)"><path d="M10 1L12.2451 7.90983H19.5106L13.6327 12.1803L15.8779 19.0902L10 14.8197L4.12215 19.0902L6.36729 12.1803L0.489441 7.90983H7.75487L10 1Z" fill="#f8f8f9"/></g><g transform="translate(231.98,283.52) scale(1.2890000000000001) rotate(0)"><path d="M10 1L12.2451 7.90983H19.5106L13.6327 12.1803L15.8779 19.0902L10 14.8197L4.12215 19.0902L6.36729 12.1803L0.489441 7.90983H7.75487L10 1Z" fill="#fbfbfc"/></g><rect x="309.29999999999995" y="257.75" width="51.55" height="51.55" fill="#ffffff"/><rect x="360.84999999999997" y="257.75" width="51.55" height="51.55" fill="#ffffff"/><g transform="translate(360.85,257.75) scale(1.2890000000000001) rotate(0)"><path d="M10 1L12.2451 7.90983H19.5106L13.6327 12.1803L15.8779 19.0902L10 14.8197L4.12215 19.0902L6.36729 12.1803L0.489441 7.90983H7.75487L10 1Z" fill="#fdfdfd"/></g><g transform="translate(386.62,257.75) scale(1.2890000000000001) rotate(0)"><path d="M10 1L12.2451 7.90983H19.5106L13.6327 12.1803L15.8779 19.0902L10 14.8197L4.12215 19.0902L6.36729 12.1803L0.489441 7.90983H7.75487L10 1Z" fill="#fdfdfe"/></g><g transform="translate(360.85,283.52) scale(1.2890000000000001) rotate(0)"><path d="M10 1L12.2451 7.90983H19.5106L13.6327 12.1803L15.8779 19.0902L10 14.8197L4.12215 19.0902L6.36729 12.1803L0.489441 7.90983H7.75487L10 1Z" fill="#fcfcfd"/></g><g transform="translate(386.62,283.52) scale(1.2890000000000001) rotate(0)"><path d="M10 1L12.2451 7.90983H19.5106L13.6327 12.1803L15.8779 19.0902L10 14.8197L4.12215 19.0902L6.36729 12.1803L0.489441 7.90983H7.75487L10 1Z" fill="#f8f8fa"/></g><rect x="463.95" y="257.75" width="51.55" height="51.55" fill="#ffffff"/><g transform="translate(463.95,257.75) scale(1.2890000000000001) rotate(0)"><path d="M10 1L12.2451 7.90983H19.5106L13.6327 12.1803L15.8779 19.0902L10 14.8197L4.12215 19.0902L6.36729 12.1803L0.489441 7.90983H7.75487L10 1Z" fill="#fbfcfc"/></g><g transform="translate(489.73,257.75) scale(1.2890000000000001) rotate(0)"><path d="M10 1L12.2451 7.90983H19.5106L13.6327 12.1803L15.8779 19.0902L10 14.8197L4.12215 19.0902L6.36729 12.1803L0.489441 7.90983H7.75487L10 1Z" fill="#fcfcfd"/></g><g transform="translate(489.73,283.52) scale(1.2890000000000001) rotate(0)"><path d="M10 1L12.2451 7.90983H19.5106L13.6327 12.1803L15.8779 19.0902L10 14.8197L4.12215 19.0902L6.36729 12.1803L0.489441 7.90983H7.75487L10 1Z" fill="#fbfcfc"/></g><rect x="618.5999999999999" y="257.75" width="51.55" height="51.55" fill="#ffffff"/><g transform="translate(618.6,257.75) scale(1.2890000000000001) rotate(0)"><path d="M10 1L12.2451 7.90983H19.5106L13.6327 12.1803L15.8779 19.0902L10 14.8197L4.12215 19.0902L6.36729 12.1803L0.489441 7.90983H7.75487L10 1Z" fill="#fbfcfc"/></g><g transform="translate(644.37,257.75) scale(1.2890000000000001) rotate(0)"><path d="M10 1L12.2451 7.90983H19.5106L13.6327 12.1803L15.8779 19.0902L10 14.8197L4.12215 19.0902L6.36729 12.1803L0.489441 7.90983H7.75487L10 1Z" fill="#f5f6f7"/></g><g transform="translate(644.37,283.52) scale(1.2890000000000001) rotate(0)"><path d="M10 1L12.2451 7.90983H19.5106L13.6327 12.1803L15.8779 19.0902L10 14.8197L4.12215 19.0902L6.36729 12.1803L0.489441 7.90983H7.75487L10 1Z" fill="#ffffff"/></g><g transform="translate(773.25,257.75) scale(2.5774999999999997) rotate(0)"><path d="M10 1L12.2451 7.90983H19.5106L13.6327 12.1803L15.8779 19.0902L10 14.8197L4.12215 19.0902L6.36729 12.1803L0.489441 7.90983H7.75487L10 1Z" fill="#f7f8f9"/></g><rect x="876.3499999999999" y="257.75" width="51.55" height="51.55" fill="#ffffff"/><g transform="translate(876.35,257.75) scale(1.2890000000000001) rotate(0)"><path d="M10 1L12.2451 7.90983H19.5106L13.6327 12.1803L15.8779 19.0902L10 14.8197L4.12215 19.0902L6.36729 12.1803L0.489441 7.90983H7.75487L10 1Z" fill="#f6f7f8"/></g><g transform="translate(902.12,257.75) scale(1.2890000000000001) rotate(0)"><path d="M10 1L12.2451 7.90983H19.5106L13.6327 12.1803L15.8779 19.0902L10 14.8197L4.12215 19.0902L6.36729 12.1803L0.489441 7.90983H7.75487L10 1Z" fill="#fcfcfd"/></g><g transform="translate(927.9,257.75) scale(2.5774999999999997) rotate(0)"><path d="M10 1L12.2451 7.90983H19.5106L13.6327 12.1803L15.8779 19.0902L10 14.8197L4.12215 19.0902L6.36729 12.1803L0.489441 7.90983H7.75487L10 1Z" fill="#fefeff"/></g><rect x="979.4499999999999" y="257.75" width="51.55" height="51.55" fill="#ffffff"/><g transform="translate(979.45,283.52) scale(1.2890000000000001) rotate(0)"><path d="M10 1L12.2451 7.90983H19.5106L13.6327 12.1803L15.8779 19.0902L10 14.8197L4.12215 19.0902L6.36729 12.1803L0.489441 7.90983H7.75487L10 1Z" fill="#f7f7f9"/></g><g transform="translate(1005.22,283.52) scale(1.2890000000000001) rotate(0)"><path d="M10 1L12.2451 7.90983H19.5106L13.6327 12.1803L15.8779 19.0902L10 14.8197L4.12215 19.0902L6.36729 12.1803L0.489441 7.90983H7.75487L10 1Z" fill="#f7f8f9"/></g></g></svg>