<?xml version="1.0" standalone="no"?><svg xmlns:xlink="http://www.w3.org/1999/xlink" xmlns="http://www.w3.org/2000/svg" viewBox="0 0 1000 299.9970902036858" preserveAspectRatio="xMaxYMax slice"><g transform="scale(0.9699321047526673)"><rect x="0" y="0" width="1031" height="309.29999999999995" fill="#ffffff"/><rect x="0" y="0" width="51.55" height="51.55" fill="#ffffff"/><rect x="25.78" y="0" width="25.78" height="25.78" fill="#f4f5f7"/><rect x="25.78" y="25.78" width="25.78" height="25.78" fill="#f4f5f6"/><rect x="51.55" y="0" width="51.55" height="51.55" fill="#fefefe"/><rect x="103.1" y="0" width="51.55" height="51.55" fill="#ffffff"/><rect x="128.88" y="0" width="25.78" height="25.78" fill="#ffffff"/><rect x="103.1" y="25.78" width="25.78" height="25.78" fill="#fcfcfd"/><rect x="128.88" y="25.78" width="25.78" height="25.78" fill="#fefefe"/><rect x="154.65" y="0" width="51.55" height="51.55" fill="#fdfdfe"/><rect x="257.75" y="0" width="51.55" height="51.55" fill="#ffffff"/><rect x="283.52" y="0" width="25.78" height="25.78" fill="#f3f4f6"/><rect x="257.75" y="25.78" width="25.78" height="25.78" fill="#f8f9fa"/><rect x="309.3" y="0" width="51.55" height="51.55" fill="#f6f7f9"/><rect x="360.84999999999997" y="0" width="51.55" height="51.55" fill="#ffffff"/><rect x="360.85" y="0" width="25.78" height="25.78" fill="#fdfdfe"/><rect x="386.62" y="25.78" width="25.78" height="25.78" fill="#fefefe"/><rect x="412.4" y="0" width="51.55" height="51.55" fill="#fcfcfd"/><rect x="515.5" y="0" width="51.55" height="51.55" fill="#ffffff"/><rect x="515.5" y="25.78" width="25.78" height="25.78" fill="#f9fafb"/><rect x="541.28" y="25.78" width="25.78" height="25.78" fill="#f4f5f7"/><rect x="618.5999999999999" y="0" width="51.55" height="51.55" fill="#ffffff"/><rect x="618.6" y="0" width="25.78" height="25.78" fill="#f8f8f9"/><rect x="644.37" y="0" width="25.78" height="25.78" fill="#f9fafb"/><rect x="618.6" y="25.78" width="25.78" height="25.78" fill="#fbfbfc"/><rect x="644.37" y="25.78" width="25.78" height="25.78" fill="#f8f8fa"/><rect x="670.15" y="0" width="51.55" height="51.55" fill="#ffffff"/><rect x="695.93" y="0" width="25.78" height="25.78" fill="#f6f6f8"/><rect x="773.25" y="0" width="51.55" height="51.55" fill="#ffffff"/><rect x="799.03" y="0" width="25.78" height="25.78" fill="#fbfbfc"/><rect x="773.25" y="25.78" width="25.78" height="25.78" fill="#f9fafb"/><rect x="799.03" y="25.78" width="25.78" height="25.78" fill="#fafafb"/><rect x="824.8" y="0" width="51.55" height="51.55" fill="#ffffff"/><rect x="824.8" y="0" width="25.78" height="25.78" fill="#fcfdfd"/><rect x="850.58" y="25.78" width="25.78" height="25.78" fill="#f8f8f9"/><rect x="876.3499999999999" y="0" width="51.55" height="51.55" fill="#ffffff"/><rect x="876.35" y="0" width="25.78" height="25.78" fill="#fcfdfd"/><rect x="902.12" y="0" width="25.78" height="25.78" fill="#f7f8f9"/><rect x="876.35" y="25.78" width="25.78" height="25.78" fill="#f5f6f7"/><rect x="927.9" y="0" width="51.55" height="51.55" fill="#ffffff"/><rect x="927.9" y="0" width="25.78" height="25.78" fill="#fefefe"/><rect x="953.68" y="0" width="25.78" height="25.78" fill="#fafbfc"/><rect x="927.9" y="25.78" width="25.78" height="25.78" fill="#f5f6f8"/><rect x="953.68" y="25.78" width="25.78" height="25.78" fill="#fdfdfd"/><rect x="0" y="51.55" width="51.55" height="51.55" fill="#fbfcfc"/><rect x="154.65" y="51.55" width="51.55" height="51.55" fill="#f8f9fa"/><rect x="309.29999999999995" y="51.55" width="51.55" height="51.55" fill="#ffffff"/><rect x="335.07" y="51.55" width="25.78" height="25.78" fill="#f3f4f6"/><rect x="335.07" y="77.32" width="25.78" height="25.78" fill="#f3f4f6"/><rect x="360.84999999999997" y="51.55" width="51.55" height="51.55" fill="#ffffff"/><rect x="360.85" y="51.55" width="25.78" height="25.78" fill="#f9fafb"/><rect x="386.62" y="51.55" width="25.78" height="25.78" fill="#f3f4f6"/><rect x="412.4" y="51.55" width="51.55" height="51.55" fill="#ffffff"/><rect x="412.4" y="51.55" width="25.78" height="25.78" fill="#f9f9fa"/><rect x="438.17" y="51.55" width="25.78" height="25.78" fill="#f7f8f9"/><rect x="412.4" y="77.32" width="25.78" height="25.78" fill="#fefefe"/><rect x="438.17" y="77.32" width="25.78" height="25.78" fill="#ffffff"/><rect x="515.5" y="51.55" width="51.55" height="51.55" fill="#ffffff"/><rect x="541.28" y="51.55" width="25.78" height="25.78" fill="#f4f5f7"/><rect x="515.5" y="77.32" width="25.78" height="25.78" fill="#f5f6f7"/><rect x="618.5999999999999" y="51.55" width="51.55" height="51.55" fill="#ffffff"/><rect x="618.6" y="51.55" width="25.78" height="25.78" fill="#fefefe"/><rect x="644.37" y="51.55" width="25.78" height="25.78" fill="#f8f9fa"/><rect x="618.6" y="77.32" width="25.78" height="25.78" fill="#f8f9fa"/><rect x="670.15" y="51.55" width="51.55" height="51.55" fill="#ffffff"/><rect x="670.15" y="51.55" width="25.78" height="25.78" fill="#fafafb"/><rect x="695.93" y="51.55" width="25.78" height="25.78" fill="#f9fafb"/><rect x="670.15" y="77.32" width="25.78" height="25.78" fill="#f4f5f7"/><rect x="695.93" y="77.32" width="25.78" height="25.78" fill="#f4f5f7"/><rect x="721.7" y="51.55" width="51.55" height="51.55" fill="#f9fafb"/><rect x="824.8" y="51.55" width="51.55" height="51.55" fill="#ffffff"/><rect x="824.8" y="51.55" width="25.78" height="25.78" fill="#f5f6f7"/><rect x="824.8" y="77.32" width="25.78" height="25.78" fill="#f4f4f6"/><rect x="850.58" y="77.32" width="25.78" height="25.78" fill="#fefefe"/><rect x="927.9" y="51.55" width="51.55" height="51.55" fill="#ffffff"/><rect x="927.9" y="51.55" width="25.78" height="25.78" fill="#f8f9fa"/><rect x="953.68" y="51.55" width="25.78" height="25.78" fill="#f9f9fa"/><rect x="927.9" y="77.32" width="25.78" height="25.78" fill="#fbfcfc"/><rect x="953.68" y="77.32" width="25.78" height="25.78" fill="#f6f7f9"/><rect x="0" y="103.1" width="51.55" height="51.55" fill="#ffffff"/><rect x="0" y="103.1" width="25.78" height="25.78" fill="#fafafb"/><rect x="25.78" y="103.1" width="25.78" height="25.78" fill="#fdfdfe"/><rect x="0" y="128.88" width="25.78" height="25.78" fill="#f9f9fa"/><rect x="25.78" y="128.88" width="25.78" height="25.78" fill="#f9fafb"/><rect x="51.55" y="103.1" width="51.55" height="51.55" fill="#f7f8f9"/><rect x="206.2" y="103.1" width="51.55" height="51.55" fill="#ffffff"/><rect x="206.2" y="103.1" width="25.78" height="25.78" fill="#fbfbfc"/><rect x="231.98" y="103.1" width="25.78" height="25.78" fill="#f5f6f8"/><rect x="231.98" y="128.88" width="25.78" height="25.78" fill="#f7f7f9"/><rect x="257.75" y="103.1" width="51.55" height="51.55" fill="#ffffff"/><rect x="257.75" y="103.1" width="25.78" height="25.78" fill="#fbfbfc"/><rect x="283.52" y="103.1" width="25.78" height="25.78" fill="#f8f9fa"/><rect x="309.29999999999995" y="103.1" width="51.55" height="51.55" fill="#ffffff"/><rect x="335.07" y="103.1" width="25.78" height="25.78" fill="#fcfcfd"/><rect x="309.3" y="128.88" width="25.78" height="25.78" fill="#f3f4f6"/><rect x="335.07" y="128.88" width="25.78" height="25.78" fill="#fdfdfd"/><rect x="412.4" y="103.1" width="51.55" height="51.55" fill="#f6f7f8"/><rect x="463.95" y="103.1" width="51.55" height="51.55" fill="#f4f5f7"/><rect x="515.5" y="103.1" width="51.55" height="51.55" fill="#ffffff"/><rect x="541.28" y="103.1" width="25.78" height="25.78" fill="#f7f8f9"/><rect x="515.5" y="128.88" width="25.78" height="25.78" fill="#ffffff"/><rect x="541.28" y="128.88" width="25.78" height="25.78" fill="#f9fafb"/><rect x="567.05" y="103.1" width="51.55" height="51.55" fill="#fdfdfd"/><rect x="618.5999999999999" y="103.1" width="51.55" height="51.55" fill="#ffffff"/><rect x="618.6" y="103.1" width="25.78" height="25.78" fill="#f7f7f9"/><rect x="644.37" y="103.1" width="25.78" height="25.78" fill="#f5f5f7"/><rect x="618.6" y="128.88" width="25.78" height="25.78" fill="#fdfdfd"/><rect x="721.7" y="103.1" width="51.55" height="51.55" fill="#fefefe"/><rect x="773.25" y="103.1" width="51.55" height="51.55" fill="#ffffff"/><rect x="799.03" y="103.1" width="25.78" height="25.78" fill="#fafbfb"/><rect x="799.03" y="128.88" width="25.78" height="25.78" fill="#f4f5f7"/><rect x="824.8" y="103.1" width="51.55" height="51.55" fill="#fdfdfd"/><rect x="927.9" y="103.1" width="51.55" height="51.55" fill="#ffffff"/><rect x="927.9" y="103.1" width="25.78" height="25.78" fill="#f8f8f9"/><rect x="953.68" y="103.1" width="25.78" height="25.78" fill="#f7f8f9"/><rect x="953.68" y="128.88" width="25.78" height="25.78" fill="#f7f8f9"/><rect x="0" y="154.64999999999998" width="51.55" height="51.55" fill="#ffffff"/><rect x="0" y="154.65" width="25.78" height="25.78" fill="#fafafb"/><rect x="0" y="180.43" width="25.78" height="25.78" fill="#fbfbfc"/><rect x="51.55" y="154.64999999999998" width="51.55" height="51.55" fill="#ffffff"/><rect x="51.55" y="154.65" width="25.78" height="25.78" fill="#fcfcfd"/><rect x="77.32" y="180.43" width="25.78" height="25.78" fill="#fefefe"/><rect x="154.65" y="154.65" width="51.55" height="51.55" fill="#f5f6f7"/><rect x="206.2" y="154.64999999999998" width="51.55" height="51.55" fill="#ffffff"/><rect x="206.2" y="180.43" width="25.78" height="25.78" fill="#f5f6f8"/><rect x="231.98" y="180.43" width="25.78" height="25.78" fill="#fcfcfd"/><rect x="360.84999999999997" y="154.64999999999998" width="51.55" height="51.55" fill="#ffffff"/><rect x="360.85" y="154.65" width="25.78" height="25.78" fill="#f8f8fa"/><rect x="386.62" y="154.65" width="25.78" height="25.78" fill="#fdfdfe"/><rect x="463.95" y="154.64999999999998" width="51.55" height="51.55" fill="#ffffff"/><rect x="463.95" y="154.65" width="25.78" height="25.78" fill="#f8f9fa"/><rect x="489.73" y="154.65" width="25.78" height="25.78" fill="#ffffff"/><rect x="515.5" y="154.65" width="51.55" height="51.55" fill="#fcfdfd"/><rect x="567.05" y="154.65" width="51.55" height="51.55" fill="#fdfefe"/><rect x="618.5999999999999" y="154.64999999999998" width="51.55" height="51.55" fill="#ffffff"/><rect x="644.37" y="154.65" width="25.78" height="25.78" fill="#ffffff"/><rect x="670.15" y="154.64999999999998" width="51.55" height="51.55" fill="#ffffff"/><rect x="695.93" y="154.65" width="25.78" height="25.78" fill="#fdfdfe"/><rect x="670.15" y="180.43" width="25.78" height="25.78" fill="#f6f7f9"/><rect x="721.6999999999999" y="154.64999999999998" width="51.55" height="51.55" fill="#ffffff"/><rect x="721.7" y="154.65" width="25.78" height="25.78" fill="#f6f6f8"/><rect x="747.47" y="154.65" width="25.78" height="25.78" fill="#fdfdfd"/><rect x="747.47" y="180.43" width="25.78" height="25.78" fill="#f8f8fa"/><rect x="824.8" y="154.64999999999998" width="51.55" height="51.55" fill="#ffffff"/><rect x="824.8" y="154.65" width="25.78" height="25.78" fill="#f5f6f7"/><rect x="824.8" y="180.43" width="25.78" height="25.78" fill="#f8f8fa"/><rect x="850.58" y="180.43" width="25.78" height="25.78" fill="#fdfdfd"/><rect x="927.9" y="154.64999999999998" width="51.55" height="51.55" fill="#ffffff"/><rect x="953.68" y="154.65" width="25.78" height="25.78" fill="#f3f4f6"/><rect x="927.9" y="180.43" width="25.78" height="25.78" fill="#f6f7f8"/><rect x="953.68" y="180.43" width="25.78" height="25.78" fill="#f3f4f6"/><rect x="979.45" y="154.65" width="51.55" height="51.55" fill="#f9fafb"/><rect x="0" y="206.2" width="51.55" height="51.55" fill="#fcfcfc"/><rect x="51.55" y="206.2" width="51.55" height="51.55" fill="#ffffff"/><rect x="51.55" y="206.2" width="25.78" height="25.78" fill="#f8f9fa"/><rect x="77.32" y="206.2" width="25.78" height="25.78" fill="#f4f5f7"/><rect x="103.1" y="206.2" width="51.55" height="51.55" fill="#f7f8f9"/><rect x="154.64999999999998" y="206.2" width="51.55" height="51.55" fill="#ffffff"/><rect x="154.65" y="206.2" width="25.78" height="25.78" fill="#fbfbfc"/><rect x="180.43" y="206.2" width="25.78" height="25.78" fill="#fcfcfd"/><rect x="257.75" y="206.2" width="51.55" height="51.55" fill="#ffffff"/><rect x="283.52" y="206.2" width="25.78" height="25.78" fill="#f5f6f7"/><rect x="360.84999999999997" y="206.2" width="51.55" height="51.55" fill="#ffffff"/><rect x="360.85" y="231.98" width="25.78" height="25.78" fill="#f4f5f7"/><rect x="386.62" y="231.98" width="25.78" height="25.78" fill="#fafbfc"/><rect x="412.4" y="206.2" width="51.55" height="51.55" fill="#ffffff"/><rect x="412.4" y="206.2" width="25.78" height="25.78" fill="#fcfcfd"/><rect x="412.4" y="231.98" width="25.78" height="25.78" fill="#fafafb"/><rect x="438.17" y="231.98" width="25.78" height="25.78" fill="#fafbfc"/><rect x="463.95" y="206.2" width="51.55" height="51.55" fill="#ffffff"/><rect x="463.95" y="206.2" width="25.78" height="25.78" fill="#fafbfb"/><rect x="463.95" y="231.98" width="25.78" height="25.78" fill="#fefefe"/><rect x="489.73" y="231.98" width="25.78" height="25.78" fill="#f7f8f9"/><rect x="515.5" y="206.2" width="51.55" height="51.55" fill="#ffffff"/><rect x="515.5" y="231.98" width="25.78" height="25.78" fill="#f5f6f7"/><rect x="567.05" y="206.2" width="51.55" height="51.55" fill="#ffffff"/><rect x="567.05" y="206.2" width="25.78" height="25.78" fill="#fafafb"/><rect x="618.5999999999999" y="206.2" width="51.55" height="51.55" fill="#ffffff"/><rect x="618.6" y="206.2" width="25.78" height="25.78" fill="#ffffff"/><rect x="618.6" y="231.98" width="25.78" height="25.78" fill="#fdfdfe"/><rect x="644.37" y="231.98" width="25.78" height="25.78" fill="#f6f7f8"/><rect x="670.15" y="206.2" width="51.55" height="51.55" fill="#ffffff"/><rect x="670.15" y="206.2" width="25.78" height="25.78" fill="#f6f6f8"/><rect x="670.15" y="231.98" width="25.78" height="25.78" fill="#fcfcfd"/><rect x="773.25" y="206.2" width="51.55" height="51.55" fill="#ffffff"/><rect x="799.03" y="206.2" width="25.78" height="25.78" fill="#fafbfc"/><rect x="799.03" y="231.98" width="25.78" height="25.78" fill="#f9f9fa"/><rect x="824.8" y="206.2" width="51.55" height="51.55" fill="#ffffff"/><rect x="850.58" y="231.98" width="25.78" height="25.78" fill="#f8f8f9"/><rect x="876.3499999999999" y="206.2" width="51.55" height="51.55" fill="#ffffff"/><rect x="876.35" y="206.2" width="25.78" height="25.78" fill="#fbfcfc"/><rect x="902.12" y="206.2" width="25.78" height="25.78" fill="#f5f6f7"/><rect x="927.9" y="206.2" width="51.55" height="51.55" fill="#ffffff"/><rect x="927.9" y="206.2" width="25.78" height="25.78" fill="#f8f9fa"/><rect x="953.68" y="206.2" width="25.78" height="25.78" fill="#fdfdfd"/><rect x="927.9" y="231.98" width="25.78" height="25.78" fill="#f5f6f7"/><rect x="979.4499999999999" y="206.2" width="51.55" height="51.55" fill="#ffffff"/><rect x="1005.22" y="206.2" width="25.78" height="25.78" fill="#fbfcfc"/><rect x="979.45" y="231.98" width="25.78" height="25.78" fill="#f7f7f9"/><rect x="1005.22" y="231.98" width="25.78" height="25.78" fill="#fbfbfc"/><rect x="0" y="257.75" width="51.55" height="51.55" fill="#ffffff"/><rect x="0" y="257.75" width="25.78" height="25.78" fill="#fbfbfc"/><rect x="0" y="283.52" width="25.78" height="25.78" fill="#fcfdfd"/><rect x="103.1" y="257.75" width="51.55" height="51.55" fill="#ffffff"/><rect x="103.1" y="257.75" width="25.78" height="25.78" fill="#fbfbfc"/><rect x="128.88" y="257.75" width="25.78" height="25.78" fill="#f6f7f9"/><rect x="103.1" y="283.52" width="25.78" height="25.78" fill="#fbfcfc"/><rect x="128.88" y="283.52" width="25.78" height="25.78" fill="#f8f8fa"/><rect x="154.64999999999998" y="257.75" width="51.55" height="51.55" fill="#ffffff"/><rect x="154.65" y="257.75" width="25.78" height="25.78" fill="#f8f9fa"/><rect x="154.65" y="283.52" width="25.78" height="25.78" fill="#f3f4f6"/><rect x="180.43" y="283.52" width="25.78" height="25.78" fill="#f3f4f6"/><rect x="309.29999999999995" y="257.75" width="51.55" height="51.55" fill="#ffffff"/><rect x="309.3" y="257.75" width="25.78" height="25.78" fill="#fefefe"/><rect x="335.07" y="257.75" width="25.78" height="25.78" fill="#fefefe"/><rect x="309.3" y="283.52" width="25.78" height="25.78" fill="#fefefe"/><rect x="335.07" y="283.52" width="25.78" height="25.78" fill="#fefefe"/><rect x="515.5" y="257.75" width="51.55" height="51.55" fill="#fbfbfc"/><rect x="567.05" y="257.75" width="51.55" height="51.55" fill="#fbfcfc"/><rect x="618.5999999999999" y="257.75" width="51.55" height="51.55" fill="#ffffff"/><rect x="618.6" y="257.75" width="25.78" height="25.78" fill="#fafbfc"/><rect x="644.37" y="257.75" width="25.78" height="25.78" fill="#f5f6f8"/><rect x="618.6" y="283.52" width="25.78" height="25.78" fill="#f8f9fa"/><rect x="644.37" y="283.52" width="25.78" height="25.78" fill="#fcfcfd"/><rect x="670.15" y="257.75" width="51.55" height="51.55" fill="#ffffff"/><rect x="695.93" y="257.75" width="25.78" height="25.78" fill="#fefefe"/><rect x="670.15" y="283.52" width="25.78" height="25.78" fill="#fefefe"/><rect x="721.6999999999999" y="257.75" width="51.55" height="51.55" fill="#ffffff"/><rect x="721.7" y="257.75" width="25.78" height="25.78" fill="#f6f7f8"/><rect x="747.47" y="257.75" width="25.78" height="25.78" fill="#f5f6f7"/><rect x="721.7" y="283.52" width="25.78" height="25.78" fill="#f9f9fa"/><rect x="747.47" y="283.52" width="25.78" height="25.78" fill="#f8f9fa"/><rect x="773.25" y="257.75" width="51.55" height="51.55" fill="#ffffff"/><rect x="773.25" y="257.75" width="25.78" height="25.78" fill="#f7f8f9"/><rect x="799.03" y="257.75" width="25.78" height="25.78" fill="#f4f5f7"/><rect x="799.03" y="283.52" width="25.78" height="25.78" fill="#f8f9fa"/><rect x="824.8" y="257.75" width="51.55" height="51.55" fill="#ffffff"/><rect x="850.58" y="257.75" width="25.78" height="25.78" fill="#fdfefe"/><rect x="850.58" y="283.52" width="25.78" height="25.78" fill="#f5f6f8"/><rect x="979.4499999999999" y="257.75" width="51.55" height="51.55" fill="#ffffff"/><rect x="1005.22" y="257.75" width="25.78" height="25.78" fill="#fbfbfc"/><rect x="1005.22" y="283.52" width="25.78" height="25.78" fill="#f4f5f7"/></g></svg>