<?xml version="1.0" standalone="no"?><svg xmlns:xlink="http://www.w3.org/1999/xlink" xmlns="http://www.w3.org/2000/svg" viewBox="0 0 1000 299.9970902036858" preserveAspectRatio="xMaxYMax slice"><g transform="scale(0.9699321047526673)"><rect x="0" y="0" width="1031" height="309.29999999999995" fill="#ffffff"/><rect x="0" y="0" width="51.55" height="51.55" fill="#ffffff"/><g transform="translate(25.78,0) scale(1.2890000000000001) rotate(0)"><path d="M19.9981 0.00193429L3.72652 -7.68637e-07L8.4784 4.75382L0 13.2345L6.76585 20L15.2462 11.5208L20 16.2746L19.9981 0.00193429Z" fill="#f5f6f7"/></g><g transform="translate(25.78,25.78) scale(1.2890000000000001) rotate(0)"><path d="M19.9981 0.00193429L3.72652 -7.68637e-07L8.4784 4.75382L0 13.2345L6.76585 20L15.2462 11.5208L20 16.2746L19.9981 0.00193429Z" fill="#f9f9fa"/></g><rect x="51.55" y="0" width="51.55" height="51.55" fill="#ffffff"/><g transform="translate(51.55,0) scale(1.2890000000000001) rotate(0)"><path d="M19.9981 0.00193429L3.72652 -7.68637e-07L8.4784 4.75382L0 13.2345L6.76585 20L15.2462 11.5208L20 16.2746L19.9981 0.00193429Z" fill="#f6f7f8"/></g><g transform="translate(77.32,0) scale(1.2890000000000001) rotate(0)"><path d="M19.9981 0.00193429L3.72652 -7.68637e-07L8.4784 4.75382L0 13.2345L6.76585 20L15.2462 11.5208L20 16.2746L19.9981 0.00193429Z" fill="#f8f8fa"/></g><g transform="translate(51.55,25.78) scale(1.2890000000000001) rotate(0)"><path d="M19.9981 0.00193429L3.72652 -7.68637e-07L8.4784 4.75382L0 13.2345L6.76585 20L15.2462 11.5208L20 16.2746L19.9981 0.00193429Z" fill="#f5f5f7"/></g><g transform="translate(77.32,25.78) scale(1.2890000000000001) rotate(0)"><path d="M19.9981 0.00193429L3.72652 -7.68637e-07L8.4784 4.75382L0 13.2345L6.76585 20L15.2462 11.5208L20 16.2746L19.9981 0.00193429Z" fill="#ffffff"/></g><g transform="translate(103.1,0) scale(2.5774999999999997) rotate(0)"><path d="M19.9981 0.00193429L3.72652 -7.68637e-07L8.4784 4.75382L0 13.2345L6.76585 20L15.2462 11.5208L20 16.2746L19.9981 0.00193429Z" fill="#f3f4f6"/></g><g transform="translate(154.65,0) scale(2.5774999999999997) rotate(0)"><path d="M19.9981 0.00193429L3.72652 -7.68637e-07L8.4784 4.75382L0 13.2345L6.76585 20L15.2462 11.5208L20 16.2746L19.9981 0.00193429Z" fill="#f5f6f8"/></g><g transform="translate(206.2,0) scale(2.5774999999999997) rotate(0)"><path d="M19.9981 0.00193429L3.72652 -7.68637e-07L8.4784 4.75382L0 13.2345L6.76585 20L15.2462 11.5208L20 16.2746L19.9981 0.00193429Z" fill="#fcfcfd"/></g><g transform="translate(257.75,0) scale(2.5774999999999997) rotate(0)"><path d="M19.9981 0.00193429L3.72652 -7.68637e-07L8.4784 4.75382L0 13.2345L6.76585 20L15.2462 11.5208L20 16.2746L19.9981 0.00193429Z" fill="#f4f5f7"/></g><rect x="360.84999999999997" y="0" width="51.55" height="51.55" fill="#ffffff"/><g transform="translate(386.62,0) scale(1.2890000000000001) rotate(0)"><path d="M19.9981 0.00193429L3.72652 -7.68637e-07L8.4784 4.75382L0 13.2345L6.76585 20L15.2462 11.5208L20 16.2746L19.9981 0.00193429Z" fill="#f5f6f7"/></g><g transform="translate(412.4,0) scale(2.5774999999999997) rotate(0)"><path d="M19.9981 0.00193429L3.72652 -7.68637e-07L8.4784 4.75382L0 13.2345L6.76585 20L15.2462 11.5208L20 16.2746L19.9981 0.00193429Z" fill="#f7f8f9"/></g><rect x="515.5" y="0" width="51.55" height="51.55" fill="#ffffff"/><g transform="translate(515.5,0) scale(1.2890000000000001) rotate(0)"><path d="M19.9981 0.00193429L3.72652 -7.68637e-07L8.4784 4.75382L0 13.2345L6.76585 20L15.2462 11.5208L20 16.2746L19.9981 0.00193429Z" fill="#fdfdfd"/></g><g transform="translate(515.5,25.78) scale(1.2890000000000001) rotate(0)"><path d="M19.9981 0.00193429L3.72652 -7.68637e-07L8.4784 4.75382L0 13.2345L6.76585 20L15.2462 11.5208L20 16.2746L19.9981 0.00193429Z" fill="#f6f7f8"/></g><g transform="translate(541.28,25.78) scale(1.2890000000000001) rotate(0)"><path d="M19.9981 0.00193429L3.72652 -7.68637e-07L8.4784 4.75382L0 13.2345L6.76585 20L15.2462 11.5208L20 16.2746L19.9981 0.00193429Z" fill="#f7f8f9"/></g><rect x="618.5999999999999" y="0" width="51.55" height="51.55" fill="#ffffff"/><g transform="translate(618.6,0) scale(1.2890000000000001) rotate(0)"><path d="M19.9981 0.00193429L3.72652 -7.68637e-07L8.4784 4.75382L0 13.2345L6.76585 20L15.2462 11.5208L20 16.2746L19.9981 0.00193429Z" fill="#f7f8f9"/></g><g transform="translate(644.37,0) scale(1.2890000000000001) rotate(0)"><path d="M19.9981 0.00193429L3.72652 -7.68637e-07L8.4784 4.75382L0 13.2345L6.76585 20L15.2462 11.5208L20 16.2746L19.9981 0.00193429Z" fill="#f8f9fa"/></g><g transform="translate(618.6,25.78) scale(1.2890000000000001) rotate(0)"><path d="M19.9981 0.00193429L3.72652 -7.68637e-07L8.4784 4.75382L0 13.2345L6.76585 20L15.2462 11.5208L20 16.2746L19.9981 0.00193429Z" fill="#fefefe"/></g><g transform="translate(644.37,25.78) scale(1.2890000000000001) rotate(0)"><path d="M19.9981 0.00193429L3.72652 -7.68637e-07L8.4784 4.75382L0 13.2345L6.76585 20L15.2462 11.5208L20 16.2746L19.9981 0.00193429Z" fill="#f8f8fa"/></g><rect x="670.15" y="0" width="51.55" height="51.55" fill="#ffffff"/><g transform="translate(670.15,25.78) scale(1.2890000000000001) rotate(0)"><path d="M19.9981 0.00193429L3.72652 -7.68637e-07L8.4784 4.75382L0 13.2345L6.76585 20L15.2462 11.5208L20 16.2746L19.9981 0.00193429Z" fill="#fcfcfd"/></g><g transform="translate(695.93,25.78) scale(1.2890000000000001) rotate(0)"><path d="M19.9981 0.00193429L3.72652 -7.68637e-07L8.4784 4.75382L0 13.2345L6.76585 20L15.2462 11.5208L20 16.2746L19.9981 0.00193429Z" fill="#ffffff"/></g><rect x="824.8" y="0" width="51.55" height="51.55" fill="#ffffff"/><g transform="translate(824.8,0) scale(1.2890000000000001) rotate(0)"><path d="M19.9981 0.00193429L3.72652 -7.68637e-07L8.4784 4.75382L0 13.2345L6.76585 20L15.2462 11.5208L20 16.2746L19.9981 0.00193429Z" fill="#fefefe"/></g><g transform="translate(850.58,0) scale(1.2890000000000001) rotate(0)"><path d="M19.9981 0.00193429L3.72652 -7.68637e-07L8.4784 4.75382L0 13.2345L6.76585 20L15.2462 11.5208L20 16.2746L19.9981 0.00193429Z" fill="#f6f7f9"/></g><g transform="translate(824.8,25.78) scale(1.2890000000000001) rotate(0)"><path d="M19.9981 0.00193429L3.72652 -7.68637e-07L8.4784 4.75382L0 13.2345L6.76585 20L15.2462 11.5208L20 16.2746L19.9981 0.00193429Z" fill="#f4f5f7"/></g><rect x="876.3499999999999" y="0" width="51.55" height="51.55" fill="#ffffff"/><g transform="translate(876.35,0) scale(1.2890000000000001) rotate(0)"><path d="M19.9981 0.00193429L3.72652 -7.68637e-07L8.4784 4.75382L0 13.2345L6.76585 20L15.2462 11.5208L20 16.2746L19.9981 0.00193429Z" fill="#f9f9fa"/></g><g transform="translate(876.35,25.78) scale(1.2890000000000001) rotate(0)"><path d="M19.9981 0.00193429L3.72652 -7.68637e-07L8.4784 4.75382L0 13.2345L6.76585 20L15.2462 11.5208L20 16.2746L19.9981 0.00193429Z" fill="#f7f8f9"/></g><g transform="translate(902.12,25.78) scale(1.2890000000000001) rotate(0)"><path d="M19.9981 0.00193429L3.72652 -7.68637e-07L8.4784 4.75382L0 13.2345L6.76585 20L15.2462 11.5208L20 16.2746L19.9981 0.00193429Z" fill="#fafafb"/></g><rect x="927.9" y="0" width="51.55" height="51.55" fill="#ffffff"/><g transform="translate(927.9,0) scale(1.2890000000000001) rotate(0)"><path d="M19.9981 0.00193429L3.72652 -7.68637e-07L8.4784 4.75382L0 13.2345L6.76585 20L15.2462 11.5208L20 16.2746L19.9981 0.00193429Z" fill="#fdfdfd"/></g><g transform="translate(953.68,0) scale(1.2890000000000001) rotate(0)"><path d="M19.9981 0.00193429L3.72652 -7.68637e-07L8.4784 4.75382L0 13.2345L6.76585 20L15.2462 11.5208L20 16.2746L19.9981 0.00193429Z" fill="#fdfdfd"/></g><g transform="translate(927.9,25.78) scale(1.2890000000000001) rotate(0)"><path d="M19.9981 0.00193429L3.72652 -7.68637e-07L8.4784 4.75382L0 13.2345L6.76585 20L15.2462 11.5208L20 16.2746L19.9981 0.00193429Z" fill="#f9fafb"/></g><g transform="translate(953.68,25.78) scale(1.2890000000000001) rotate(0)"><path d="M19.9981 0.00193429L3.72652 -7.68637e-07L8.4784 4.75382L0 13.2345L6.76585 20L15.2462 11.5208L20 16.2746L19.9981 0.00193429Z" fill="#fefefe"/></g><g transform="translate(979.45,0) scale(2.5774999999999997) rotate(0)"><path d="M19.9981 0.00193429L3.72652 -7.68637e-07L8.4784 4.75382L0 13.2345L6.76585 20L15.2462 11.5208L20 16.2746L19.9981 0.00193429Z" fill="#fdfdfd"/></g><rect x="103.1" y="51.55" width="51.55" height="51.55" fill="#ffffff"/><g transform="translate(103.1,51.55) scale(1.2890000000000001) rotate(0)"><path d="M19.9981 0.00193429L3.72652 -7.68637e-07L8.4784 4.75382L0 13.2345L6.76585 20L15.2462 11.5208L20 16.2746L19.9981 0.00193429Z" fill="#f6f7f8"/></g><g transform="translate(128.88,51.55) scale(1.2890000000000001) rotate(0)"><path d="M19.9981 0.00193429L3.72652 -7.68637e-07L8.4784 4.75382L0 13.2345L6.76585 20L15.2462 11.5208L20 16.2746L19.9981 0.00193429Z" fill="#f5f6f8"/></g><g transform="translate(103.1,77.32) scale(1.2890000000000001) rotate(0)"><path d="M19.9981 0.00193429L3.72652 -7.68637e-07L8.4784 4.75382L0 13.2345L6.76585 20L15.2462 11.5208L20 16.2746L19.9981 0.00193429Z" fill="#f6f7f8"/></g><g transform="translate(128.88,77.32) scale(1.2890000000000001) rotate(0)"><path d="M19.9981 0.00193429L3.72652 -7.68637e-07L8.4784 4.75382L0 13.2345L6.76585 20L15.2462 11.5208L20 16.2746L19.9981 0.00193429Z" fill="#ffffff"/></g><g transform="translate(154.65,51.55) scale(2.5774999999999997) rotate(0)"><path d="M19.9981 0.00193429L3.72652 -7.68637e-07L8.4784 4.75382L0 13.2345L6.76585 20L15.2462 11.5208L20 16.2746L19.9981 0.00193429Z" fill="#f8f8f9"/></g><rect x="206.2" y="51.55" width="51.55" height="51.55" fill="#ffffff"/><g transform="translate(206.2,51.55) scale(1.2890000000000001) rotate(0)"><path d="M19.9981 0.00193429L3.72652 -7.68637e-07L8.4784 4.75382L0 13.2345L6.76585 20L15.2462 11.5208L20 16.2746L19.9981 0.00193429Z" fill="#f7f7f9"/></g><g transform="translate(231.98,51.55) scale(1.2890000000000001) rotate(0)"><path d="M19.9981 0.00193429L3.72652 -7.68637e-07L8.4784 4.75382L0 13.2345L6.76585 20L15.2462 11.5208L20 16.2746L19.9981 0.00193429Z" fill="#f6f7f9"/></g><g transform="translate(206.2,77.32) scale(1.2890000000000001) rotate(0)"><path d="M19.9981 0.00193429L3.72652 -7.68637e-07L8.4784 4.75382L0 13.2345L6.76585 20L15.2462 11.5208L20 16.2746L19.9981 0.00193429Z" fill="#f8f9fa"/></g><g transform="translate(231.98,77.32) scale(1.2890000000000001) rotate(0)"><path d="M19.9981 0.00193429L3.72652 -7.68637e-07L8.4784 4.75382L0 13.2345L6.76585 20L15.2462 11.5208L20 16.2746L19.9981 0.00193429Z" fill="#f9f9fa"/></g><rect x="257.75" y="51.55" width="51.55" height="51.55" fill="#ffffff"/><g transform="translate(257.75,51.55) scale(1.2890000000000001) rotate(0)"><path d="M19.9981 0.00193429L3.72652 -7.68637e-07L8.4784 4.75382L0 13.2345L6.76585 20L15.2462 11.5208L20 16.2746L19.9981 0.00193429Z" fill="#fdfdfe"/></g><g transform="translate(283.52,51.55) scale(1.2890000000000001) rotate(0)"><path d="M19.9981 0.00193429L3.72652 -7.68637e-07L8.4784 4.75382L0 13.2345L6.76585 20L15.2462 11.5208L20 16.2746L19.9981 0.00193429Z" fill="#fcfcfc"/></g><g transform="translate(257.75,77.32) scale(1.2890000000000001) rotate(0)"><path d="M19.9981 0.00193429L3.72652 -7.68637e-07L8.4784 4.75382L0 13.2345L6.76585 20L15.2462 11.5208L20 16.2746L19.9981 0.00193429Z" fill="#f4f5f7"/></g><g transform="translate(360.85,51.55) scale(2.5774999999999997) rotate(0)"><path d="M19.9981 0.00193429L3.72652 -7.68637e-07L8.4784 4.75382L0 13.2345L6.76585 20L15.2462 11.5208L20 16.2746L19.9981 0.00193429Z" fill="#fafafb"/></g><rect x="412.4" y="51.55" width="51.55" height="51.55" fill="#ffffff"/><g transform="translate(412.4,77.32) scale(1.2890000000000001) rotate(0)"><path d="M19.9981 0.00193429L3.72652 -7.68637e-07L8.4784 4.75382L0 13.2345L6.76585 20L15.2462 11.5208L20 16.2746L19.9981 0.00193429Z" fill="#fafafb"/></g><g transform="translate(438.17,77.32) scale(1.2890000000000001) rotate(0)"><path d="M19.9981 0.00193429L3.72652 -7.68637e-07L8.4784 4.75382L0 13.2345L6.76585 20L15.2462 11.5208L20 16.2746L19.9981 0.00193429Z" fill="#fcfcfd"/></g><rect x="463.95" y="51.55" width="51.55" height="51.55" fill="#ffffff"/><g transform="translate(463.95,51.55) scale(1.2890000000000001) rotate(0)"><path d="M19.9981 0.00193429L3.72652 -7.68637e-07L8.4784 4.75382L0 13.2345L6.76585 20L15.2462 11.5208L20 16.2746L19.9981 0.00193429Z" fill="#fefefe"/></g><g transform="translate(489.73,51.55) scale(1.2890000000000001) rotate(0)"><path d="M19.9981 0.00193429L3.72652 -7.68637e-07L8.4784 4.75382L0 13.2345L6.76585 20L15.2462 11.5208L20 16.2746L19.9981 0.00193429Z" fill="#f7f8f9"/></g><g transform="translate(463.95,77.32) scale(1.2890000000000001) rotate(0)"><path d="M19.9981 0.00193429L3.72652 -7.68637e-07L8.4784 4.75382L0 13.2345L6.76585 20L15.2462 11.5208L20 16.2746L19.9981 0.00193429Z" fill="#fafbfc"/></g><g transform="translate(515.5,51.55) scale(2.5774999999999997) rotate(0)"><path d="M19.9981 0.00193429L3.72652 -7.68637e-07L8.4784 4.75382L0 13.2345L6.76585 20L15.2462 11.5208L20 16.2746L19.9981 0.00193429Z" fill="#f3f4f6"/></g><g transform="translate(567.05,51.55) scale(2.5774999999999997) rotate(0)"><path d="M19.9981 0.00193429L3.72652 -7.68637e-07L8.4784 4.75382L0 13.2345L6.76585 20L15.2462 11.5208L20 16.2746L19.9981 0.00193429Z" fill="#f5f6f8"/></g><g transform="translate(618.6,51.55) scale(2.5774999999999997) rotate(0)"><path d="M19.9981 0.00193429L3.72652 -7.68637e-07L8.4784 4.75382L0 13.2345L6.76585 20L15.2462 11.5208L20 16.2746L19.9981 0.00193429Z" fill="#f3f4f6"/></g><rect x="721.6999999999999" y="51.55" width="51.55" height="51.55" fill="#ffffff"/><g transform="translate(721.7,77.32) scale(1.2890000000000001) rotate(0)"><path d="M19.9981 0.00193429L3.72652 -7.68637e-07L8.4784 4.75382L0 13.2345L6.76585 20L15.2462 11.5208L20 16.2746L19.9981 0.00193429Z" fill="#f6f6f8"/></g><rect x="876.3499999999999" y="51.55" width="51.55" height="51.55" fill="#ffffff"/><g transform="translate(876.35,51.55) scale(1.2890000000000001) rotate(0)"><path d="M19.9981 0.00193429L3.72652 -7.68637e-07L8.4784 4.75382L0 13.2345L6.76585 20L15.2462 11.5208L20 16.2746L19.9981 0.00193429Z" fill="#fdfdfe"/></g><g transform="translate(902.12,51.55) scale(1.2890000000000001) rotate(0)"><path d="M19.9981 0.00193429L3.72652 -7.68637e-07L8.4784 4.75382L0 13.2345L6.76585 20L15.2462 11.5208L20 16.2746L19.9981 0.00193429Z" fill="#f5f6f8"/></g><g transform="translate(876.35,77.32) scale(1.2890000000000001) rotate(0)"><path d="M19.9981 0.00193429L3.72652 -7.68637e-07L8.4784 4.75382L0 13.2345L6.76585 20L15.2462 11.5208L20 16.2746L19.9981 0.00193429Z" fill="#f7f8f9"/></g><g transform="translate(902.12,77.32) scale(1.2890000000000001) rotate(0)"><path d="M19.9981 0.00193429L3.72652 -7.68637e-07L8.4784 4.75382L0 13.2345L6.76585 20L15.2462 11.5208L20 16.2746L19.9981 0.00193429Z" fill="#f7f8f9"/></g><g transform="translate(927.9,51.55) scale(2.5774999999999997) rotate(0)"><path d="M19.9981 0.00193429L3.72652 -7.68637e-07L8.4784 4.75382L0 13.2345L6.76585 20L15.2462 11.5208L20 16.2746L19.9981 0.00193429Z" fill="#f6f7f8"/></g><rect x="0" y="103.1" width="51.55" height="51.55" fill="#ffffff"/><g transform="translate(0,103.1) scale(1.2890000000000001) rotate(0)"><path d="M19.9981 0.00193429L3.72652 -7.68637e-07L8.4784 4.75382L0 13.2345L6.76585 20L15.2462 11.5208L20 16.2746L19.9981 0.00193429Z" fill="#f7f8f9"/></g><g transform="translate(25.78,103.1) scale(1.2890000000000001) rotate(0)"><path d="M19.9981 0.00193429L3.72652 -7.68637e-07L8.4784 4.75382L0 13.2345L6.76585 20L15.2462 11.5208L20 16.2746L19.9981 0.00193429Z" fill="#fbfbfc"/></g><g transform="translate(0,128.88) scale(1.2890000000000001) rotate(0)"><path d="M19.9981 0.00193429L3.72652 -7.68637e-07L8.4784 4.75382L0 13.2345L6.76585 20L15.2462 11.5208L20 16.2746L19.9981 0.00193429Z" fill="#fdfdfd"/></g><g transform="translate(25.78,128.88) scale(1.2890000000000001) rotate(0)"><path d="M19.9981 0.00193429L3.72652 -7.68637e-07L8.4784 4.75382L0 13.2345L6.76585 20L15.2462 11.5208L20 16.2746L19.9981 0.00193429Z" fill="#f6f7f8"/></g><g transform="translate(206.2,103.1) scale(2.5774999999999997) rotate(0)"><path d="M19.9981 0.00193429L3.72652 -7.68637e-07L8.4784 4.75382L0 13.2345L6.76585 20L15.2462 11.5208L20 16.2746L19.9981 0.00193429Z" fill="#f3f4f6"/></g><rect x="257.75" y="103.1" width="51.55" height="51.55" fill="#ffffff"/><g transform="translate(257.75,103.1) scale(1.2890000000000001) rotate(0)"><path d="M19.9981 0.00193429L3.72652 -7.68637e-07L8.4784 4.75382L0 13.2345L6.76585 20L15.2462 11.5208L20 16.2746L19.9981 0.00193429Z" fill="#f4f5f7"/></g><g transform="translate(283.52,128.88) scale(1.2890000000000001) rotate(0)"><path d="M19.9981 0.00193429L3.72652 -7.68637e-07L8.4784 4.75382L0 13.2345L6.76585 20L15.2462 11.5208L20 16.2746L19.9981 0.00193429Z" fill="#fefefe"/></g><rect x="360.84999999999997" y="103.1" width="51.55" height="51.55" fill="#ffffff"/><g transform="translate(360.85,103.1) scale(1.2890000000000001) rotate(0)"><path d="M19.9981 0.00193429L3.72652 -7.68637e-07L8.4784 4.75382L0 13.2345L6.76585 20L15.2462 11.5208L20 16.2746L19.9981 0.00193429Z" fill="#fdfdfd"/></g><rect x="412.4" y="103.1" width="51.55" height="51.55" fill="#ffffff"/><g transform="translate(438.17,128.88) scale(1.2890000000000001) rotate(0)"><path d="M19.9981 0.00193429L3.72652 -7.68637e-07L8.4784 4.75382L0 13.2345L6.76585 20L15.2462 11.5208L20 16.2746L19.9981 0.00193429Z" fill="#fbfcfc"/></g><rect x="463.95" y="103.1" width="51.55" height="51.55" fill="#ffffff"/><g transform="translate(463.95,103.1) scale(1.2890000000000001) rotate(0)"><path d="M19.9981 0.00193429L3.72652 -7.68637e-07L8.4784 4.75382L0 13.2345L6.76585 20L15.2462 11.5208L20 16.2746L19.9981 0.00193429Z" fill="#f4f5f7"/></g><g transform="translate(489.73,103.1) scale(1.2890000000000001) rotate(0)"><path d="M19.9981 0.00193429L3.72652 -7.68637e-07L8.4784 4.75382L0 13.2345L6.76585 20L15.2462 11.5208L20 16.2746L19.9981 0.00193429Z" fill="#f6f7f8"/></g><g transform="translate(463.95,128.88) scale(1.2890000000000001) rotate(0)"><path d="M19.9981 0.00193429L3.72652 -7.68637e-07L8.4784 4.75382L0 13.2345L6.76585 20L15.2462 11.5208L20 16.2746L19.9981 0.00193429Z" fill="#f6f7f9"/></g><g transform="translate(489.73,128.88) scale(1.2890000000000001) rotate(0)"><path d="M19.9981 0.00193429L3.72652 -7.68637e-07L8.4784 4.75382L0 13.2345L6.76585 20L15.2462 11.5208L20 16.2746L19.9981 0.00193429Z" fill="#fbfbfc"/></g><rect x="515.5" y="103.1" width="51.55" height="51.55" fill="#ffffff"/><g transform="translate(515.5,103.1) scale(1.2890000000000001) rotate(0)"><path d="M19.9981 0.00193429L3.72652 -7.68637e-07L8.4784 4.75382L0 13.2345L6.76585 20L15.2462 11.5208L20 16.2746L19.9981 0.00193429Z" fill="#fdfdfe"/></g><g transform="translate(515.5,128.88) scale(1.2890000000000001) rotate(0)"><path d="M19.9981 0.00193429L3.72652 -7.68637e-07L8.4784 4.75382L0 13.2345L6.76585 20L15.2462 11.5208L20 16.2746L19.9981 0.00193429Z" fill="#f4f5f7"/></g><rect x="618.5999999999999" y="103.1" width="51.55" height="51.55" fill="#ffffff"/><g transform="translate(618.6,103.1) scale(1.2890000000000001) rotate(0)"><path d="M19.9981 0.00193429L3.72652 -7.68637e-07L8.4784 4.75382L0 13.2345L6.76585 20L15.2462 11.5208L20 16.2746L19.9981 0.00193429Z" fill="#f7f8f9"/></g><g transform="translate(618.6,128.88) scale(1.2890000000000001) rotate(0)"><path d="M19.9981 0.00193429L3.72652 -7.68637e-07L8.4784 4.75382L0 13.2345L6.76585 20L15.2462 11.5208L20 16.2746L19.9981 0.00193429Z" fill="#fcfcfd"/></g><rect x="721.6999999999999" y="103.1" width="51.55" height="51.55" fill="#ffffff"/><g transform="translate(747.47,103.1) scale(1.2890000000000001) rotate(0)"><path d="M19.9981 0.00193429L3.72652 -7.68637e-07L8.4784 4.75382L0 13.2345L6.76585 20L15.2462 11.5208L20 16.2746L19.9981 0.00193429Z" fill="#f4f5f7"/></g><g transform="translate(747.47,128.88) scale(1.2890000000000001) rotate(0)"><path d="M19.9981 0.00193429L3.72652 -7.68637e-07L8.4784 4.75382L0 13.2345L6.76585 20L15.2462 11.5208L20 16.2746L19.9981 0.00193429Z" fill="#fcfcfd"/></g><rect x="773.25" y="103.1" width="51.55" height="51.55" fill="#ffffff"/><g transform="translate(799.03,103.1) scale(1.2890000000000001) rotate(0)"><path d="M19.9981 0.00193429L3.72652 -7.68637e-07L8.4784 4.75382L0 13.2345L6.76585 20L15.2462 11.5208L20 16.2746L19.9981 0.00193429Z" fill="#fefefe"/></g><g transform="translate(799.03,128.88) scale(1.2890000000000001) rotate(0)"><path d="M19.9981 0.00193429L3.72652 -7.68637e-07L8.4784 4.75382L0 13.2345L6.76585 20L15.2462 11.5208L20 16.2746L19.9981 0.00193429Z" fill="#fbfbfc"/></g><rect x="824.8" y="103.1" width="51.55" height="51.55" fill="#ffffff"/><g transform="translate(824.8,103.1) scale(1.2890000000000001) rotate(0)"><path d="M19.9981 0.00193429L3.72652 -7.68637e-07L8.4784 4.75382L0 13.2345L6.76585 20L15.2462 11.5208L20 16.2746L19.9981 0.00193429Z" fill="#f4f5f7"/></g><g transform="translate(850.58,103.1) scale(1.2890000000000001) rotate(0)"><path d="M19.9981 0.00193429L3.72652 -7.68637e-07L8.4784 4.75382L0 13.2345L6.76585 20L15.2462 11.5208L20 16.2746L19.9981 0.00193429Z" fill="#fbfbfc"/></g><g transform="translate(824.8,128.88) scale(1.2890000000000001) rotate(0)"><path d="M19.9981 0.00193429L3.72652 -7.68637e-07L8.4784 4.75382L0 13.2345L6.76585 20L15.2462 11.5208L20 16.2746L19.9981 0.00193429Z" fill="#fdfdfe"/></g><g transform="translate(876.35,103.1) scale(2.5774999999999997) rotate(0)"><path d="M19.9981 0.00193429L3.72652 -7.68637e-07L8.4784 4.75382L0 13.2345L6.76585 20L15.2462 11.5208L20 16.2746L19.9981 0.00193429Z" fill="#fefefe"/></g><g transform="translate(927.9,103.1) scale(2.5774999999999997) rotate(0)"><path d="M19.9981 0.00193429L3.72652 -7.68637e-07L8.4784 4.75382L0 13.2345L6.76585 20L15.2462 11.5208L20 16.2746L19.9981 0.00193429Z" fill="#f3f4f6"/></g><rect x="979.4499999999999" y="103.1" width="51.55" height="51.55" fill="#ffffff"/><g transform="translate(1005.22,103.1) scale(1.2890000000000001) rotate(0)"><path d="M19.9981 0.00193429L3.72652 -7.68637e-07L8.4784 4.75382L0 13.2345L6.76585 20L15.2462 11.5208L20 16.2746L19.9981 0.00193429Z" fill="#f6f7f8"/></g><g transform="translate(979.45,128.88) scale(1.2890000000000001) rotate(0)"><path d="M19.9981 0.00193429L3.72652 -7.68637e-07L8.4784 4.75382L0 13.2345L6.76585 20L15.2462 11.5208L20 16.2746L19.9981 0.00193429Z" fill="#fefefe"/></g><g transform="translate(1005.22,128.88) scale(1.2890000000000001) rotate(0)"><path d="M19.9981 0.00193429L3.72652 -7.68637e-07L8.4784 4.75382L0 13.2345L6.76585 20L15.2462 11.5208L20 16.2746L19.9981 0.00193429Z" fill="#fefefe"/></g><g transform="translate(0,154.65) scale(2.5774999999999997) rotate(0)"><path d="M19.9981 0.00193429L3.72652 -7.68637e-07L8.4784 4.75382L0 13.2345L6.76585 20L15.2462 11.5208L20 16.2746L19.9981 0.00193429Z" fill="#f9fafb"/></g><rect x="51.55" y="154.64999999999998" width="51.55" height="51.55" fill="#ffffff"/><g transform="translate(51.55,154.65) scale(1.2890000000000001) rotate(0)"><path d="M19.9981 0.00193429L3.72652 -7.68637e-07L8.4784 4.75382L0 13.2345L6.76585 20L15.2462 11.5208L20 16.2746L19.9981 0.00193429Z" fill="#f9f9fa"/></g><g transform="translate(51.55,180.43) scale(1.2890000000000001) rotate(0)"><path d="M19.9981 0.00193429L3.72652 -7.68637e-07L8.4784 4.75382L0 13.2345L6.76585 20L15.2462 11.5208L20 16.2746L19.9981 0.00193429Z" fill="#fcfcfd"/></g><g transform="translate(77.32,180.43) scale(1.2890000000000001) rotate(0)"><path d="M19.9981 0.00193429L3.72652 -7.68637e-07L8.4784 4.75382L0 13.2345L6.76585 20L15.2462 11.5208L20 16.2746L19.9981 0.00193429Z" fill="#ffffff"/></g><rect x="154.64999999999998" y="154.64999999999998" width="51.55" height="51.55" fill="#ffffff"/><g transform="translate(154.65,154.65) scale(1.2890000000000001) rotate(0)"><path d="M19.9981 0.00193429L3.72652 -7.68637e-07L8.4784 4.75382L0 13.2345L6.76585 20L15.2462 11.5208L20 16.2746L19.9981 0.00193429Z" fill="#fefefe"/></g><g transform="translate(180.43,154.65) scale(1.2890000000000001) rotate(0)"><path d="M19.9981 0.00193429L3.72652 -7.68637e-07L8.4784 4.75382L0 13.2345L6.76585 20L15.2462 11.5208L20 16.2746L19.9981 0.00193429Z" fill="#fdfefe"/></g><g transform="translate(180.43,180.43) scale(1.2890000000000001) rotate(0)"><path d="M19.9981 0.00193429L3.72652 -7.68637e-07L8.4784 4.75382L0 13.2345L6.76585 20L15.2462 11.5208L20 16.2746L19.9981 0.00193429Z" fill="#f7f7f9"/></g><rect x="206.2" y="154.64999999999998" width="51.55" height="51.55" fill="#ffffff"/><g transform="translate(231.98,154.65) scale(1.2890000000000001) rotate(0)"><path d="M19.9981 0.00193429L3.72652 -7.68637e-07L8.4784 4.75382L0 13.2345L6.76585 20L15.2462 11.5208L20 16.2746L19.9981 0.00193429Z" fill="#fbfcfc"/></g><g transform="translate(206.2,180.43) scale(1.2890000000000001) rotate(0)"><path d="M19.9981 0.00193429L3.72652 -7.68637e-07L8.4784 4.75382L0 13.2345L6.76585 20L15.2462 11.5208L20 16.2746L19.9981 0.00193429Z" fill="#f5f6f8"/></g><rect x="257.75" y="154.64999999999998" width="51.55" height="51.55" fill="#ffffff"/><g transform="translate(257.75,154.65) scale(1.2890000000000001) rotate(0)"><path d="M19.9981 0.00193429L3.72652 -7.68637e-07L8.4784 4.75382L0 13.2345L6.76585 20L15.2462 11.5208L20 16.2746L19.9981 0.00193429Z" fill="#fafbfc"/></g><g transform="translate(283.52,180.43) scale(1.2890000000000001) rotate(0)"><path d="M19.9981 0.00193429L3.72652 -7.68637e-07L8.4784 4.75382L0 13.2345L6.76585 20L15.2462 11.5208L20 16.2746L19.9981 0.00193429Z" fill="#ffffff"/></g><rect x="309.29999999999995" y="154.64999999999998" width="51.55" height="51.55" fill="#ffffff"/><g transform="translate(335.07,154.65) scale(1.2890000000000001) rotate(0)"><path d="M19.9981 0.00193429L3.72652 -7.68637e-07L8.4784 4.75382L0 13.2345L6.76585 20L15.2462 11.5208L20 16.2746L19.9981 0.00193429Z" fill="#feffff"/></g><g transform="translate(335.07,180.43) scale(1.2890000000000001) rotate(0)"><path d="M19.9981 0.00193429L3.72652 -7.68637e-07L8.4784 4.75382L0 13.2345L6.76585 20L15.2462 11.5208L20 16.2746L19.9981 0.00193429Z" fill="#f5f5f7"/></g><rect x="360.84999999999997" y="154.64999999999998" width="51.55" height="51.55" fill="#ffffff"/><g transform="translate(360.85,154.65) scale(1.2890000000000001) rotate(0)"><path d="M19.9981 0.00193429L3.72652 -7.68637e-07L8.4784 4.75382L0 13.2345L6.76585 20L15.2462 11.5208L20 16.2746L19.9981 0.00193429Z" fill="#fafafb"/></g><g transform="translate(386.62,154.65) scale(1.2890000000000001) rotate(0)"><path d="M19.9981 0.00193429L3.72652 -7.68637e-07L8.4784 4.75382L0 13.2345L6.76585 20L15.2462 11.5208L20 16.2746L19.9981 0.00193429Z" fill="#f8f9fa"/></g><g transform="translate(360.85,180.43) scale(1.2890000000000001) rotate(0)"><path d="M19.9981 0.00193429L3.72652 -7.68637e-07L8.4784 4.75382L0 13.2345L6.76585 20L15.2462 11.5208L20 16.2746L19.9981 0.00193429Z" fill="#fefefe"/></g><g transform="translate(386.62,180.43) scale(1.2890000000000001) rotate(0)"><path d="M19.9981 0.00193429L3.72652 -7.68637e-07L8.4784 4.75382L0 13.2345L6.76585 20L15.2462 11.5208L20 16.2746L19.9981 0.00193429Z" fill="#f6f6f8"/></g><rect x="412.4" y="154.64999999999998" width="51.55" height="51.55" fill="#ffffff"/><g transform="translate(412.4,154.65) scale(1.2890000000000001) rotate(0)"><path d="M19.9981 0.00193429L3.72652 -7.68637e-07L8.4784 4.75382L0 13.2345L6.76585 20L15.2462 11.5208L20 16.2746L19.9981 0.00193429Z" fill="#f3f4f6"/></g><g transform="translate(438.17,154.65) scale(1.2890000000000001) rotate(0)"><path d="M19.9981 0.00193429L3.72652 -7.68637e-07L8.4784 4.75382L0 13.2345L6.76585 20L15.2462 11.5208L20 16.2746L19.9981 0.00193429Z" fill="#f7f7f9"/></g><g transform="translate(412.4,180.43) scale(1.2890000000000001) rotate(0)"><path d="M19.9981 0.00193429L3.72652 -7.68637e-07L8.4784 4.75382L0 13.2345L6.76585 20L15.2462 11.5208L20 16.2746L19.9981 0.00193429Z" fill="#f9f9fa"/></g><rect x="463.95" y="154.64999999999998" width="51.55" height="51.55" fill="#ffffff"/><g transform="translate(463.95,154.65) scale(1.2890000000000001) rotate(0)"><path d="M19.9981 0.00193429L3.72652 -7.68637e-07L8.4784 4.75382L0 13.2345L6.76585 20L15.2462 11.5208L20 16.2746L19.9981 0.00193429Z" fill="#fafbfb"/></g><g transform="translate(489.73,180.43) scale(1.2890000000000001) rotate(0)"><path d="M19.9981 0.00193429L3.72652 -7.68637e-07L8.4784 4.75382L0 13.2345L6.76585 20L15.2462 11.5208L20 16.2746L19.9981 0.00193429Z" fill="#fafafb"/></g><g transform="translate(515.5,154.65) scale(2.5774999999999997) rotate(0)"><path d="M19.9981 0.00193429L3.72652 -7.68637e-07L8.4784 4.75382L0 13.2345L6.76585 20L15.2462 11.5208L20 16.2746L19.9981 0.00193429Z" fill="#f9fafb"/></g><g transform="translate(618.6,154.65) scale(2.5774999999999997) rotate(0)"><path d="M19.9981 0.00193429L3.72652 -7.68637e-07L8.4784 4.75382L0 13.2345L6.76585 20L15.2462 11.5208L20 16.2746L19.9981 0.00193429Z" fill="#f9f9fa"/></g><rect x="670.15" y="154.64999999999998" width="51.55" height="51.55" fill="#ffffff"/><g transform="translate(670.15,154.65) scale(1.2890000000000001) rotate(0)"><path d="M19.9981 0.00193429L3.72652 -7.68637e-07L8.4784 4.75382L0 13.2345L6.76585 20L15.2462 11.5208L20 16.2746L19.9981 0.00193429Z" fill="#f9f9fa"/></g><g transform="translate(695.93,154.65) scale(1.2890000000000001) rotate(0)"><path d="M19.9981 0.00193429L3.72652 -7.68637e-07L8.4784 4.75382L0 13.2345L6.76585 20L15.2462 11.5208L20 16.2746L19.9981 0.00193429Z" fill="#fdfdfe"/></g><g transform="translate(670.15,180.43) scale(1.2890000000000001) rotate(0)"><path d="M19.9981 0.00193429L3.72652 -7.68637e-07L8.4784 4.75382L0 13.2345L6.76585 20L15.2462 11.5208L20 16.2746L19.9981 0.00193429Z" fill="#fcfcfd"/></g><g transform="translate(695.93,180.43) scale(1.2890000000000001) rotate(0)"><path d="M19.9981 0.00193429L3.72652 -7.68637e-07L8.4784 4.75382L0 13.2345L6.76585 20L15.2462 11.5208L20 16.2746L19.9981 0.00193429Z" fill="#f8f9fa"/></g><rect x="721.6999999999999" y="154.64999999999998" width="51.55" height="51.55" fill="#ffffff"/><g transform="translate(747.47,154.65) scale(1.2890000000000001) rotate(0)"><path d="M19.9981 0.00193429L3.72652 -7.68637e-07L8.4784 4.75382L0 13.2345L6.76585 20L15.2462 11.5208L20 16.2746L19.9981 0.00193429Z" fill="#f5f5f7"/></g><g transform="translate(721.7,180.43) scale(1.2890000000000001) rotate(0)"><path d="M19.9981 0.00193429L3.72652 -7.68637e-07L8.4784 4.75382L0 13.2345L6.76585 20L15.2462 11.5208L20 16.2746L19.9981 0.00193429Z" fill="#fafafb"/></g><g transform="translate(747.47,180.43) scale(1.2890000000000001) rotate(0)"><path d="M19.9981 0.00193429L3.72652 -7.68637e-07L8.4784 4.75382L0 13.2345L6.76585 20L15.2462 11.5208L20 16.2746L19.9981 0.00193429Z" fill="#fefefe"/></g><rect x="876.3499999999999" y="154.64999999999998" width="51.55" height="51.55" fill="#ffffff"/><g transform="translate(876.35,180.43) scale(1.2890000000000001) rotate(0)"><path d="M19.9981 0.00193429L3.72652 -7.68637e-07L8.4784 4.75382L0 13.2345L6.76585 20L15.2462 11.5208L20 16.2746L19.9981 0.00193429Z" fill="#f6f7f8"/></g><g transform="translate(902.12,180.43) scale(1.2890000000000001) rotate(0)"><path d="M19.9981 0.00193429L3.72652 -7.68637e-07L8.4784 4.75382L0 13.2345L6.76585 20L15.2462 11.5208L20 16.2746L19.9981 0.00193429Z" fill="#f6f7f8"/></g><rect x="927.9" y="154.64999999999998" width="51.55" height="51.55" fill="#ffffff"/><g transform="translate(953.68,154.65) scale(1.2890000000000001) rotate(0)"><path d="M19.9981 0.00193429L3.72652 -7.68637e-07L8.4784 4.75382L0 13.2345L6.76585 20L15.2462 11.5208L20 16.2746L19.9981 0.00193429Z" fill="#fdfdfe"/></g><g transform="translate(953.68,180.43) scale(1.2890000000000001) rotate(0)"><path d="M19.9981 0.00193429L3.72652 -7.68637e-07L8.4784 4.75382L0 13.2345L6.76585 20L15.2462 11.5208L20 16.2746L19.9981 0.00193429Z" fill="#f7f8f9"/></g><g transform="translate(0,206.2) scale(2.5774999999999997) rotate(0)"><path d="M19.9981 0.00193429L3.72652 -7.68637e-07L8.4784 4.75382L0 13.2345L6.76585 20L15.2462 11.5208L20 16.2746L19.9981 0.00193429Z" fill="#fafbfb"/></g><rect x="103.1" y="206.2" width="51.55" height="51.55" fill="#ffffff"/><g transform="translate(103.1,206.2) scale(1.2890000000000001) rotate(0)"><path d="M19.9981 0.00193429L3.72652 -7.68637e-07L8.4784 4.75382L0 13.2345L6.76585 20L15.2462 11.5208L20 16.2746L19.9981 0.00193429Z" fill="#f8f8fa"/></g><g transform="translate(128.88,206.2) scale(1.2890000000000001) rotate(0)"><path d="M19.9981 0.00193429L3.72652 -7.68637e-07L8.4784 4.75382L0 13.2345L6.76585 20L15.2462 11.5208L20 16.2746L19.9981 0.00193429Z" fill="#fefefe"/></g><g transform="translate(103.1,231.98) scale(1.2890000000000001) rotate(0)"><path d="M19.9981 0.00193429L3.72652 -7.68637e-07L8.4784 4.75382L0 13.2345L6.76585 20L15.2462 11.5208L20 16.2746L19.9981 0.00193429Z" fill="#ffffff"/></g><rect x="154.64999999999998" y="206.2" width="51.55" height="51.55" fill="#ffffff"/><g transform="translate(180.43,206.2) scale(1.2890000000000001) rotate(0)"><path d="M19.9981 0.00193429L3.72652 -7.68637e-07L8.4784 4.75382L0 13.2345L6.76585 20L15.2462 11.5208L20 16.2746L19.9981 0.00193429Z" fill="#f8f9fa"/></g><g transform="translate(154.65,231.98) scale(1.2890000000000001) rotate(0)"><path d="M19.9981 0.00193429L3.72652 -7.68637e-07L8.4784 4.75382L0 13.2345L6.76585 20L15.2462 11.5208L20 16.2746L19.9981 0.00193429Z" fill="#f8f9fa"/></g><g transform="translate(180.43,231.98) scale(1.2890000000000001) rotate(0)"><path d="M19.9981 0.00193429L3.72652 -7.68637e-07L8.4784 4.75382L0 13.2345L6.76585 20L15.2462 11.5208L20 16.2746L19.9981 0.00193429Z" fill="#fefefe"/></g><rect x="257.75" y="206.2" width="51.55" height="51.55" fill="#ffffff"/><g transform="translate(257.75,206.2) scale(1.2890000000000001) rotate(0)"><path d="M19.9981 0.00193429L3.72652 -7.68637e-07L8.4784 4.75382L0 13.2345L6.76585 20L15.2462 11.5208L20 16.2746L19.9981 0.00193429Z" fill="#fcfdfd"/></g><g transform="translate(283.52,206.2) scale(1.2890000000000001) rotate(0)"><path d="M19.9981 0.00193429L3.72652 -7.68637e-07L8.4784 4.75382L0 13.2345L6.76585 20L15.2462 11.5208L20 16.2746L19.9981 0.00193429Z" fill="#f8f9fa"/></g><g transform="translate(257.75,231.98) scale(1.2890000000000001) rotate(0)"><path d="M19.9981 0.00193429L3.72652 -7.68637e-07L8.4784 4.75382L0 13.2345L6.76585 20L15.2462 11.5208L20 16.2746L19.9981 0.00193429Z" fill="#fdfefe"/></g><g transform="translate(283.52,231.98) scale(1.2890000000000001) rotate(0)"><path d="M19.9981 0.00193429L3.72652 -7.68637e-07L8.4784 4.75382L0 13.2345L6.76585 20L15.2462 11.5208L20 16.2746L19.9981 0.00193429Z" fill="#fdfdfe"/></g><rect x="360.84999999999997" y="206.2" width="51.55" height="51.55" fill="#ffffff"/><g transform="translate(360.85,206.2) scale(1.2890000000000001) rotate(0)"><path d="M19.9981 0.00193429L3.72652 -7.68637e-07L8.4784 4.75382L0 13.2345L6.76585 20L15.2462 11.5208L20 16.2746L19.9981 0.00193429Z" fill="#fbfbfc"/></g><g transform="translate(360.85,231.98) scale(1.2890000000000001) rotate(0)"><path d="M19.9981 0.00193429L3.72652 -7.68637e-07L8.4784 4.75382L0 13.2345L6.76585 20L15.2462 11.5208L20 16.2746L19.9981 0.00193429Z" fill="#f5f6f8"/></g><g transform="translate(386.62,231.98) scale(1.2890000000000001) rotate(0)"><path d="M19.9981 0.00193429L3.72652 -7.68637e-07L8.4784 4.75382L0 13.2345L6.76585 20L15.2462 11.5208L20 16.2746L19.9981 0.00193429Z" fill="#f7f7f9"/></g><rect x="412.4" y="206.2" width="51.55" height="51.55" fill="#ffffff"/><g transform="translate(412.4,206.2) scale(1.2890000000000001) rotate(0)"><path d="M19.9981 0.00193429L3.72652 -7.68637e-07L8.4784 4.75382L0 13.2345L6.76585 20L15.2462 11.5208L20 16.2746L19.9981 0.00193429Z" fill="#f3f4f6"/></g><rect x="463.95" y="206.2" width="51.55" height="51.55" fill="#ffffff"/><g transform="translate(489.73,206.2) scale(1.2890000000000001) rotate(0)"><path d="M19.9981 0.00193429L3.72652 -7.68637e-07L8.4784 4.75382L0 13.2345L6.76585 20L15.2462 11.5208L20 16.2746L19.9981 0.00193429Z" fill="#f7f8f9"/></g><g transform="translate(463.95,231.98) scale(1.2890000000000001) rotate(0)"><path d="M19.9981 0.00193429L3.72652 -7.68637e-07L8.4784 4.75382L0 13.2345L6.76585 20L15.2462 11.5208L20 16.2746L19.9981 0.00193429Z" fill="#fbfcfc"/></g><g transform="translate(489.73,231.98) scale(1.2890000000000001) rotate(0)"><path d="M19.9981 0.00193429L3.72652 -7.68637e-07L8.4784 4.75382L0 13.2345L6.76585 20L15.2462 11.5208L20 16.2746L19.9981 0.00193429Z" fill="#f6f6f8"/></g><rect x="515.5" y="206.2" width="51.55" height="51.55" fill="#ffffff"/><g transform="translate(515.5,206.2) scale(1.2890000000000001) rotate(0)"><path d="M19.9981 0.00193429L3.72652 -7.68637e-07L8.4784 4.75382L0 13.2345L6.76585 20L15.2462 11.5208L20 16.2746L19.9981 0.00193429Z" fill="#f5f6f8"/></g><g transform="translate(541.28,206.2) scale(1.2890000000000001) rotate(0)"><path d="M19.9981 0.00193429L3.72652 -7.68637e-07L8.4784 4.75382L0 13.2345L6.76585 20L15.2462 11.5208L20 16.2746L19.9981 0.00193429Z" fill="#f4f5f7"/></g><g transform="translate(515.5,231.98) scale(1.2890000000000001) rotate(0)"><path d="M19.9981 0.00193429L3.72652 -7.68637e-07L8.4784 4.75382L0 13.2345L6.76585 20L15.2462 11.5208L20 16.2746L19.9981 0.00193429Z" fill="#f4f5f7"/></g><g transform="translate(541.28,231.98) scale(1.2890000000000001) rotate(0)"><path d="M19.9981 0.00193429L3.72652 -7.68637e-07L8.4784 4.75382L0 13.2345L6.76585 20L15.2462 11.5208L20 16.2746L19.9981 0.00193429Z" fill="#fbfcfc"/></g><rect x="567.05" y="206.2" width="51.55" height="51.55" fill="#ffffff"/><g transform="translate(567.05,231.98) scale(1.2890000000000001) rotate(0)"><path d="M19.9981 0.00193429L3.72652 -7.68637e-07L8.4784 4.75382L0 13.2345L6.76585 20L15.2462 11.5208L20 16.2746L19.9981 0.00193429Z" fill="#fafafb"/></g><rect x="721.6999999999999" y="206.2" width="51.55" height="51.55" fill="#ffffff"/><g transform="translate(721.7,206.2) scale(1.2890000000000001) rotate(0)"><path d="M19.9981 0.00193429L3.72652 -7.68637e-07L8.4784 4.75382L0 13.2345L6.76585 20L15.2462 11.5208L20 16.2746L19.9981 0.00193429Z" fill="#f6f7f8"/></g><g transform="translate(747.47,206.2) scale(1.2890000000000001) rotate(0)"><path d="M19.9981 0.00193429L3.72652 -7.68637e-07L8.4784 4.75382L0 13.2345L6.76585 20L15.2462 11.5208L20 16.2746L19.9981 0.00193429Z" fill="#fbfcfc"/></g><g transform="translate(721.7,231.98) scale(1.2890000000000001) rotate(0)"><path d="M19.9981 0.00193429L3.72652 -7.68637e-07L8.4784 4.75382L0 13.2345L6.76585 20L15.2462 11.5208L20 16.2746L19.9981 0.00193429Z" fill="#f6f7f8"/></g><g transform="translate(747.47,231.98) scale(1.2890000000000001) rotate(0)"><path d="M19.9981 0.00193429L3.72652 -7.68637e-07L8.4784 4.75382L0 13.2345L6.76585 20L15.2462 11.5208L20 16.2746L19.9981 0.00193429Z" fill="#fafafb"/></g><rect x="824.8" y="206.2" width="51.55" height="51.55" fill="#ffffff"/><g transform="translate(824.8,206.2) scale(1.2890000000000001) rotate(0)"><path d="M19.9981 0.00193429L3.72652 -7.68637e-07L8.4784 4.75382L0 13.2345L6.76585 20L15.2462 11.5208L20 16.2746L19.9981 0.00193429Z" fill="#f7f8f9"/></g><rect x="876.3499999999999" y="206.2" width="51.55" height="51.55" fill="#ffffff"/><g transform="translate(876.35,206.2) scale(1.2890000000000001) rotate(0)"><path d="M19.9981 0.00193429L3.72652 -7.68637e-07L8.4784 4.75382L0 13.2345L6.76585 20L15.2462 11.5208L20 16.2746L19.9981 0.00193429Z" fill="#fafbfc"/></g><g transform="translate(876.35,231.98) scale(1.2890000000000001) rotate(0)"><path d="M19.9981 0.00193429L3.72652 -7.68637e-07L8.4784 4.75382L0 13.2345L6.76585 20L15.2462 11.5208L20 16.2746L19.9981 0.00193429Z" fill="#fdfdfe"/></g><g transform="translate(902.12,231.98) scale(1.2890000000000001) rotate(0)"><path d="M19.9981 0.00193429L3.72652 -7.68637e-07L8.4784 4.75382L0 13.2345L6.76585 20L15.2462 11.5208L20 16.2746L19.9981 0.00193429Z" fill="#fdfdfd"/></g><g transform="translate(927.9,206.2) scale(2.5774999999999997) rotate(0)"><path d="M19.9981 0.00193429L3.72652 -7.68637e-07L8.4784 4.75382L0 13.2345L6.76585 20L15.2462 11.5208L20 16.2746L19.9981 0.00193429Z" fill="#f7f8f9"/></g><g transform="translate(0,257.75) scale(2.5774999999999997) rotate(0)"><path d="M19.9981 0.00193429L3.72652 -7.68637e-07L8.4784 4.75382L0 13.2345L6.76585 20L15.2462 11.5208L20 16.2746L19.9981 0.00193429Z" fill="#f4f5f6"/></g><rect x="103.1" y="257.75" width="51.55" height="51.55" fill="#ffffff"/><g transform="translate(103.1,257.75) scale(1.2890000000000001) rotate(0)"><path d="M19.9981 0.00193429L3.72652 -7.68637e-07L8.4784 4.75382L0 13.2345L6.76585 20L15.2462 11.5208L20 16.2746L19.9981 0.00193429Z" fill="#fdfdfd"/></g><g transform="translate(103.1,283.52) scale(1.2890000000000001) rotate(0)"><path d="M19.9981 0.00193429L3.72652 -7.68637e-07L8.4784 4.75382L0 13.2345L6.76585 20L15.2462 11.5208L20 16.2746L19.9981 0.00193429Z" fill="#fafbfb"/></g><g transform="translate(128.88,283.52) scale(1.2890000000000001) rotate(0)"><path d="M19.9981 0.00193429L3.72652 -7.68637e-07L8.4784 4.75382L0 13.2345L6.76585 20L15.2462 11.5208L20 16.2746L19.9981 0.00193429Z" fill="#fafafb"/></g><rect x="154.64999999999998" y="257.75" width="51.55" height="51.55" fill="#ffffff"/><g transform="translate(154.65,257.75) scale(1.2890000000000001) rotate(0)"><path d="M19.9981 0.00193429L3.72652 -7.68637e-07L8.4784 4.75382L0 13.2345L6.76585 20L15.2462 11.5208L20 16.2746L19.9981 0.00193429Z" fill="#f5f6f7"/></g><g transform="translate(180.43,257.75) scale(1.2890000000000001) rotate(0)"><path d="M19.9981 0.00193429L3.72652 -7.68637e-07L8.4784 4.75382L0 13.2345L6.76585 20L15.2462 11.5208L20 16.2746L19.9981 0.00193429Z" fill="#fdfdfe"/></g><g transform="translate(206.2,257.75) scale(2.5774999999999997) rotate(0)"><path d="M19.9981 0.00193429L3.72652 -7.68637e-07L8.4784 4.75382L0 13.2345L6.76585 20L15.2462 11.5208L20 16.2746L19.9981 0.00193429Z" fill="#f8f9fa"/></g><g transform="translate(360.85,257.75) scale(2.5774999999999997) rotate(0)"><path d="M19.9981 0.00193429L3.72652 -7.68637e-07L8.4784 4.75382L0 13.2345L6.76585 20L15.2462 11.5208L20 16.2746L19.9981 0.00193429Z" fill="#f9f9fa"/></g><rect x="412.4" y="257.75" width="51.55" height="51.55" fill="#ffffff"/><g transform="translate(412.4,257.75) scale(1.2890000000000001) rotate(0)"><path d="M19.9981 0.00193429L3.72652 -7.68637e-07L8.4784 4.75382L0 13.2345L6.76585 20L15.2462 11.5208L20 16.2746L19.9981 0.00193429Z" fill="#fefefe"/></g><g transform="translate(438.17,257.75) scale(1.2890000000000001) rotate(0)"><path d="M19.9981 0.00193429L3.72652 -7.68637e-07L8.4784 4.75382L0 13.2345L6.76585 20L15.2462 11.5208L20 16.2746L19.9981 0.00193429Z" fill="#fdfdfd"/></g><g transform="translate(412.4,283.52) scale(1.2890000000000001) rotate(0)"><path d="M19.9981 0.00193429L3.72652 -7.68637e-07L8.4784 4.75382L0 13.2345L6.76585 20L15.2462 11.5208L20 16.2746L19.9981 0.00193429Z" fill="#fbfcfc"/></g><g transform="translate(438.17,283.52) scale(1.2890000000000001) rotate(0)"><path d="M19.9981 0.00193429L3.72652 -7.68637e-07L8.4784 4.75382L0 13.2345L6.76585 20L15.2462 11.5208L20 16.2746L19.9981 0.00193429Z" fill="#ffffff"/></g><rect x="463.95" y="257.75" width="51.55" height="51.55" fill="#ffffff"/><g transform="translate(489.73,257.75) scale(1.2890000000000001) rotate(0)"><path d="M19.9981 0.00193429L3.72652 -7.68637e-07L8.4784 4.75382L0 13.2345L6.76585 20L15.2462 11.5208L20 16.2746L19.9981 0.00193429Z" fill="#f4f5f7"/></g><g transform="translate(463.95,283.52) scale(1.2890000000000001) rotate(0)"><path d="M19.9981 0.00193429L3.72652 -7.68637e-07L8.4784 4.75382L0 13.2345L6.76585 20L15.2462 11.5208L20 16.2746L19.9981 0.00193429Z" fill="#f8f8f9"/></g><rect x="515.5" y="257.75" width="51.55" height="51.55" fill="#ffffff"/><g transform="translate(515.5,257.75) scale(1.2890000000000001) rotate(0)"><path d="M19.9981 0.00193429L3.72652 -7.68637e-07L8.4784 4.75382L0 13.2345L6.76585 20L15.2462 11.5208L20 16.2746L19.9981 0.00193429Z" fill="#f6f7f8"/></g><g transform="translate(567.05,257.75) scale(2.5774999999999997) rotate(0)"><path d="M19.9981 0.00193429L3.72652 -7.68637e-07L8.4784 4.75382L0 13.2345L6.76585 20L15.2462 11.5208L20 16.2746L19.9981 0.00193429Z" fill="#fafbfc"/></g><g transform="translate(618.6,257.75) scale(2.5774999999999997) rotate(0)"><path d="M19.9981 0.00193429L3.72652 -7.68637e-07L8.4784 4.75382L0 13.2345L6.76585 20L15.2462 11.5208L20 16.2746L19.9981 0.00193429Z" fill="#fafafb"/></g><g transform="translate(670.15,257.75) scale(2.5774999999999997) rotate(0)"><path d="M19.9981 0.00193429L3.72652 -7.68637e-07L8.4784 4.75382L0 13.2345L6.76585 20L15.2462 11.5208L20 16.2746L19.9981 0.00193429Z" fill="#f6f7f8"/></g><rect x="824.8" y="257.75" width="51.55" height="51.55" fill="#ffffff"/><g transform="translate(824.8,257.75) scale(1.2890000000000001) rotate(0)"><path d="M19.9981 0.00193429L3.72652 -7.68637e-07L8.4784 4.75382L0 13.2345L6.76585 20L15.2462 11.5208L20 16.2746L19.9981 0.00193429Z" fill="#f7f7f9"/></g><g transform="translate(850.58,257.75) scale(1.2890000000000001) rotate(0)"><path d="M19.9981 0.00193429L3.72652 -7.68637e-07L8.4784 4.75382L0 13.2345L6.76585 20L15.2462 11.5208L20 16.2746L19.9981 0.00193429Z" fill="#f5f6f8"/></g><g transform="translate(824.8,283.52) scale(1.2890000000000001) rotate(0)"><path d="M19.9981 0.00193429L3.72652 -7.68637e-07L8.4784 4.75382L0 13.2345L6.76585 20L15.2462 11.5208L20 16.2746L19.9981 0.00193429Z" fill="#fdfdfe"/></g><g transform="translate(850.58,283.52) scale(1.2890000000000001) rotate(0)"><path d="M19.9981 0.00193429L3.72652 -7.68637e-07L8.4784 4.75382L0 13.2345L6.76585 20L15.2462 11.5208L20 16.2746L19.9981 0.00193429Z" fill="#fcfcfd"/></g><rect x="927.9" y="257.75" width="51.55" height="51.55" fill="#ffffff"/><g transform="translate(927.9,257.75) scale(1.2890000000000001) rotate(0)"><path d="M19.9981 0.00193429L3.72652 -7.68637e-07L8.4784 4.75382L0 13.2345L6.76585 20L15.2462 11.5208L20 16.2746L19.9981 0.00193429Z" fill="#f4f5f7"/></g><g transform="translate(953.68,257.75) scale(1.2890000000000001) rotate(0)"><path d="M19.9981 0.00193429L3.72652 -7.68637e-07L8.4784 4.75382L0 13.2345L6.76585 20L15.2462 11.5208L20 16.2746L19.9981 0.00193429Z" fill="#f7f8f9"/></g><g transform="translate(927.9,283.52) scale(1.2890000000000001) rotate(0)"><path d="M19.9981 0.00193429L3.72652 -7.68637e-07L8.4784 4.75382L0 13.2345L6.76585 20L15.2462 11.5208L20 16.2746L19.9981 0.00193429Z" fill="#f6f7f8"/></g><g transform="translate(953.68,283.52) scale(1.2890000000000001) rotate(0)"><path d="M19.9981 0.00193429L3.72652 -7.68637e-07L8.4784 4.75382L0 13.2345L6.76585 20L15.2462 11.5208L20 16.2746L19.9981 0.00193429Z" fill="#fcfcfd"/></g><rect x="979.4499999999999" y="257.75" width="51.55" height="51.55" fill="#ffffff"/><g transform="translate(1005.22,257.75) scale(1.2890000000000001) rotate(0)"><path d="M19.9981 0.00193429L3.72652 -7.68637e-07L8.4784 4.75382L0 13.2345L6.76585 20L15.2462 11.5208L20 16.2746L19.9981 0.00193429Z" fill="#fcfdfd"/></g><g transform="translate(979.45,283.52) scale(1.2890000000000001) rotate(0)"><path d="M19.9981 0.00193429L3.72652 -7.68637e-07L8.4784 4.75382L0 13.2345L6.76585 20L15.2462 11.5208L20 16.2746L19.9981 0.00193429Z" fill="#fefefe"/></g><g transform="translate(1005.22,283.52) scale(1.2890000000000001) rotate(0)"><path d="M19.9981 0.00193429L3.72652 -7.68637e-07L8.4784 4.75382L0 13.2345L6.76585 20L15.2462 11.5208L20 16.2746L19.9981 0.00193429Z" fill="#f9fafb"/></g></g></svg>