<?xml version="1.0" standalone="no"?><svg xmlns:xlink="http://www.w3.org/1999/xlink" xmlns="http://www.w3.org/2000/svg" viewBox="0 0 1000 299.9970902036858" preserveAspectRatio="xMaxYMax slice"><g transform="scale(0.9699321047526673)"><rect x="0" y="0" width="1031" height="309.29999999999995" fill="#ffffff"/><rect x="0" y="0" width="51.55" height="51.55" fill="#ffffff"/><path d="M 0 25.78 A 25.78 25.78 0 0 1  25.78 0 L 0 25.78 A 25.78 25.78 0 0 0 25.78 0" fill="#f6f6f8"/><path d="M 25.78 0 A 25.78 25.78 0 0 1  51.56 25.78 L 25.78 0 A 25.78 25.78 0 0 0 51.56 25.78" fill="#fdfdfd"/><rect x="103.1" y="0" width="51.55" height="51.55" fill="#ffffff"/><path d="M 103.1 25.78 A 25.78 25.78 0 0 1  128.88 0 L 103.1 25.78 A 25.78 25.78 0 0 0 128.88 0" fill="#f6f7f8"/><path d="M 128.88 25.78 A 25.78 25.78 0 0 1  154.66 0 L 128.88 25.78 A 25.78 25.78 0 0 0 154.66 0" fill="#fdfdfd"/><path d="M 103.1 25.78 A 25.78 25.78 0 0 1  128.88 51.56 L 103.1 25.78 A 25.78 25.78 0 0 0 128.88 51.56" fill="#f6f6f8"/><path d="M 128.88 51.56 A 25.78 25.78 0 0 1  154.66 25.78 L 128.88 51.56 A 25.78 25.78 0 0 0 154.66 25.78" fill="#f5f6f8"/><rect x="360.84999999999997" y="0" width="51.55" height="51.55" fill="#ffffff"/><path d="M 360.85 0 A 25.78 25.78 0 0 1  386.63 25.78 L 360.85 0 A 25.78 25.78 0 0 0 386.63 25.78" fill="#fefefe"/><path d="M 386.62 25.78 A 25.78 25.78 0 0 1  412.4 0 L 386.62 25.78 A 25.78 25.78 0 0 0 412.4 0" fill="#fafafb"/><path d="M 360.85 51.56 A 25.78 25.78 0 0 1  386.63 25.78 L 360.85 51.56 A 25.78 25.78 0 0 0 386.63 25.78" fill="#ffffff"/><rect x="412.4" y="0" width="51.55" height="51.55" fill="#ffffff"/><path d="M 438.17 0 A 25.78 25.78 0 0 1  463.95000000000005 25.78 L 438.17 0 A 25.78 25.78 0 0 0 463.95000000000005 25.78" fill="#f4f5f7"/><path d="M 412.4 25.78 A 25.78 25.78 0 0 1  438.17999999999995 51.56 L 412.4 25.78 A 25.78 25.78 0 0 0 438.17999999999995 51.56" fill="#f8f8fa"/><path d="M 438.17 25.78 A 25.78 25.78 0 0 1  463.95000000000005 51.56 L 438.17 25.78 A 25.78 25.78 0 0 0 463.95000000000005 51.56" fill="#f8f8f9"/><path d="M 463.95 51.55 A 51.55 51.55 0 0 1  515.5 0 L 463.95 51.55 A 51.55 51.55 0 0 0 515.5 0" fill="#f3f4f6"/><path d="M 515.5 0 A 51.55 51.55 0 0 1  567.05 51.55 L 515.5 0 A 51.55 51.55 0 0 0 567.05 51.55" fill="#fafbfc"/><rect x="618.5999999999999" y="0" width="51.55" height="51.55" fill="#ffffff"/><path d="M 644.37 0 A 25.78 25.78 0 0 1  670.15 25.78 L 644.37 0 A 25.78 25.78 0 0 0 670.15 25.78" fill="#fbfbfc"/><path d="M 618.6 51.56 A 25.78 25.78 0 0 1  644.38 25.78 L 618.6 51.56 A 25.78 25.78 0 0 0 644.38 25.78" fill="#fcfcfd"/><path d="M 670.15 0 A 51.55 51.55 0 0 1  721.6999999999999 51.55 L 670.15 0 A 51.55 51.55 0 0 0 721.6999999999999 51.55" fill="#f5f6f8"/><rect x="773.25" y="0" width="51.55" height="51.55" fill="#ffffff"/><path d="M 773.25 0 A 25.78 25.78 0 0 1  799.03 25.78 L 773.25 0 A 25.78 25.78 0 0 0 799.03 25.78" fill="#f6f7f9"/><path d="M 799.03 0 A 25.78 25.78 0 0 1  824.81 25.78 L 799.03 0 A 25.78 25.78 0 0 0 824.81 25.78" fill="#fbfbfc"/><path d="M 773.25 25.78 A 25.78 25.78 0 0 1  799.03 51.56 L 773.25 25.78 A 25.78 25.78 0 0 0 799.03 51.56" fill="#fcfcfd"/><path d="M 799.03 25.78 A 25.78 25.78 0 0 1  824.81 51.56 L 799.03 25.78 A 25.78 25.78 0 0 0 824.81 51.56" fill="#fbfbfc"/><rect x="927.9" y="0" width="51.55" height="51.55" fill="#ffffff"/><path d="M 953.68 0 A 25.78 25.78 0 0 1  979.4599999999999 25.78 L 953.68 0 A 25.78 25.78 0 0 0 979.4599999999999 25.78" fill="#fafafb"/><path d="M 927.9 51.56 A 25.78 25.78 0 0 1  953.68 25.78 L 927.9 51.56 A 25.78 25.78 0 0 0 953.68 25.78" fill="#f5f6f8"/><path d="M 953.68 51.56 A 25.78 25.78 0 0 1  979.4599999999999 25.78 L 953.68 51.56 A 25.78 25.78 0 0 0 979.4599999999999 25.78" fill="#fdfefe"/><rect x="979.4499999999999" y="0" width="51.55" height="51.55" fill="#ffffff"/><path d="M 979.45 25.78 A 25.78 25.78 0 0 1  1005.23 51.56 L 979.45 25.78 A 25.78 25.78 0 0 0 1005.23 51.56" fill="#f4f5f7"/><path d="M 1005.22 25.78 A 25.78 25.78 0 0 1  1031 51.56 L 1005.22 25.78 A 25.78 25.78 0 0 0 1031 51.56" fill="#f5f6f8"/><path d="M 0 103.1 A 51.55 51.55 0 0 1  51.55 51.55 L 0 103.1 A 51.55 51.55 0 0 0 51.55 51.55" fill="#f9fafb"/><rect x="51.55" y="51.55" width="51.55" height="51.55" fill="#ffffff"/><path d="M 51.55 51.55 A 25.78 25.78 0 0 1  77.33 77.33 L 51.55 51.55 A 25.78 25.78 0 0 0 77.33 77.33" fill="#fcfcfd"/><path d="M 77.32 77.33 A 25.78 25.78 0 0 1  103.1 51.55 L 77.32 77.33 A 25.78 25.78 0 0 0 103.1 51.55" fill="#fdfdfe"/><path d="M 51.55 103.1 A 25.78 25.78 0 0 1  77.33 77.32 L 51.55 103.1 A 25.78 25.78 0 0 0 77.33 77.32" fill="#fefefe"/><path d="M 77.32 77.32 A 25.78 25.78 0 0 1  103.1 103.1 L 77.32 77.32 A 25.78 25.78 0 0 0 103.1 103.1" fill="#f5f6f7"/><rect x="103.1" y="51.55" width="51.55" height="51.55" fill="#ffffff"/><path d="M 103.1 77.33 A 25.78 25.78 0 0 1  128.88 51.55 L 103.1 77.33 A 25.78 25.78 0 0 0 128.88 51.55" fill="#fbfbfc"/><path d="M 128.88 51.55 A 25.78 25.78 0 0 1  154.66 77.33 L 128.88 51.55 A 25.78 25.78 0 0 0 154.66 77.33" fill="#f8f9fa"/><path d="M 103.1 77.32 A 25.78 25.78 0 0 1  128.88 103.1 L 103.1 77.32 A 25.78 25.78 0 0 0 128.88 103.1" fill="#fdfdfd"/><path d="M 128.88 77.32 A 25.78 25.78 0 0 1  154.66 103.1 L 128.88 77.32 A 25.78 25.78 0 0 0 154.66 103.1" fill="#f9fafb"/><rect x="154.64999999999998" y="51.55" width="51.55" height="51.55" fill="#ffffff"/><path d="M 154.65 77.33 A 25.78 25.78 0 0 1  180.43 51.55 L 154.65 77.33 A 25.78 25.78 0 0 0 180.43 51.55" fill="#f5f6f7"/><path d="M 180.43 77.33 A 25.78 25.78 0 0 1  206.21 51.55 L 180.43 77.33 A 25.78 25.78 0 0 0 206.21 51.55" fill="#f8f9fa"/><path d="M 154.65 103.1 A 25.78 25.78 0 0 1  180.43 77.32 L 154.65 103.1 A 25.78 25.78 0 0 0 180.43 77.32" fill="#f9f9fa"/><path d="M 180.43 77.32 A 25.78 25.78 0 0 1  206.21 103.1 L 180.43 77.32 A 25.78 25.78 0 0 0 206.21 103.1" fill="#fdfdfe"/><rect x="206.2" y="51.55" width="51.55" height="51.55" fill="#ffffff"/><path d="M 206.2 77.33 A 25.78 25.78 0 0 1  231.98 51.55 L 206.2 77.33 A 25.78 25.78 0 0 0 231.98 51.55" fill="#f7f7f9"/><path d="M 231.98 51.55 A 25.78 25.78 0 0 1  257.76 77.33 L 231.98 51.55 A 25.78 25.78 0 0 0 257.76 77.33" fill="#fdfdfd"/><path d="M 206.2 103.1 A 25.78 25.78 0 0 1  231.98 77.32 L 206.2 103.1 A 25.78 25.78 0 0 0 231.98 77.32" fill="#fbfbfc"/><rect x="412.4" y="51.55" width="51.55" height="51.55" fill="#ffffff"/><path d="M 412.4 51.55 A 25.78 25.78 0 0 1  438.17999999999995 77.33 L 412.4 51.55 A 25.78 25.78 0 0 0 438.17999999999995 77.33" fill="#fcfcfd"/><path d="M 438.17 51.55 A 25.78 25.78 0 0 1  463.95000000000005 77.33 L 438.17 51.55 A 25.78 25.78 0 0 0 463.95000000000005 77.33" fill="#f7f8f9"/><path d="M 438.17 103.1 A 25.78 25.78 0 0 1  463.95000000000005 77.32 L 438.17 103.1 A 25.78 25.78 0 0 0 463.95000000000005 77.32" fill="#f4f5f7"/><rect x="515.5" y="51.55" width="51.55" height="51.55" fill="#ffffff"/><path d="M 515.5 51.55 A 25.78 25.78 0 0 1  541.28 77.33 L 515.5 51.55 A 25.78 25.78 0 0 0 541.28 77.33" fill="#f6f7f8"/><path d="M 541.28 77.33 A 25.78 25.78 0 0 1  567.06 51.55 L 541.28 77.33 A 25.78 25.78 0 0 0 567.06 51.55" fill="#f9fafb"/><path d="M 515.5 77.32 A 25.78 25.78 0 0 1  541.28 103.1 L 515.5 77.32 A 25.78 25.78 0 0 0 541.28 103.1" fill="#f5f6f8"/><path d="M 541.28 103.1 A 25.78 25.78 0 0 1  567.06 77.32 L 541.28 103.1 A 25.78 25.78 0 0 0 567.06 77.32" fill="#fafafb"/><path d="M 618.6 51.55 A 51.55 51.55 0 0 1  670.15 103.1 L 618.6 51.55 A 51.55 51.55 0 0 0 670.15 103.1" fill="#f7f8f9"/><rect x="773.25" y="51.55" width="51.55" height="51.55" fill="#ffffff"/><path d="M 773.25 77.33 A 25.78 25.78 0 0 1  799.03 51.55 L 773.25 77.33 A 25.78 25.78 0 0 0 799.03 51.55" fill="#f9f9fa"/><path d="M 799.03 51.55 A 25.78 25.78 0 0 1  824.81 77.33 L 799.03 51.55 A 25.78 25.78 0 0 0 824.81 77.33" fill="#fafafb"/><path d="M 773.25 103.1 A 25.78 25.78 0 0 1  799.03 77.32 L 773.25 103.1 A 25.78 25.78 0 0 0 799.03 77.32" fill="#fdfdfd"/><path d="M 824.8 103.1 A 51.55 51.55 0 0 1  876.3499999999999 51.55 L 824.8 103.1 A 51.55 51.55 0 0 0 876.3499999999999 51.55" fill="#fefefe"/><rect x="876.3499999999999" y="51.55" width="51.55" height="51.55" fill="#ffffff"/><path d="M 876.35 77.33 A 25.78 25.78 0 0 1  902.13 51.55 L 876.35 77.33 A 25.78 25.78 0 0 0 902.13 51.55" fill="#fcfcfc"/><path d="M 902.12 51.55 A 25.78 25.78 0 0 1  927.9 77.33 L 902.12 51.55 A 25.78 25.78 0 0 0 927.9 77.33" fill="#f6f7f8"/><path d="M 876.35 103.1 A 25.78 25.78 0 0 1  902.13 77.32 L 876.35 103.1 A 25.78 25.78 0 0 0 902.13 77.32" fill="#f3f4f6"/><path d="M 902.12 77.32 A 25.78 25.78 0 0 1  927.9 103.1 L 902.12 77.32 A 25.78 25.78 0 0 0 927.9 103.1" fill="#f9f9fa"/><rect x="927.9" y="51.55" width="51.55" height="51.55" fill="#ffffff"/><path d="M 927.9 77.33 A 25.78 25.78 0 0 1  953.68 51.55 L 927.9 77.33 A 25.78 25.78 0 0 0 953.68 51.55" fill="#fbfbfc"/><path d="M 953.68 51.55 A 25.78 25.78 0 0 1  979.4599999999999 77.33 L 953.68 51.55 A 25.78 25.78 0 0 0 979.4599999999999 77.33" fill="#fefefe"/><path d="M 927.9 77.32 A 25.78 25.78 0 0 1  953.68 103.1 L 927.9 77.32 A 25.78 25.78 0 0 0 953.68 103.1" fill="#f8f8fa"/><path d="M 953.68 77.32 A 25.78 25.78 0 0 1  979.4599999999999 103.1 L 953.68 77.32 A 25.78 25.78 0 0 0 979.4599999999999 103.1" fill="#fafafb"/><rect x="0" y="103.1" width="51.55" height="51.55" fill="#ffffff"/><path d="M 0 128.88 A 25.78 25.78 0 0 1  25.78 103.1 L 0 128.88 A 25.78 25.78 0 0 0 25.78 103.1" fill="#f6f7f8"/><path d="M 25.78 103.1 A 25.78 25.78 0 0 1  51.56 128.88 L 25.78 103.1 A 25.78 25.78 0 0 0 51.56 128.88" fill="#f6f6f8"/><path d="M 25.78 128.88 A 25.78 25.78 0 0 1  51.56 154.66 L 25.78 128.88 A 25.78 25.78 0 0 0 51.56 154.66" fill="#f8f8fa"/><rect x="51.55" y="103.1" width="51.55" height="51.55" fill="#ffffff"/><path d="M 51.55 128.88 A 25.78 25.78 0 0 1  77.33 103.1 L 51.55 128.88 A 25.78 25.78 0 0 0 77.33 103.1" fill="#fefefe"/><path d="M 77.32 103.1 A 25.78 25.78 0 0 1  103.1 128.88 L 77.32 103.1 A 25.78 25.78 0 0 0 103.1 128.88" fill="#f4f4f6"/><path d="M 51.55 154.66 A 25.78 25.78 0 0 1  77.33 128.88 L 51.55 154.66 A 25.78 25.78 0 0 0 77.33 128.88" fill="#fcfcfc"/><path d="M 77.32 154.66 A 25.78 25.78 0 0 1  103.1 128.88 L 77.32 154.66 A 25.78 25.78 0 0 0 103.1 128.88" fill="#fdfdfd"/><rect x="257.75" y="103.1" width="51.55" height="51.55" fill="#ffffff"/><path d="M 283.52 103.1 A 25.78 25.78 0 0 1  309.29999999999995 128.88 L 283.52 103.1 A 25.78 25.78 0 0 0 309.29999999999995 128.88" fill="#f4f5f7"/><path d="M 257.75 128.88 A 25.78 25.78 0 0 1  283.53 154.66 L 257.75 128.88 A 25.78 25.78 0 0 0 283.53 154.66" fill="#f9f9fa"/><rect x="463.95" y="103.1" width="51.55" height="51.55" fill="#ffffff"/><path d="M 489.73 103.1 A 25.78 25.78 0 0 1  515.51 128.88 L 489.73 103.1 A 25.78 25.78 0 0 0 515.51 128.88" fill="#f4f5f6"/><path d="M 463.95 128.88 A 25.78 25.78 0 0 1  489.73 154.66 L 463.95 128.88 A 25.78 25.78 0 0 0 489.73 154.66" fill="#fbfcfc"/><rect x="515.5" y="103.1" width="51.55" height="51.55" fill="#ffffff"/><path d="M 515.5 128.88 A 25.78 25.78 0 0 1  541.28 103.1 L 515.5 128.88 A 25.78 25.78 0 0 0 541.28 103.1" fill="#f6f7f9"/><rect x="567.05" y="103.1" width="51.55" height="51.55" fill="#ffffff"/><path d="M 567.05 103.1 A 25.78 25.78 0 0 1  592.8299999999999 128.88 L 567.05 103.1 A 25.78 25.78 0 0 0 592.8299999999999 128.88" fill="#f9fafb"/><path d="M 567.05 128.88 A 25.78 25.78 0 0 1  592.8299999999999 154.66 L 567.05 128.88 A 25.78 25.78 0 0 0 592.8299999999999 154.66" fill="#f8f9fa"/><path d="M 592.82 128.88 A 25.78 25.78 0 0 1  618.6 154.66 L 592.82 128.88 A 25.78 25.78 0 0 0 618.6 154.66" fill="#fcfdfd"/><path d="M 618.6 103.1 A 51.55 51.55 0 0 1  670.15 154.64999999999998 L 618.6 103.1 A 51.55 51.55 0 0 0 670.15 154.64999999999998" fill="#fbfbfc"/><rect x="670.15" y="103.1" width="51.55" height="51.55" fill="#ffffff"/><path d="M 670.15 128.88 A 25.78 25.78 0 0 1  695.93 154.66 L 670.15 128.88 A 25.78 25.78 0 0 0 695.93 154.66" fill="#fdfefe"/><path d="M 695.93 154.66 A 25.78 25.78 0 0 1  721.7099999999999 128.88 L 695.93 154.66 A 25.78 25.78 0 0 0 721.7099999999999 128.88" fill="#fdfdfe"/><rect x="721.6999999999999" y="103.1" width="51.55" height="51.55" fill="#ffffff"/><path d="M 747.47 103.1 A 25.78 25.78 0 0 1  773.25 128.88 L 747.47 103.1 A 25.78 25.78 0 0 0 773.25 128.88" fill="#f7f8f9"/><rect x="824.8" y="103.1" width="51.55" height="51.55" fill="#ffffff"/><path d="M 850.58 103.1 A 25.78 25.78 0 0 1  876.36 128.88 L 850.58 103.1 A 25.78 25.78 0 0 0 876.36 128.88" fill="#fbfbfc"/><path d="M 824.8 154.66 A 25.78 25.78 0 0 1  850.5799999999999 128.88 L 824.8 154.66 A 25.78 25.78 0 0 0 850.5799999999999 128.88" fill="#fefefe"/><path d="M 850.58 128.88 A 25.78 25.78 0 0 1  876.36 154.66 L 850.58 128.88 A 25.78 25.78 0 0 0 876.36 154.66" fill="#f9fafb"/><rect x="876.3499999999999" y="103.1" width="51.55" height="51.55" fill="#ffffff"/><path d="M 876.35 103.1 A 25.78 25.78 0 0 1  902.13 128.88 L 876.35 103.1 A 25.78 25.78 0 0 0 902.13 128.88" fill="#fdfdfe"/><path d="M 902.12 103.1 A 25.78 25.78 0 0 1  927.9 128.88 L 902.12 103.1 A 25.78 25.78 0 0 0 927.9 128.88" fill="#fafbfb"/><path d="M 902.12 154.66 A 25.78 25.78 0 0 1  927.9 128.88 L 902.12 154.66 A 25.78 25.78 0 0 0 927.9 128.88" fill="#ffffff"/><rect x="927.9" y="103.1" width="51.55" height="51.55" fill="#ffffff"/><path d="M 927.9 128.88 A 25.78 25.78 0 0 1  953.68 103.1 L 927.9 128.88 A 25.78 25.78 0 0 0 953.68 103.1" fill="#fbfbfc"/><rect x="51.55" y="154.64999999999998" width="51.55" height="51.55" fill="#ffffff"/><path d="M 51.55 154.65 A 25.78 25.78 0 0 1  77.33 180.43 L 51.55 154.65 A 25.78 25.78 0 0 0 77.33 180.43" fill="#f5f6f8"/><path d="M 77.32 206.21 A 25.78 25.78 0 0 1  103.1 180.43 L 77.32 206.21 A 25.78 25.78 0 0 0 103.1 180.43" fill="#f9f9fa"/><rect x="154.64999999999998" y="154.64999999999998" width="51.55" height="51.55" fill="#ffffff"/><path d="M 154.65 180.43 A 25.78 25.78 0 0 1  180.43 154.65 L 154.65 180.43 A 25.78 25.78 0 0 0 180.43 154.65" fill="#fcfcfd"/><path d="M 180.43 180.43 A 25.78 25.78 0 0 1  206.21 154.65 L 180.43 180.43 A 25.78 25.78 0 0 0 206.21 154.65" fill="#f5f6f7"/><rect x="206.2" y="154.64999999999998" width="51.55" height="51.55" fill="#ffffff"/><path d="M 206.2 180.43 A 25.78 25.78 0 0 1  231.98 154.65 L 206.2 180.43 A 25.78 25.78 0 0 0 231.98 154.65" fill="#f3f4f6"/><path d="M 206.2 206.21 A 25.78 25.78 0 0 1  231.98 180.43 L 206.2 206.21 A 25.78 25.78 0 0 0 231.98 180.43" fill="#fdfdfe"/><rect x="257.75" y="154.64999999999998" width="51.55" height="51.55" fill="#ffffff"/><path d="M 283.52 154.65 A 25.78 25.78 0 0 1  309.29999999999995 180.43 L 283.52 154.65 A 25.78 25.78 0 0 0 309.29999999999995 180.43" fill="#fefefe"/><path d="M 257.75 180.43 A 25.78 25.78 0 0 1  283.53 206.21 L 257.75 180.43 A 25.78 25.78 0 0 0 283.53 206.21" fill="#f7f7f9"/><rect x="309.29999999999995" y="154.64999999999998" width="51.55" height="51.55" fill="#ffffff"/><path d="M 335.07 180.43 A 25.78 25.78 0 0 1  360.85 154.65 L 335.07 180.43 A 25.78 25.78 0 0 0 360.85 154.65" fill="#fefeff"/><path d="M 309.3 206.21 A 25.78 25.78 0 0 1  335.08000000000004 180.43 L 309.3 206.21 A 25.78 25.78 0 0 0 335.08000000000004 180.43" fill="#f8f8fa"/><path d="M 335.07 206.21 A 25.78 25.78 0 0 1  360.85 180.43 L 335.07 206.21 A 25.78 25.78 0 0 0 360.85 180.43" fill="#fafafb"/><rect x="463.95" y="154.64999999999998" width="51.55" height="51.55" fill="#ffffff"/><path d="M 489.73 180.43 A 25.78 25.78 0 0 1  515.51 154.65 L 489.73 180.43 A 25.78 25.78 0 0 0 515.51 154.65" fill="#fefefe"/><path d="M 463.95 206.21 A 25.78 25.78 0 0 1  489.73 180.43 L 463.95 206.21 A 25.78 25.78 0 0 0 489.73 180.43" fill="#f4f5f7"/><path d="M 489.73 180.43 A 25.78 25.78 0 0 1  515.51 206.21 L 489.73 180.43 A 25.78 25.78 0 0 0 515.51 206.21" fill="#f7f7f9"/><path d="M 515.5 154.65 A 51.55 51.55 0 0 1  567.05 206.2 L 515.5 154.65 A 51.55 51.55 0 0 0 567.05 206.2" fill="#f5f6f7"/><rect x="670.15" y="154.64999999999998" width="51.55" height="51.55" fill="#ffffff"/><path d="M 670.15 180.43 A 25.78 25.78 0 0 1  695.93 154.65 L 670.15 180.43 A 25.78 25.78 0 0 0 695.93 154.65" fill="#f4f5f7"/><path d="M 695.93 180.43 A 25.78 25.78 0 0 1  721.7099999999999 154.65 L 695.93 180.43 A 25.78 25.78 0 0 0 721.7099999999999 154.65" fill="#f5f6f7"/><rect x="721.6999999999999" y="154.64999999999998" width="51.55" height="51.55" fill="#ffffff"/><path d="M 747.47 154.65 A 25.78 25.78 0 0 1  773.25 180.43 L 747.47 154.65 A 25.78 25.78 0 0 0 773.25 180.43" fill="#f6f7f8"/><path d="M 747.47 180.43 A 25.78 25.78 0 0 1  773.25 206.21 L 747.47 180.43 A 25.78 25.78 0 0 0 773.25 206.21" fill="#f8f9fa"/><rect x="773.25" y="154.64999999999998" width="51.55" height="51.55" fill="#ffffff"/><path d="M 799.03 154.65 A 25.78 25.78 0 0 1  824.81 180.43 L 799.03 154.65 A 25.78 25.78 0 0 0 824.81 180.43" fill="#f3f4f6"/><path d="M 799.03 206.21 A 25.78 25.78 0 0 1  824.81 180.43 L 799.03 206.21 A 25.78 25.78 0 0 0 824.81 180.43" fill="#ffffff"/><rect x="876.3499999999999" y="154.64999999999998" width="51.55" height="51.55" fill="#ffffff"/><path d="M 902.12 154.65 A 25.78 25.78 0 0 1  927.9 180.43 L 902.12 154.65 A 25.78 25.78 0 0 0 927.9 180.43" fill="#f8f9fa"/><path d="M 876.35 180.43 A 25.78 25.78 0 0 1  902.13 206.21 L 876.35 180.43 A 25.78 25.78 0 0 0 902.13 206.21" fill="#f6f7f8"/><path d="M 902.12 180.43 A 25.78 25.78 0 0 1  927.9 206.21 L 902.12 180.43 A 25.78 25.78 0 0 0 927.9 206.21" fill="#fefefe"/><rect x="927.9" y="154.64999999999998" width="51.55" height="51.55" fill="#ffffff"/><path d="M 953.68 180.43 A 25.78 25.78 0 0 1  979.4599999999999 154.65 L 953.68 180.43 A 25.78 25.78 0 0 0 979.4599999999999 154.65" fill="#fefefe"/><path d="M 927.9 206.21 A 25.78 25.78 0 0 1  953.68 180.43 L 927.9 206.21 A 25.78 25.78 0 0 0 953.68 180.43" fill="#f9f9fa"/><rect x="979.4499999999999" y="154.64999999999998" width="51.55" height="51.55" fill="#ffffff"/><path d="M 1005.22 154.65 A 25.78 25.78 0 0 1  1031 180.43 L 1005.22 154.65 A 25.78 25.78 0 0 0 1031 180.43" fill="#fefefe"/><path d="M 1005.22 180.43 A 25.78 25.78 0 0 1  1031 206.21 L 1005.22 180.43 A 25.78 25.78 0 0 0 1031 206.21" fill="#fcfcfd"/><path d="M 0 257.75 A 51.55 51.55 0 0 1  51.55 206.2 L 0 257.75 A 51.55 51.55 0 0 0 51.55 206.2" fill="#f9fafb"/><path d="M 103.1 257.75 A 51.55 51.55 0 0 1  154.64999999999998 206.2 L 103.1 257.75 A 51.55 51.55 0 0 0 154.64999999999998 206.2" fill="#fbfbfc"/><rect x="206.2" y="206.2" width="51.55" height="51.55" fill="#ffffff"/><path d="M 206.2 231.98 A 25.78 25.78 0 0 1  231.98 206.2 L 206.2 231.98 A 25.78 25.78 0 0 0 231.98 206.2" fill="#ffffff"/><path d="M 206.2 257.76 A 25.78 25.78 0 0 1  231.98 231.98 L 206.2 257.76 A 25.78 25.78 0 0 0 231.98 231.98" fill="#f4f5f7"/><path d="M 360.85 257.75 A 51.55 51.55 0 0 1  412.40000000000003 206.2 L 360.85 257.75 A 51.55 51.55 0 0 0 412.40000000000003 206.2" fill="#f6f7f9"/><rect x="412.4" y="206.2" width="51.55" height="51.55" fill="#ffffff"/><path d="M 438.17 257.76 A 25.78 25.78 0 0 1  463.95000000000005 231.98 L 438.17 257.76 A 25.78 25.78 0 0 0 463.95000000000005 231.98" fill="#f9f9fa"/><rect x="515.5" y="206.2" width="51.55" height="51.55" fill="#ffffff"/><path d="M 515.5 231.98 A 25.78 25.78 0 0 1  541.28 206.2 L 515.5 231.98 A 25.78 25.78 0 0 0 541.28 206.2" fill="#fafbfb"/><path d="M 541.28 231.98 A 25.78 25.78 0 0 1  567.06 206.2 L 541.28 231.98 A 25.78 25.78 0 0 0 567.06 206.2" fill="#fafafb"/><rect x="567.05" y="206.2" width="51.55" height="51.55" fill="#ffffff"/><path d="M 567.05 231.98 A 25.78 25.78 0 0 1  592.8299999999999 206.2 L 567.05 231.98 A 25.78 25.78 0 0 0 592.8299999999999 206.2" fill="#f5f6f8"/><path d="M 592.82 231.98 A 25.78 25.78 0 0 1  618.6 206.2 L 592.82 231.98 A 25.78 25.78 0 0 0 618.6 206.2" fill="#f6f7f8"/><path d="M 567.05 257.76 A 25.78 25.78 0 0 1  592.8299999999999 231.98 L 567.05 257.76 A 25.78 25.78 0 0 0 592.8299999999999 231.98" fill="#fbfcfc"/><path d="M 592.82 231.98 A 25.78 25.78 0 0 1  618.6 257.76 L 592.82 231.98 A 25.78 25.78 0 0 0 618.6 257.76" fill="#f3f4f6"/><rect x="670.15" y="206.2" width="51.55" height="51.55" fill="#ffffff"/><path d="M 670.15 257.76 A 25.78 25.78 0 0 1  695.93 231.98 L 670.15 257.76 A 25.78 25.78 0 0 0 695.93 231.98" fill="#fdfdfe"/><rect x="721.6999999999999" y="206.2" width="51.55" height="51.55" fill="#ffffff"/><path d="M 721.7 231.98 A 25.78 25.78 0 0 1  747.48 206.2 L 721.7 231.98 A 25.78 25.78 0 0 0 747.48 206.2" fill="#ffffff"/><path d="M 721.7 231.98 A 25.78 25.78 0 0 1  747.48 257.76 L 721.7 231.98 A 25.78 25.78 0 0 0 747.48 257.76" fill="#f8f9fa"/><path d="M 773.25 257.75 A 51.55 51.55 0 0 1  824.8 206.2 L 773.25 257.75 A 51.55 51.55 0 0 0 824.8 206.2" fill="#f6f7f8"/><path d="M 824.8 206.2 A 51.55 51.55 0 0 1  876.3499999999999 257.75 L 824.8 206.2 A 51.55 51.55 0 0 0 876.3499999999999 257.75" fill="#f5f6f8"/><path d="M 876.35 206.2 A 51.55 51.55 0 0 1  927.9 257.75 L 876.35 206.2 A 51.55 51.55 0 0 0 927.9 257.75" fill="#f4f5f7"/><rect x="979.4499999999999" y="206.2" width="51.55" height="51.55" fill="#ffffff"/><path d="M 979.45 206.2 A 25.78 25.78 0 0 1  1005.23 231.98 L 979.45 206.2 A 25.78 25.78 0 0 0 1005.23 231.98" fill="#fdfefe"/><rect x="0" y="257.75" width="51.55" height="51.55" fill="#ffffff"/><path d="M 0 257.75 A 25.78 25.78 0 0 1  25.78 283.53 L 0 257.75 A 25.78 25.78 0 0 0 25.78 283.53" fill="#f5f6f7"/><path d="M 25.78 283.53 A 25.78 25.78 0 0 1  51.56 257.75 L 25.78 283.53 A 25.78 25.78 0 0 0 51.56 257.75" fill="#fcfcfd"/><path d="M 0 283.52 A 25.78 25.78 0 0 1  25.78 309.29999999999995 L 0 283.52 A 25.78 25.78 0 0 0 25.78 309.29999999999995" fill="#fafafb"/><rect x="51.55" y="257.75" width="51.55" height="51.55" fill="#ffffff"/><path d="M 51.55 257.75 A 25.78 25.78 0 0 1  77.33 283.53 L 51.55 257.75 A 25.78 25.78 0 0 0 77.33 283.53" fill="#f9f9fa"/><path d="M 77.32 257.75 A 25.78 25.78 0 0 1  103.1 283.53 L 77.32 257.75 A 25.78 25.78 0 0 0 103.1 283.53" fill="#f3f4f6"/><path d="M 51.55 309.29999999999995 A 25.78 25.78 0 0 1  77.33 283.52 L 51.55 309.29999999999995 A 25.78 25.78 0 0 0 77.33 283.52" fill="#f7f7f9"/><path d="M 77.32 283.52 A 25.78 25.78 0 0 1  103.1 309.29999999999995 L 77.32 283.52 A 25.78 25.78 0 0 0 103.1 309.29999999999995" fill="#fcfcfc"/><path d="M 103.1 309.3 A 51.55 51.55 0 0 1  154.64999999999998 257.75 L 103.1 309.3 A 51.55 51.55 0 0 0 154.64999999999998 257.75" fill="#f4f5f7"/><rect x="257.75" y="257.75" width="51.55" height="51.55" fill="#ffffff"/><path d="M 257.75 283.53 A 25.78 25.78 0 0 1  283.53 257.75 L 257.75 283.53 A 25.78 25.78 0 0 0 283.53 257.75" fill="#f9fafb"/><path d="M 283.52 283.53 A 25.78 25.78 0 0 1  309.29999999999995 257.75 L 283.52 283.53 A 25.78 25.78 0 0 0 309.29999999999995 257.75" fill="#f8f9fa"/><path d="M 257.75 309.29999999999995 A 25.78 25.78 0 0 1  283.53 283.52 L 257.75 309.29999999999995 A 25.78 25.78 0 0 0 283.53 283.52" fill="#f4f5f7"/><path d="M 283.52 309.29999999999995 A 25.78 25.78 0 0 1  309.29999999999995 283.52 L 283.52 309.29999999999995 A 25.78 25.78 0 0 0 309.29999999999995 283.52" fill="#ffffff"/><rect x="309.29999999999995" y="257.75" width="51.55" height="51.55" fill="#ffffff"/><path d="M 309.3 283.53 A 25.78 25.78 0 0 1  335.08000000000004 257.75 L 309.3 283.53 A 25.78 25.78 0 0 0 335.08000000000004 257.75" fill="#fcfcfd"/><path d="M 309.3 283.52 A 25.78 25.78 0 0 1  335.08000000000004 309.29999999999995 L 309.3 283.52 A 25.78 25.78 0 0 0 335.08000000000004 309.29999999999995" fill="#f4f5f7"/><rect x="360.84999999999997" y="257.75" width="51.55" height="51.55" fill="#ffffff"/><path d="M 360.85 283.53 A 25.78 25.78 0 0 1  386.63 257.75 L 360.85 283.53 A 25.78 25.78 0 0 0 386.63 257.75" fill="#f7f8f9"/><path d="M 386.62 283.53 A 25.78 25.78 0 0 1  412.4 257.75 L 386.62 283.53 A 25.78 25.78 0 0 0 412.4 257.75" fill="#f5f6f7"/><path d="M 360.85 283.52 A 25.78 25.78 0 0 1  386.63 309.29999999999995 L 360.85 283.52 A 25.78 25.78 0 0 0 386.63 309.29999999999995" fill="#fafafb"/><path d="M 386.62 283.52 A 25.78 25.78 0 0 1  412.4 309.29999999999995 L 386.62 283.52 A 25.78 25.78 0 0 0 412.4 309.29999999999995" fill="#f4f5f7"/><rect x="412.4" y="257.75" width="51.55" height="51.55" fill="#ffffff"/><path d="M 412.4 283.53 A 25.78 25.78 0 0 1  438.17999999999995 257.75 L 412.4 283.53 A 25.78 25.78 0 0 0 438.17999999999995 257.75" fill="#ffffff"/><path d="M 438.17 283.53 A 25.78 25.78 0 0 1  463.95000000000005 257.75 L 438.17 283.53 A 25.78 25.78 0 0 0 463.95000000000005 257.75" fill="#f8f8fa"/><path d="M 412.4 309.29999999999995 A 25.78 25.78 0 0 1  438.17999999999995 283.52 L 412.4 309.29999999999995 A 25.78 25.78 0 0 0 438.17999999999995 283.52" fill="#f9f9fa"/><path d="M 438.17 283.52 A 25.78 25.78 0 0 1  463.95000000000005 309.29999999999995 L 438.17 283.52 A 25.78 25.78 0 0 0 463.95000000000005 309.29999999999995" fill="#fbfbfc"/><rect x="463.95" y="257.75" width="51.55" height="51.55" fill="#ffffff"/><path d="M 463.95 283.53 A 25.78 25.78 0 0 1  489.73 257.75 L 463.95 283.53 A 25.78 25.78 0 0 0 489.73 257.75" fill="#f5f6f7"/><path d="M 489.73 283.53 A 25.78 25.78 0 0 1  515.51 257.75 L 489.73 283.53 A 25.78 25.78 0 0 0 515.51 257.75" fill="#fbfbfc"/><path d="M 463.95 283.52 A 25.78 25.78 0 0 1  489.73 309.29999999999995 L 463.95 283.52 A 25.78 25.78 0 0 0 489.73 309.29999999999995" fill="#f7f7f9"/><path d="M 489.73 309.29999999999995 A 25.78 25.78 0 0 1  515.51 283.52 L 489.73 309.29999999999995 A 25.78 25.78 0 0 0 515.51 283.52" fill="#f6f6f8"/><rect x="515.5" y="257.75" width="51.55" height="51.55" fill="#ffffff"/><path d="M 515.5 257.75 A 25.78 25.78 0 0 1  541.28 283.53 L 515.5 257.75 A 25.78 25.78 0 0 0 541.28 283.53" fill="#f5f6f8"/><path d="M 515.5 283.52 A 25.78 25.78 0 0 1  541.28 309.29999999999995 L 515.5 283.52 A 25.78 25.78 0 0 0 541.28 309.29999999999995" fill="#f3f4f6"/><path d="M 541.28 283.52 A 25.78 25.78 0 0 1  567.06 309.29999999999995 L 541.28 283.52 A 25.78 25.78 0 0 0 567.06 309.29999999999995" fill="#f4f5f7"/><rect x="567.05" y="257.75" width="51.55" height="51.55" fill="#ffffff"/><path d="M 567.05 283.53 A 25.78 25.78 0 0 1  592.8299999999999 257.75 L 567.05 283.53 A 25.78 25.78 0 0 0 592.8299999999999 257.75" fill="#fefefe"/><path d="M 592.82 283.53 A 25.78 25.78 0 0 1  618.6 257.75 L 592.82 283.53 A 25.78 25.78 0 0 0 618.6 257.75" fill="#fbfcfc"/><path d="M 567.05 283.52 A 25.78 25.78 0 0 1  592.8299999999999 309.29999999999995 L 567.05 283.52 A 25.78 25.78 0 0 0 592.8299999999999 309.29999999999995" fill="#fcfcfd"/><rect x="773.25" y="257.75" width="51.55" height="51.55" fill="#ffffff"/><path d="M 773.25 283.53 A 25.78 25.78 0 0 1  799.03 257.75 L 773.25 283.53 A 25.78 25.78 0 0 0 799.03 257.75" fill="#fbfbfc"/><path d="M 799.03 283.53 A 25.78 25.78 0 0 1  824.81 257.75 L 799.03 283.53 A 25.78 25.78 0 0 0 824.81 257.75" fill="#f7f7f9"/><path d="M 773.25 309.29999999999995 A 25.78 25.78 0 0 1  799.03 283.52 L 773.25 309.29999999999995 A 25.78 25.78 0 0 0 799.03 283.52" fill="#f4f5f7"/><path d="M 799.03 309.29999999999995 A 25.78 25.78 0 0 1  824.81 283.52 L 799.03 309.29999999999995 A 25.78 25.78 0 0 0 824.81 283.52" fill="#fcfcfc"/><rect x="824.8" y="257.75" width="51.55" height="51.55" fill="#ffffff"/><path d="M 824.8 283.53 A 25.78 25.78 0 0 1  850.5799999999999 257.75 L 824.8 283.53 A 25.78 25.78 0 0 0 850.5799999999999 257.75" fill="#ffffff"/><path d="M 850.58 283.53 A 25.78 25.78 0 0 1  876.36 257.75 L 850.58 283.53 A 25.78 25.78 0 0 0 876.36 257.75" fill="#f4f5f7"/><path d="M 824.8 283.52 A 25.78 25.78 0 0 1  850.5799999999999 309.29999999999995 L 824.8 283.52 A 25.78 25.78 0 0 0 850.5799999999999 309.29999999999995" fill="#fdfdfe"/><rect x="876.3499999999999" y="257.75" width="51.55" height="51.55" fill="#ffffff"/><path d="M 876.35 257.75 A 25.78 25.78 0 0 1  902.13 283.53 L 876.35 257.75 A 25.78 25.78 0 0 0 902.13 283.53" fill="#f7f7f9"/><path d="M 902.12 283.53 A 25.78 25.78 0 0 1  927.9 257.75 L 902.12 283.53 A 25.78 25.78 0 0 0 927.9 257.75" fill="#fefefe"/><path d="M 876.35 309.29999999999995 A 25.78 25.78 0 0 1  902.13 283.52 L 876.35 309.29999999999995 A 25.78 25.78 0 0 0 902.13 283.52" fill="#f7f8f9"/><path d="M 927.9 257.75 A 51.55 51.55 0 0 1  979.4499999999999 309.3 L 927.9 257.75 A 51.55 51.55 0 0 0 979.4499999999999 309.3" fill="#f6f7f9"/></g></svg>