<?xml version="1.0" standalone="no"?><svg xmlns:xlink="http://www.w3.org/1999/xlink" xmlns="http://www.w3.org/2000/svg" viewBox="0 0 1000 299.9970902036858" preserveAspectRatio="xMaxYMax slice"><g transform="scale(0.9699321047526673)"><rect x="0" y="0" width="1031" height="309.29999999999995" fill="#ffffff"/><g transform="translate(0,0) scale(2.5774999999999997) rotate(0)"><path d="M10 0L20 10L10 20L0 10L10 0Z" fill="#f8f9fa"/></g><g transform="translate(103.1,0) scale(2.5774999999999997) rotate(0)"><path d="M10 0L20 10L10 20L0 10L10 0Z" fill="#fcfcfd"/></g><rect x="154.64999999999998" y="0" width="51.55" height="51.55" fill="#ffffff"/><g transform="translate(154.65,0) scale(1.2890000000000001) rotate(0)"><path d="M10 0L20 10L10 20L0 10L10 0Z" fill="#f4f5f7"/></g><g transform="translate(180.43,0) scale(1.2890000000000001) rotate(0)"><path d="M10 0L20 10L10 20L0 10L10 0Z" fill="#f8f9fa"/></g><rect x="206.2" y="0" width="51.55" height="51.55" fill="#ffffff"/><g transform="translate(206.2,25.78) scale(1.2890000000000001) rotate(0)"><path d="M10 0L20 10L10 20L0 10L10 0Z" fill="#f3f4f6"/></g><g transform="translate(231.98,25.78) scale(1.2890000000000001) rotate(0)"><path d="M10 0L20 10L10 20L0 10L10 0Z" fill="#f7f8f9"/></g><g transform="translate(309.3,0) scale(2.5774999999999997) rotate(0)"><path d="M10 0L20 10L10 20L0 10L10 0Z" fill="#fafbfc"/></g><rect x="412.4" y="0" width="51.55" height="51.55" fill="#ffffff"/><g transform="translate(412.4,0) scale(1.2890000000000001) rotate(0)"><path d="M10 0L20 10L10 20L0 10L10 0Z" fill="#f4f4f6"/></g><g transform="translate(463.95,0) scale(2.5774999999999997) rotate(0)"><path d="M10 0L20 10L10 20L0 10L10 0Z" fill="#f5f6f8"/></g><rect x="515.5" y="0" width="51.55" height="51.55" fill="#ffffff"/><g transform="translate(515.5,0) scale(1.2890000000000001) rotate(0)"><path d="M10 0L20 10L10 20L0 10L10 0Z" fill="#fbfbfc"/></g><g transform="translate(541.28,0) scale(1.2890000000000001) rotate(0)"><path d="M10 0L20 10L10 20L0 10L10 0Z" fill="#ffffff"/></g><g transform="translate(541.28,25.78) scale(1.2890000000000001) rotate(0)"><path d="M10 0L20 10L10 20L0 10L10 0Z" fill="#f4f5f7"/></g><rect x="567.05" y="0" width="51.55" height="51.55" fill="#ffffff"/><g transform="translate(592.82,0) scale(1.2890000000000001) rotate(0)"><path d="M10 0L20 10L10 20L0 10L10 0Z" fill="#f8f8f9"/></g><g transform="translate(567.05,25.78) scale(1.2890000000000001) rotate(0)"><path d="M10 0L20 10L10 20L0 10L10 0Z" fill="#f4f5f7"/></g><g transform="translate(670.15,0) scale(2.5774999999999997) rotate(0)"><path d="M10 0L20 10L10 20L0 10L10 0Z" fill="#fbfbfc"/></g><rect x="721.6999999999999" y="0" width="51.55" height="51.55" fill="#ffffff"/><g transform="translate(721.7,0) scale(1.2890000000000001) rotate(0)"><path d="M10 0L20 10L10 20L0 10L10 0Z" fill="#f8f9fa"/></g><g transform="translate(721.7,25.78) scale(1.2890000000000001) rotate(0)"><path d="M10 0L20 10L10 20L0 10L10 0Z" fill="#fcfdfd"/></g><rect x="773.25" y="0" width="51.55" height="51.55" fill="#ffffff"/><g transform="translate(773.25,0) scale(1.2890000000000001) rotate(0)"><path d="M10 0L20 10L10 20L0 10L10 0Z" fill="#f4f5f7"/></g><g transform="translate(799.03,0) scale(1.2890000000000001) rotate(0)"><path d="M10 0L20 10L10 20L0 10L10 0Z" fill="#fbfbfc"/></g><g transform="translate(773.25,25.78) scale(1.2890000000000001) rotate(0)"><path d="M10 0L20 10L10 20L0 10L10 0Z" fill="#f4f5f7"/></g><g transform="translate(799.03,25.78) scale(1.2890000000000001) rotate(0)"><path d="M10 0L20 10L10 20L0 10L10 0Z" fill="#fbfbfc"/></g><rect x="876.3499999999999" y="0" width="51.55" height="51.55" fill="#ffffff"/><g transform="translate(876.35,25.78) scale(1.2890000000000001) rotate(0)"><path d="M10 0L20 10L10 20L0 10L10 0Z" fill="#f3f4f6"/></g><g transform="translate(902.12,25.78) scale(1.2890000000000001) rotate(0)"><path d="M10 0L20 10L10 20L0 10L10 0Z" fill="#fdfdfd"/></g><rect x="0" y="51.55" width="51.55" height="51.55" fill="#ffffff"/><g transform="translate(0,51.55) scale(1.2890000000000001) rotate(0)"><path d="M10 0L20 10L10 20L0 10L10 0Z" fill="#f4f5f7"/></g><g transform="translate(0,77.32) scale(1.2890000000000001) rotate(0)"><path d="M10 0L20 10L10 20L0 10L10 0Z" fill="#f7f7f9"/></g><g transform="translate(25.78,77.32) scale(1.2890000000000001) rotate(0)"><path d="M10 0L20 10L10 20L0 10L10 0Z" fill="#feffff"/></g><g transform="translate(51.55,51.55) scale(2.5774999999999997) rotate(0)"><path d="M10 0L20 10L10 20L0 10L10 0Z" fill="#f8f9fa"/></g><g transform="translate(103.1,51.55) scale(2.5774999999999997) rotate(0)"><path d="M10 0L20 10L10 20L0 10L10 0Z" fill="#f4f4f6"/></g><rect x="154.64999999999998" y="51.55" width="51.55" height="51.55" fill="#ffffff"/><g transform="translate(154.65,51.55) scale(1.2890000000000001) rotate(0)"><path d="M10 0L20 10L10 20L0 10L10 0Z" fill="#fdfdfe"/></g><g transform="translate(180.43,51.55) scale(1.2890000000000001) rotate(0)"><path d="M10 0L20 10L10 20L0 10L10 0Z" fill="#f4f5f7"/></g><g transform="translate(154.65,77.32) scale(1.2890000000000001) rotate(0)"><path d="M10 0L20 10L10 20L0 10L10 0Z" fill="#fefeff"/></g><g transform="translate(180.43,77.32) scale(1.2890000000000001) rotate(0)"><path d="M10 0L20 10L10 20L0 10L10 0Z" fill="#f5f6f7"/></g><rect x="257.75" y="51.55" width="51.55" height="51.55" fill="#ffffff"/><g transform="translate(283.52,51.55) scale(1.2890000000000001) rotate(0)"><path d="M10 0L20 10L10 20L0 10L10 0Z" fill="#f6f7f8"/></g><g transform="translate(283.52,77.32) scale(1.2890000000000001) rotate(0)"><path d="M10 0L20 10L10 20L0 10L10 0Z" fill="#f7f8f9"/></g><g transform="translate(463.95,51.55) scale(2.5774999999999997) rotate(0)"><path d="M10 0L20 10L10 20L0 10L10 0Z" fill="#f3f4f6"/></g><rect x="567.05" y="51.55" width="51.55" height="51.55" fill="#ffffff"/><g transform="translate(567.05,51.55) scale(1.2890000000000001) rotate(0)"><path d="M10 0L20 10L10 20L0 10L10 0Z" fill="#f6f7f9"/></g><g transform="translate(592.82,51.55) scale(1.2890000000000001) rotate(0)"><path d="M10 0L20 10L10 20L0 10L10 0Z" fill="#fefefe"/></g><g transform="translate(567.05,77.32) scale(1.2890000000000001) rotate(0)"><path d="M10 0L20 10L10 20L0 10L10 0Z" fill="#fefefe"/></g><g transform="translate(592.82,77.32) scale(1.2890000000000001) rotate(0)"><path d="M10 0L20 10L10 20L0 10L10 0Z" fill="#f6f6f8"/></g><rect x="618.5999999999999" y="51.55" width="51.55" height="51.55" fill="#ffffff"/><g transform="translate(618.6,51.55) scale(1.2890000000000001) rotate(0)"><path d="M10 0L20 10L10 20L0 10L10 0Z" fill="#ffffff"/></g><g transform="translate(644.37,51.55) scale(1.2890000000000001) rotate(0)"><path d="M10 0L20 10L10 20L0 10L10 0Z" fill="#f3f4f6"/></g><g transform="translate(618.6,77.32) scale(1.2890000000000001) rotate(0)"><path d="M10 0L20 10L10 20L0 10L10 0Z" fill="#fcfdfd"/></g><g transform="translate(670.15,51.55) scale(2.5774999999999997) rotate(0)"><path d="M10 0L20 10L10 20L0 10L10 0Z" fill="#f4f5f7"/></g><rect x="721.6999999999999" y="51.55" width="51.55" height="51.55" fill="#ffffff"/><g transform="translate(747.47,51.55) scale(1.2890000000000001) rotate(0)"><path d="M10 0L20 10L10 20L0 10L10 0Z" fill="#f9f9fa"/></g><g transform="translate(721.7,77.32) scale(1.2890000000000001) rotate(0)"><path d="M10 0L20 10L10 20L0 10L10 0Z" fill="#f5f6f7"/></g><rect x="773.25" y="51.55" width="51.55" height="51.55" fill="#ffffff"/><g transform="translate(799.03,51.55) scale(1.2890000000000001) rotate(0)"><path d="M10 0L20 10L10 20L0 10L10 0Z" fill="#f6f7f8"/></g><g transform="translate(773.25,77.32) scale(1.2890000000000001) rotate(0)"><path d="M10 0L20 10L10 20L0 10L10 0Z" fill="#f4f5f7"/></g><g transform="translate(824.8,51.55) scale(2.5774999999999997) rotate(0)"><path d="M10 0L20 10L10 20L0 10L10 0Z" fill="#f7f7f9"/></g><rect x="876.3499999999999" y="51.55" width="51.55" height="51.55" fill="#ffffff"/><g transform="translate(876.35,51.55) scale(1.2890000000000001) rotate(0)"><path d="M10 0L20 10L10 20L0 10L10 0Z" fill="#f4f5f7"/></g><g transform="translate(876.35,77.32) scale(1.2890000000000001) rotate(0)"><path d="M10 0L20 10L10 20L0 10L10 0Z" fill="#fcfdfd"/></g><g transform="translate(902.12,77.32) scale(1.2890000000000001) rotate(0)"><path d="M10 0L20 10L10 20L0 10L10 0Z" fill="#fefefe"/></g><rect x="979.4499999999999" y="51.55" width="51.55" height="51.55" fill="#ffffff"/><g transform="translate(1005.22,51.55) scale(1.2890000000000001) rotate(0)"><path d="M10 0L20 10L10 20L0 10L10 0Z" fill="#f6f7f8"/></g><g transform="translate(1005.22,77.32) scale(1.2890000000000001) rotate(0)"><path d="M10 0L20 10L10 20L0 10L10 0Z" fill="#f8f9fa"/></g><rect x="0" y="103.1" width="51.55" height="51.55" fill="#ffffff"/><g transform="translate(0,103.1) scale(1.2890000000000001) rotate(0)"><path d="M10 0L20 10L10 20L0 10L10 0Z" fill="#f7f8f9"/></g><g transform="translate(0,128.88) scale(1.2890000000000001) rotate(0)"><path d="M10 0L20 10L10 20L0 10L10 0Z" fill="#fdfefe"/></g><g transform="translate(25.78,128.88) scale(1.2890000000000001) rotate(0)"><path d="M10 0L20 10L10 20L0 10L10 0Z" fill="#f9f9fa"/></g><rect x="51.55" y="103.1" width="51.55" height="51.55" fill="#ffffff"/><g transform="translate(51.55,103.1) scale(1.2890000000000001) rotate(0)"><path d="M10 0L20 10L10 20L0 10L10 0Z" fill="#f4f5f7"/></g><g transform="translate(77.32,128.88) scale(1.2890000000000001) rotate(0)"><path d="M10 0L20 10L10 20L0 10L10 0Z" fill="#fafbfc"/></g><g transform="translate(103.1,103.1) scale(2.5774999999999997) rotate(0)"><path d="M10 0L20 10L10 20L0 10L10 0Z" fill="#f7f8f9"/></g><g transform="translate(154.65,103.1) scale(2.5774999999999997) rotate(0)"><path d="M10 0L20 10L10 20L0 10L10 0Z" fill="#f8f8fa"/></g><g transform="translate(309.3,103.1) scale(2.5774999999999997) rotate(0)"><path d="M10 0L20 10L10 20L0 10L10 0Z" fill="#fafafb"/></g><rect x="360.84999999999997" y="103.1" width="51.55" height="51.55" fill="#ffffff"/><g transform="translate(360.85,103.1) scale(1.2890000000000001) rotate(0)"><path d="M10 0L20 10L10 20L0 10L10 0Z" fill="#f6f7f8"/></g><g transform="translate(386.62,103.1) scale(1.2890000000000001) rotate(0)"><path d="M10 0L20 10L10 20L0 10L10 0Z" fill="#fafbfc"/></g><g transform="translate(360.85,128.88) scale(1.2890000000000001) rotate(0)"><path d="M10 0L20 10L10 20L0 10L10 0Z" fill="#fdfdfd"/></g><g transform="translate(386.62,128.88) scale(1.2890000000000001) rotate(0)"><path d="M10 0L20 10L10 20L0 10L10 0Z" fill="#f6f7f8"/></g><rect x="463.95" y="103.1" width="51.55" height="51.55" fill="#ffffff"/><g transform="translate(489.73,103.1) scale(1.2890000000000001) rotate(0)"><path d="M10 0L20 10L10 20L0 10L10 0Z" fill="#f4f5f7"/></g><g transform="translate(463.95,128.88) scale(1.2890000000000001) rotate(0)"><path d="M10 0L20 10L10 20L0 10L10 0Z" fill="#f4f5f7"/></g><rect x="515.5" y="103.1" width="51.55" height="51.55" fill="#ffffff"/><g transform="translate(515.5,103.1) scale(1.2890000000000001) rotate(0)"><path d="M10 0L20 10L10 20L0 10L10 0Z" fill="#f4f5f7"/></g><g transform="translate(541.28,103.1) scale(1.2890000000000001) rotate(0)"><path d="M10 0L20 10L10 20L0 10L10 0Z" fill="#fefefe"/></g><g transform="translate(515.5,128.88) scale(1.2890000000000001) rotate(0)"><path d="M10 0L20 10L10 20L0 10L10 0Z" fill="#f8f9fa"/></g><g transform="translate(541.28,128.88) scale(1.2890000000000001) rotate(0)"><path d="M10 0L20 10L10 20L0 10L10 0Z" fill="#fcfdfd"/></g><rect x="567.05" y="103.1" width="51.55" height="51.55" fill="#ffffff"/><g transform="translate(567.05,103.1) scale(1.2890000000000001) rotate(0)"><path d="M10 0L20 10L10 20L0 10L10 0Z" fill="#fefeff"/></g><g transform="translate(592.82,103.1) scale(1.2890000000000001) rotate(0)"><path d="M10 0L20 10L10 20L0 10L10 0Z" fill="#f8f9fa"/></g><rect x="618.5999999999999" y="103.1" width="51.55" height="51.55" fill="#ffffff"/><g transform="translate(670.15,103.1) scale(2.5774999999999997) rotate(0)"><path d="M10 0L20 10L10 20L0 10L10 0Z" fill="#feffff"/></g><g transform="translate(721.7,103.1) scale(2.5774999999999997) rotate(0)"><path d="M10 0L20 10L10 20L0 10L10 0Z" fill="#f7f8f9"/></g><g transform="translate(773.25,103.1) scale(2.5774999999999997) rotate(0)"><path d="M10 0L20 10L10 20L0 10L10 0Z" fill="#fbfcfc"/></g><g transform="translate(876.35,103.1) scale(2.5774999999999997) rotate(0)"><path d="M10 0L20 10L10 20L0 10L10 0Z" fill="#fcfdfd"/></g><rect x="927.9" y="103.1" width="51.55" height="51.55" fill="#ffffff"/><g transform="translate(927.9,103.1) scale(1.2890000000000001) rotate(0)"><path d="M10 0L20 10L10 20L0 10L10 0Z" fill="#f8f8fa"/></g><g transform="translate(953.68,103.1) scale(1.2890000000000001) rotate(0)"><path d="M10 0L20 10L10 20L0 10L10 0Z" fill="#f4f5f7"/></g><g transform="translate(927.9,128.88) scale(1.2890000000000001) rotate(0)"><path d="M10 0L20 10L10 20L0 10L10 0Z" fill="#fbfbfc"/></g><g transform="translate(0,154.65) scale(2.5774999999999997) rotate(0)"><path d="M10 0L20 10L10 20L0 10L10 0Z" fill="#fdfefe"/></g><rect x="154.64999999999998" y="154.64999999999998" width="51.55" height="51.55" fill="#ffffff"/><g transform="translate(154.65,154.65) scale(1.2890000000000001) rotate(0)"><path d="M10 0L20 10L10 20L0 10L10 0Z" fill="#f5f6f7"/></g><g transform="translate(180.43,154.65) scale(1.2890000000000001) rotate(0)"><path d="M10 0L20 10L10 20L0 10L10 0Z" fill="#f5f6f8"/></g><g transform="translate(180.43,180.43) scale(1.2890000000000001) rotate(0)"><path d="M10 0L20 10L10 20L0 10L10 0Z" fill="#fcfcfd"/></g><rect x="206.2" y="154.64999999999998" width="51.55" height="51.55" fill="#ffffff"/><g transform="translate(206.2,180.43) scale(1.2890000000000001) rotate(0)"><path d="M10 0L20 10L10 20L0 10L10 0Z" fill="#fefefe"/></g><g transform="translate(231.98,180.43) scale(1.2890000000000001) rotate(0)"><path d="M10 0L20 10L10 20L0 10L10 0Z" fill="#fdfdfd"/></g><rect x="257.75" y="154.64999999999998" width="51.55" height="51.55" fill="#ffffff"/><g transform="translate(257.75,154.65) scale(1.2890000000000001) rotate(0)"><path d="M10 0L20 10L10 20L0 10L10 0Z" fill="#f4f5f7"/></g><g transform="translate(257.75,180.43) scale(1.2890000000000001) rotate(0)"><path d="M10 0L20 10L10 20L0 10L10 0Z" fill="#fefefe"/></g><g transform="translate(283.52,180.43) scale(1.2890000000000001) rotate(0)"><path d="M10 0L20 10L10 20L0 10L10 0Z" fill="#fbfcfc"/></g><g transform="translate(309.3,154.65) scale(2.5774999999999997) rotate(0)"><path d="M10 0L20 10L10 20L0 10L10 0Z" fill="#fbfbfc"/></g><rect x="360.84999999999997" y="154.64999999999998" width="51.55" height="51.55" fill="#ffffff"/><g transform="translate(360.85,154.65) scale(1.2890000000000001) rotate(0)"><path d="M10 0L20 10L10 20L0 10L10 0Z" fill="#f9f9fa"/></g><g transform="translate(386.62,154.65) scale(1.2890000000000001) rotate(0)"><path d="M10 0L20 10L10 20L0 10L10 0Z" fill="#fdfdfe"/></g><g transform="translate(360.85,180.43) scale(1.2890000000000001) rotate(0)"><path d="M10 0L20 10L10 20L0 10L10 0Z" fill="#f7f7f9"/></g><rect x="463.95" y="154.64999999999998" width="51.55" height="51.55" fill="#ffffff"/><g transform="translate(463.95,154.65) scale(1.2890000000000001) rotate(0)"><path d="M10 0L20 10L10 20L0 10L10 0Z" fill="#fafafb"/></g><g transform="translate(489.73,154.65) scale(1.2890000000000001) rotate(0)"><path d="M10 0L20 10L10 20L0 10L10 0Z" fill="#f5f6f8"/></g><g transform="translate(463.95,180.43) scale(1.2890000000000001) rotate(0)"><path d="M10 0L20 10L10 20L0 10L10 0Z" fill="#f4f5f7"/></g><g transform="translate(489.73,180.43) scale(1.2890000000000001) rotate(0)"><path d="M10 0L20 10L10 20L0 10L10 0Z" fill="#f4f5f7"/></g><rect x="567.05" y="154.64999999999998" width="51.55" height="51.55" fill="#ffffff"/><g transform="translate(567.05,154.65) scale(1.2890000000000001) rotate(0)"><path d="M10 0L20 10L10 20L0 10L10 0Z" fill="#fcfcfd"/></g><g transform="translate(567.05,180.43) scale(1.2890000000000001) rotate(0)"><path d="M10 0L20 10L10 20L0 10L10 0Z" fill="#fafbfb"/></g><g transform="translate(618.6,154.65) scale(2.5774999999999997) rotate(0)"><path d="M10 0L20 10L10 20L0 10L10 0Z" fill="#f7f8f9"/></g><rect x="773.25" y="154.64999999999998" width="51.55" height="51.55" fill="#ffffff"/><g transform="translate(773.25,154.65) scale(1.2890000000000001) rotate(0)"><path d="M10 0L20 10L10 20L0 10L10 0Z" fill="#fcfcfd"/></g><g transform="translate(773.25,180.43) scale(1.2890000000000001) rotate(0)"><path d="M10 0L20 10L10 20L0 10L10 0Z" fill="#f6f7f8"/></g><rect x="824.8" y="154.64999999999998" width="51.55" height="51.55" fill="#ffffff"/><g transform="translate(824.8,154.65) scale(1.2890000000000001) rotate(0)"><path d="M10 0L20 10L10 20L0 10L10 0Z" fill="#f4f5f7"/></g><g transform="translate(824.8,180.43) scale(1.2890000000000001) rotate(0)"><path d="M10 0L20 10L10 20L0 10L10 0Z" fill="#f5f6f8"/></g><g transform="translate(850.58,180.43) scale(1.2890000000000001) rotate(0)"><path d="M10 0L20 10L10 20L0 10L10 0Z" fill="#fbfbfc"/></g><g transform="translate(876.35,154.65) scale(2.5774999999999997) rotate(0)"><path d="M10 0L20 10L10 20L0 10L10 0Z" fill="#f3f4f6"/></g><rect x="927.9" y="154.64999999999998" width="51.55" height="51.55" fill="#ffffff"/><g transform="translate(927.9,180.43) scale(1.2890000000000001) rotate(0)"><path d="M10 0L20 10L10 20L0 10L10 0Z" fill="#f5f6f8"/></g><g transform="translate(953.68,180.43) scale(1.2890000000000001) rotate(0)"><path d="M10 0L20 10L10 20L0 10L10 0Z" fill="#f9fafb"/></g><g transform="translate(979.45,154.65) scale(2.5774999999999997) rotate(0)"><path d="M10 0L20 10L10 20L0 10L10 0Z" fill="#f5f6f8"/></g><rect x="0" y="206.2" width="51.55" height="51.55" fill="#ffffff"/><g transform="translate(0,206.2) scale(1.2890000000000001) rotate(0)"><path d="M10 0L20 10L10 20L0 10L10 0Z" fill="#f8f8fa"/></g><g transform="translate(25.78,206.2) scale(1.2890000000000001) rotate(0)"><path d="M10 0L20 10L10 20L0 10L10 0Z" fill="#f4f5f7"/></g><g transform="translate(0,231.98) scale(1.2890000000000001) rotate(0)"><path d="M10 0L20 10L10 20L0 10L10 0Z" fill="#fafafb"/></g><g transform="translate(25.78,231.98) scale(1.2890000000000001) rotate(0)"><path d="M10 0L20 10L10 20L0 10L10 0Z" fill="#f6f7f8"/></g><g transform="translate(51.55,206.2) scale(2.5774999999999997) rotate(0)"><path d="M10 0L20 10L10 20L0 10L10 0Z" fill="#f4f5f7"/></g><rect x="103.1" y="206.2" width="51.55" height="51.55" fill="#ffffff"/><g transform="translate(128.88,206.2) scale(1.2890000000000001) rotate(0)"><path d="M10 0L20 10L10 20L0 10L10 0Z" fill="#fafafb"/></g><g transform="translate(103.1,231.98) scale(1.2890000000000001) rotate(0)"><path d="M10 0L20 10L10 20L0 10L10 0Z" fill="#fcfdfd"/></g><g transform="translate(128.88,231.98) scale(1.2890000000000001) rotate(0)"><path d="M10 0L20 10L10 20L0 10L10 0Z" fill="#ffffff"/></g><g transform="translate(154.65,206.2) scale(2.5774999999999997) rotate(0)"><path d="M10 0L20 10L10 20L0 10L10 0Z" fill="#fdfdfd"/></g><rect x="206.2" y="206.2" width="51.55" height="51.55" fill="#ffffff"/><g transform="translate(206.2,206.2) scale(1.2890000000000001) rotate(0)"><path d="M10 0L20 10L10 20L0 10L10 0Z" fill="#ffffff"/></g><g transform="translate(231.98,206.2) scale(1.2890000000000001) rotate(0)"><path d="M10 0L20 10L10 20L0 10L10 0Z" fill="#f8f8f9"/></g><g transform="translate(206.2,231.98) scale(1.2890000000000001) rotate(0)"><path d="M10 0L20 10L10 20L0 10L10 0Z" fill="#f5f6f8"/></g><g transform="translate(231.98,231.98) scale(1.2890000000000001) rotate(0)"><path d="M10 0L20 10L10 20L0 10L10 0Z" fill="#ffffff"/></g><rect x="257.75" y="206.2" width="51.55" height="51.55" fill="#ffffff"/><g transform="translate(283.52,206.2) scale(1.2890000000000001) rotate(0)"><path d="M10 0L20 10L10 20L0 10L10 0Z" fill="#fafafb"/></g><g transform="translate(283.52,231.98) scale(1.2890000000000001) rotate(0)"><path d="M10 0L20 10L10 20L0 10L10 0Z" fill="#fafafb"/></g><rect x="309.29999999999995" y="206.2" width="51.55" height="51.55" fill="#ffffff"/><g transform="translate(309.3,206.2) scale(1.2890000000000001) rotate(0)"><path d="M10 0L20 10L10 20L0 10L10 0Z" fill="#f4f5f7"/></g><g transform="translate(309.3,231.98) scale(1.2890000000000001) rotate(0)"><path d="M10 0L20 10L10 20L0 10L10 0Z" fill="#f3f4f6"/></g><g transform="translate(335.07,231.98) scale(1.2890000000000001) rotate(0)"><path d="M10 0L20 10L10 20L0 10L10 0Z" fill="#fdfdfe"/></g><rect x="360.84999999999997" y="206.2" width="51.55" height="51.55" fill="#ffffff"/><g transform="translate(386.62,206.2) scale(1.2890000000000001) rotate(0)"><path d="M10 0L20 10L10 20L0 10L10 0Z" fill="#f7f8f9"/></g><g transform="translate(360.85,231.98) scale(1.2890000000000001) rotate(0)"><path d="M10 0L20 10L10 20L0 10L10 0Z" fill="#feffff"/></g><g transform="translate(463.95,206.2) scale(2.5774999999999997) rotate(0)"><path d="M10 0L20 10L10 20L0 10L10 0Z" fill="#f4f5f6"/></g><rect x="515.5" y="206.2" width="51.55" height="51.55" fill="#ffffff"/><g transform="translate(515.5,206.2) scale(1.2890000000000001) rotate(0)"><path d="M10 0L20 10L10 20L0 10L10 0Z" fill="#fdfdfe"/></g><g transform="translate(541.28,206.2) scale(1.2890000000000001) rotate(0)"><path d="M10 0L20 10L10 20L0 10L10 0Z" fill="#f8f9fa"/></g><g transform="translate(515.5,231.98) scale(1.2890000000000001) rotate(0)"><path d="M10 0L20 10L10 20L0 10L10 0Z" fill="#fefefe"/></g><rect x="721.6999999999999" y="206.2" width="51.55" height="51.55" fill="#ffffff"/><g transform="translate(747.47,206.2) scale(1.2890000000000001) rotate(0)"><path d="M10 0L20 10L10 20L0 10L10 0Z" fill="#fcfcfd"/></g><g transform="translate(721.7,231.98) scale(1.2890000000000001) rotate(0)"><path d="M10 0L20 10L10 20L0 10L10 0Z" fill="#fefefe"/></g><rect x="876.3499999999999" y="206.2" width="51.55" height="51.55" fill="#ffffff"/><g transform="translate(876.35,206.2) scale(1.2890000000000001) rotate(0)"><path d="M10 0L20 10L10 20L0 10L10 0Z" fill="#fcfcfd"/></g><g transform="translate(902.12,206.2) scale(1.2890000000000001) rotate(0)"><path d="M10 0L20 10L10 20L0 10L10 0Z" fill="#f7f8f9"/></g><g transform="translate(876.35,231.98) scale(1.2890000000000001) rotate(0)"><path d="M10 0L20 10L10 20L0 10L10 0Z" fill="#f5f6f7"/></g><g transform="translate(902.12,231.98) scale(1.2890000000000001) rotate(0)"><path d="M10 0L20 10L10 20L0 10L10 0Z" fill="#f9fafb"/></g><rect x="927.9" y="206.2" width="51.55" height="51.55" fill="#ffffff"/><g transform="translate(953.68,231.98) scale(1.2890000000000001) rotate(0)"><path d="M10 0L20 10L10 20L0 10L10 0Z" fill="#f9f9fa"/></g><rect x="979.4499999999999" y="206.2" width="51.55" height="51.55" fill="#ffffff"/><g transform="translate(979.45,206.2) scale(1.2890000000000001) rotate(0)"><path d="M10 0L20 10L10 20L0 10L10 0Z" fill="#f8f9fa"/></g><g transform="translate(1005.22,206.2) scale(1.2890000000000001) rotate(0)"><path d="M10 0L20 10L10 20L0 10L10 0Z" fill="#f4f5f7"/></g><g transform="translate(1005.22,231.98) scale(1.2890000000000001) rotate(0)"><path d="M10 0L20 10L10 20L0 10L10 0Z" fill="#fafbfb"/></g><rect x="0" y="257.75" width="51.55" height="51.55" fill="#ffffff"/><g transform="translate(0,257.75) scale(1.2890000000000001) rotate(0)"><path d="M10 0L20 10L10 20L0 10L10 0Z" fill="#f3f4f6"/></g><g transform="translate(0,283.52) scale(1.2890000000000001) rotate(0)"><path d="M10 0L20 10L10 20L0 10L10 0Z" fill="#f4f5f7"/></g><g transform="translate(25.78,283.52) scale(1.2890000000000001) rotate(0)"><path d="M10 0L20 10L10 20L0 10L10 0Z" fill="#f4f5f7"/></g><rect x="51.55" y="257.75" width="51.55" height="51.55" fill="#ffffff"/><g transform="translate(51.55,257.75) scale(1.2890000000000001) rotate(0)"><path d="M10 0L20 10L10 20L0 10L10 0Z" fill="#f4f5f7"/></g><g transform="translate(51.55,283.52) scale(1.2890000000000001) rotate(0)"><path d="M10 0L20 10L10 20L0 10L10 0Z" fill="#fdfdfd"/></g><g transform="translate(77.32,283.52) scale(1.2890000000000001) rotate(0)"><path d="M10 0L20 10L10 20L0 10L10 0Z" fill="#fbfcfc"/></g><rect x="103.1" y="257.75" width="51.55" height="51.55" fill="#ffffff"/><g transform="translate(128.88,257.75) scale(1.2890000000000001) rotate(0)"><path d="M10 0L20 10L10 20L0 10L10 0Z" fill="#fafafb"/></g><g transform="translate(103.1,283.52) scale(1.2890000000000001) rotate(0)"><path d="M10 0L20 10L10 20L0 10L10 0Z" fill="#f4f5f7"/></g><rect x="154.64999999999998" y="257.75" width="51.55" height="51.55" fill="#ffffff"/><g transform="translate(154.65,257.75) scale(1.2890000000000001) rotate(0)"><path d="M10 0L20 10L10 20L0 10L10 0Z" fill="#fdfdfd"/></g><g transform="translate(180.43,283.52) scale(1.2890000000000001) rotate(0)"><path d="M10 0L20 10L10 20L0 10L10 0Z" fill="#fefefe"/></g><rect x="257.75" y="257.75" width="51.55" height="51.55" fill="#ffffff"/><g transform="translate(283.52,257.75) scale(1.2890000000000001) rotate(0)"><path d="M10 0L20 10L10 20L0 10L10 0Z" fill="#fcfcfd"/></g><g transform="translate(257.75,283.52) scale(1.2890000000000001) rotate(0)"><path d="M10 0L20 10L10 20L0 10L10 0Z" fill="#fafafb"/></g><g transform="translate(283.52,283.52) scale(1.2890000000000001) rotate(0)"><path d="M10 0L20 10L10 20L0 10L10 0Z" fill="#fdfdfd"/></g><g transform="translate(309.3,257.75) scale(2.5774999999999997) rotate(0)"><path d="M10 0L20 10L10 20L0 10L10 0Z" fill="#ffffff"/></g><rect x="360.84999999999997" y="257.75" width="51.55" height="51.55" fill="#ffffff"/><g transform="translate(386.62,257.75) scale(1.2890000000000001) rotate(0)"><path d="M10 0L20 10L10 20L0 10L10 0Z" fill="#fafbfc"/></g><g transform="translate(360.85,283.52) scale(1.2890000000000001) rotate(0)"><path d="M10 0L20 10L10 20L0 10L10 0Z" fill="#f7f8f9"/></g><g transform="translate(386.62,283.52) scale(1.2890000000000001) rotate(0)"><path d="M10 0L20 10L10 20L0 10L10 0Z" fill="#f5f6f7"/></g><rect x="463.95" y="257.75" width="51.55" height="51.55" fill="#ffffff"/><g transform="translate(463.95,257.75) scale(1.2890000000000001) rotate(0)"><path d="M10 0L20 10L10 20L0 10L10 0Z" fill="#fafafb"/></g><rect x="515.5" y="257.75" width="51.55" height="51.55" fill="#ffffff"/><g transform="translate(515.5,257.75) scale(1.2890000000000001) rotate(0)"><path d="M10 0L20 10L10 20L0 10L10 0Z" fill="#f3f4f6"/></g><rect x="618.5999999999999" y="257.75" width="51.55" height="51.55" fill="#ffffff"/><g transform="translate(618.6,257.75) scale(1.2890000000000001) rotate(0)"><path d="M10 0L20 10L10 20L0 10L10 0Z" fill="#fefefe"/></g><g transform="translate(644.37,257.75) scale(1.2890000000000001) rotate(0)"><path d="M10 0L20 10L10 20L0 10L10 0Z" fill="#fbfcfc"/></g><g transform="translate(618.6,283.52) scale(1.2890000000000001) rotate(0)"><path d="M10 0L20 10L10 20L0 10L10 0Z" fill="#ffffff"/></g><g transform="translate(644.37,283.52) scale(1.2890000000000001) rotate(0)"><path d="M10 0L20 10L10 20L0 10L10 0Z" fill="#f8f8f9"/></g><g transform="translate(721.7,257.75) scale(2.5774999999999997) rotate(0)"><path d="M10 0L20 10L10 20L0 10L10 0Z" fill="#f6f6f8"/></g><rect x="773.25" y="257.75" width="51.55" height="51.55" fill="#ffffff"/><g transform="translate(773.25,257.75) scale(1.2890000000000001) rotate(0)"><path d="M10 0L20 10L10 20L0 10L10 0Z" fill="#f6f6f8"/></g><g transform="translate(799.03,283.52) scale(1.2890000000000001) rotate(0)"><path d="M10 0L20 10L10 20L0 10L10 0Z" fill="#fbfcfc"/></g><rect x="927.9" y="257.75" width="51.55" height="51.55" fill="#ffffff"/><g transform="translate(927.9,257.75) scale(1.2890000000000001) rotate(0)"><path d="M10 0L20 10L10 20L0 10L10 0Z" fill="#fcfcfd"/></g><g transform="translate(953.68,257.75) scale(1.2890000000000001) rotate(0)"><path d="M10 0L20 10L10 20L0 10L10 0Z" fill="#f5f5f7"/></g><g transform="translate(927.9,283.52) scale(1.2890000000000001) rotate(0)"><path d="M10 0L20 10L10 20L0 10L10 0Z" fill="#f4f5f7"/></g><rect x="979.4499999999999" y="257.75" width="51.55" height="51.55" fill="#ffffff"/><g transform="translate(979.45,257.75) scale(1.2890000000000001) rotate(0)"><path d="M10 0L20 10L10 20L0 10L10 0Z" fill="#fcfcfd"/></g><g transform="translate(1005.22,257.75) scale(1.2890000000000001) rotate(0)"><path d="M10 0L20 10L10 20L0 10L10 0Z" fill="#f3f4f6"/></g></g></svg>