<?xml version="1.0" standalone="no"?><svg xmlns:xlink="http://www.w3.org/1999/xlink" xmlns="http://www.w3.org/2000/svg" viewBox="0 0 1000 299.9970902036858" preserveAspectRatio="xMaxYMax slice"><g transform="scale(0.9699321047526673)"><rect x="0" y="0" width="1031" height="309.29999999999995" fill="#ffffff"/><rect x="0" y="0" width="51.55" height="51.55" fill="#ffffff"/><circle cx="38.67" cy="12.89" r="12.89" fill="#fbfbfc"/><circle cx="12.89" cy="38.67" r="12.89" fill="#fafafb"/><circle cx="38.67" cy="38.67" r="12.89" fill="#f7f7f9"/><rect x="51.55" y="0" width="51.55" height="51.55" fill="#ffffff"/><circle cx="64.44" cy="12.89" r="12.89" fill="#f6f7f8"/><circle cx="90.21" cy="12.89" r="12.89" fill="#f4f5f7"/><circle cx="64.44" cy="38.67" r="12.89" fill="#f9f9fa"/><circle cx="90.21" cy="38.67" r="12.89" fill="#fbfbfc"/><rect x="103.1" y="0" width="51.55" height="51.55" fill="#ffffff"/><circle cx="141.76999999999998" cy="12.89" r="12.89" fill="#fbfbfc"/><rect x="154.64999999999998" y="0" width="51.55" height="51.55" fill="#ffffff"/><circle cx="167.54000000000002" cy="12.89" r="12.89" fill="#fbfbfc"/><circle cx="193.32" cy="12.89" r="12.89" fill="#f5f6f8"/><circle cx="167.54000000000002" cy="38.67" r="12.89" fill="#f5f6f8"/><circle cx="193.32" cy="38.67" r="12.89" fill="#f8f8fa"/><rect x="206.2" y="0" width="51.55" height="51.55" fill="#ffffff"/><circle cx="219.08999999999997" cy="12.89" r="12.89" fill="#f4f5f7"/><circle cx="244.87" cy="12.89" r="12.89" fill="#ffffff"/><rect x="257.75" y="0" width="51.55" height="51.55" fill="#ffffff"/><circle cx="270.64" cy="12.89" r="12.89" fill="#f8f8f9"/><circle cx="296.40999999999997" cy="38.67" r="12.89" fill="#fbfbfc"/><rect x="412.4" y="0" width="51.55" height="51.55" fill="#ffffff"/><circle cx="451.06" cy="12.89" r="12.89" fill="#f5f6f8"/><circle cx="425.28999999999996" cy="38.67" r="12.89" fill="#f5f6f8"/><rect x="463.95" y="0" width="51.55" height="51.55" fill="#ffffff"/><circle cx="476.84" cy="12.89" r="12.89" fill="#fefefe"/><circle cx="502.62" cy="12.89" r="12.89" fill="#fcfdfd"/><circle cx="502.62" cy="38.67" r="12.89" fill="#fafafb"/><rect x="515.5" y="0" width="51.55" height="51.55" fill="#ffffff"/><circle cx="528.39" cy="12.89" r="12.89" fill="#fafafb"/><circle cx="554.17" cy="12.89" r="12.89" fill="#fafafb"/><circle cx="528.39" cy="38.67" r="12.89" fill="#f8f9fa"/><circle cx="554.17" cy="38.67" r="12.89" fill="#f7f7f9"/><circle cx="644.375" cy="25.775" r="25.775" fill="#ffffff"/><circle cx="695.925" cy="25.775" r="25.775" fill="#fdfdfd"/><rect x="773.25" y="0" width="51.55" height="51.55" fill="#ffffff"/><circle cx="786.14" cy="12.89" r="12.89" fill="#f5f6f8"/><circle cx="811.92" cy="12.89" r="12.89" fill="#fefefe"/><circle cx="811.92" cy="38.67" r="12.89" fill="#f8f9fa"/><rect x="824.8" y="0" width="51.55" height="51.55" fill="#ffffff"/><circle cx="837.6899999999999" cy="12.89" r="12.89" fill="#fdfdfe"/><circle cx="863.47" cy="12.89" r="12.89" fill="#ffffff"/><circle cx="837.6899999999999" cy="38.67" r="12.89" fill="#fbfcfc"/><circle cx="863.47" cy="38.67" r="12.89" fill="#f9f9fa"/><rect x="876.3499999999999" y="0" width="51.55" height="51.55" fill="#ffffff"/><circle cx="915.01" cy="12.89" r="12.89" fill="#fdfdfd"/><circle cx="889.24" cy="38.67" r="12.89" fill="#f9f9fa"/><rect x="927.9" y="0" width="51.55" height="51.55" fill="#ffffff"/><circle cx="940.79" cy="12.89" r="12.89" fill="#f5f6f8"/><circle cx="966.5699999999999" cy="12.89" r="12.89" fill="#f6f7f8"/><circle cx="940.79" cy="38.67" r="12.89" fill="#fbfcfc"/><rect x="979.4499999999999" y="0" width="51.55" height="51.55" fill="#ffffff"/><circle cx="992.34" cy="12.89" r="12.89" fill="#f5f6f8"/><circle cx="1018.11" cy="12.89" r="12.89" fill="#f3f4f6"/><circle cx="77.32499999999999" cy="77.32499999999999" r="25.775" fill="#fbfcfc"/><rect x="103.1" y="51.55" width="51.55" height="51.55" fill="#ffffff"/><circle cx="141.76999999999998" cy="64.44" r="12.89" fill="#fafafb"/><circle cx="115.99" cy="90.21" r="12.89" fill="#f8f9fa"/><circle cx="141.76999999999998" cy="90.21" r="12.89" fill="#fbfbfc"/><rect x="206.2" y="51.55" width="51.55" height="51.55" fill="#ffffff"/><circle cx="244.87" cy="64.44" r="12.89" fill="#fdfdfd"/><circle cx="219.08999999999997" cy="90.21" r="12.89" fill="#f6f7f8"/><circle cx="244.87" cy="90.21" r="12.89" fill="#f3f4f6"/><rect x="257.75" y="51.55" width="51.55" height="51.55" fill="#ffffff"/><circle cx="296.40999999999997" cy="64.44" r="12.89" fill="#fafbfb"/><circle cx="270.64" cy="90.21" r="12.89" fill="#f7f8f9"/><circle cx="296.40999999999997" cy="90.21" r="12.89" fill="#fdfdfd"/><rect x="309.29999999999995" y="51.55" width="51.55" height="51.55" fill="#ffffff"/><circle cx="347.96" cy="64.44" r="12.89" fill="#fdfdfe"/><circle cx="322.19" cy="90.21" r="12.89" fill="#f8f9fa"/><circle cx="347.96" cy="90.21" r="12.89" fill="#fbfcfc"/><rect x="360.84999999999997" y="51.55" width="51.55" height="51.55" fill="#ffffff"/><circle cx="399.51" cy="64.44" r="12.89" fill="#fdfefe"/><circle cx="399.51" cy="90.21" r="12.89" fill="#f8f9fa"/><rect x="515.5" y="51.55" width="51.55" height="51.55" fill="#ffffff"/><circle cx="528.39" cy="64.44" r="12.89" fill="#f5f6f8"/><circle cx="554.17" cy="64.44" r="12.89" fill="#f4f5f6"/><circle cx="554.17" cy="90.21" r="12.89" fill="#fdfdfe"/><circle cx="592.8249999999999" cy="77.32499999999999" r="25.775" fill="#f8f8fa"/><rect x="773.25" y="51.55" width="51.55" height="51.55" fill="#ffffff"/><circle cx="811.92" cy="64.44" r="12.89" fill="#f7f8f9"/><circle cx="811.92" cy="90.21" r="12.89" fill="#f8f9fa"/><rect x="876.3499999999999" y="51.55" width="51.55" height="51.55" fill="#ffffff"/><circle cx="915.01" cy="64.44" r="12.89" fill="#fefefe"/><circle cx="915.01" cy="90.21" r="12.89" fill="#f8f9fa"/><rect x="927.9" y="51.55" width="51.55" height="51.55" fill="#ffffff"/><circle cx="940.79" cy="64.44" r="12.89" fill="#fbfbfc"/><circle cx="940.79" cy="90.21" r="12.89" fill="#fbfcfc"/><rect x="979.4499999999999" y="51.55" width="51.55" height="51.55" fill="#ffffff"/><circle cx="1018.11" cy="64.44" r="12.89" fill="#f4f5f7"/><circle cx="1018.11" cy="90.21" r="12.89" fill="#f7f7f9"/><circle cx="77.32499999999999" cy="128.875" r="25.775" fill="#f8f8f9"/><circle cx="180.425" cy="128.875" r="25.775" fill="#f9fafb"/><circle cx="283.525" cy="128.875" r="25.775" fill="#f5f6f8"/><rect x="412.4" y="103.1" width="51.55" height="51.55" fill="#ffffff"/><circle cx="425.28999999999996" cy="115.99" r="12.89" fill="#f9f9fa"/><rect x="463.95" y="103.1" width="51.55" height="51.55" fill="#ffffff"/><circle cx="502.62" cy="115.99" r="12.89" fill="#fcfcfd"/><circle cx="476.84" cy="141.76999999999998" r="12.89" fill="#f5f6f8"/><circle cx="502.62" cy="141.76999999999998" r="12.89" fill="#fafafb"/><circle cx="541.275" cy="128.875" r="25.775" fill="#fafafb"/><rect x="567.05" y="103.1" width="51.55" height="51.55" fill="#ffffff"/><circle cx="605.71" cy="115.99" r="12.89" fill="#fafafb"/><circle cx="605.71" cy="141.76999999999998" r="12.89" fill="#f5f6f8"/><circle cx="644.375" cy="128.875" r="25.775" fill="#f8f9fa"/><rect x="670.15" y="103.1" width="51.55" height="51.55" fill="#ffffff"/><circle cx="708.8199999999999" cy="115.99" r="12.89" fill="#fafbfb"/><circle cx="683.04" cy="141.76999999999998" r="12.89" fill="#f6f7f8"/><circle cx="708.8199999999999" cy="141.76999999999998" r="12.89" fill="#fcfcfc"/><rect x="721.6999999999999" y="103.1" width="51.55" height="51.55" fill="#ffffff"/><circle cx="734.59" cy="115.99" r="12.89" fill="#fefefe"/><circle cx="760.36" cy="115.99" r="12.89" fill="#fbfbfc"/><circle cx="734.59" cy="141.76999999999998" r="12.89" fill="#fefefe"/><circle cx="760.36" cy="141.76999999999998" r="12.89" fill="#f6f7f8"/><circle cx="850.5749999999999" cy="128.875" r="25.775" fill="#fefefe"/><rect x="876.3499999999999" y="103.1" width="51.55" height="51.55" fill="#ffffff"/><circle cx="889.24" cy="115.99" r="12.89" fill="#fefefe"/><circle cx="889.24" cy="141.76999999999998" r="12.89" fill="#fefefe"/><circle cx="915.01" cy="141.76999999999998" r="12.89" fill="#f9f9fa"/><circle cx="953.675" cy="128.875" r="25.775" fill="#f5f6f7"/><circle cx="1005.225" cy="128.875" r="25.775" fill="#fefefe"/><rect x="51.55" y="154.64999999999998" width="51.55" height="51.55" fill="#ffffff"/><circle cx="64.44" cy="167.54000000000002" r="12.89" fill="#fbfcfc"/><circle cx="90.21" cy="193.32" r="12.89" fill="#fefefe"/><rect x="103.1" y="154.64999999999998" width="51.55" height="51.55" fill="#ffffff"/><circle cx="141.76999999999998" cy="167.54000000000002" r="12.89" fill="#f9f9fa"/><circle cx="141.76999999999998" cy="193.32" r="12.89" fill="#fafbfb"/><rect x="154.64999999999998" y="154.64999999999998" width="51.55" height="51.55" fill="#ffffff"/><circle cx="193.32" cy="167.54000000000002" r="12.89" fill="#fcfcfd"/><circle cx="167.54000000000002" cy="193.32" r="12.89" fill="#f6f7f8"/><circle cx="193.32" cy="193.32" r="12.89" fill="#fdfdfe"/><rect x="257.75" y="154.64999999999998" width="51.55" height="51.55" fill="#ffffff"/><circle cx="270.64" cy="193.32" r="12.89" fill="#f7f7f9"/><circle cx="296.40999999999997" cy="193.32" r="12.89" fill="#f6f7f8"/><rect x="309.29999999999995" y="154.64999999999998" width="51.55" height="51.55" fill="#ffffff"/><circle cx="322.19" cy="167.54000000000002" r="12.89" fill="#fefefe"/><circle cx="347.96" cy="167.54000000000002" r="12.89" fill="#fbfbfc"/><circle cx="322.19" cy="193.32" r="12.89" fill="#fdfdfe"/><circle cx="386.625" cy="180.425" r="25.775" fill="#fafbfb"/><rect x="412.4" y="154.64999999999998" width="51.55" height="51.55" fill="#ffffff"/><circle cx="425.28999999999996" cy="167.54000000000002" r="12.89" fill="#f7f8f9"/><circle cx="451.06" cy="167.54000000000002" r="12.89" fill="#fafafb"/><circle cx="425.28999999999996" cy="193.32" r="12.89" fill="#fefefe"/><circle cx="451.06" cy="193.32" r="12.89" fill="#f4f5f7"/><rect x="463.95" y="154.64999999999998" width="51.55" height="51.55" fill="#ffffff"/><circle cx="476.84" cy="167.54000000000002" r="12.89" fill="#fafafb"/><circle cx="502.62" cy="167.54000000000002" r="12.89" fill="#f5f6f8"/><circle cx="502.62" cy="193.32" r="12.89" fill="#f9f9fa"/><circle cx="541.275" cy="180.425" r="25.775" fill="#fdfdfd"/><rect x="567.05" y="154.64999999999998" width="51.55" height="51.55" fill="#ffffff"/><circle cx="579.9399999999999" cy="167.54000000000002" r="12.89" fill="#fafbfc"/><rect x="721.6999999999999" y="154.64999999999998" width="51.55" height="51.55" fill="#ffffff"/><circle cx="734.59" cy="167.54000000000002" r="12.89" fill="#fafafb"/><circle cx="760.36" cy="167.54000000000002" r="12.89" fill="#fbfcfc"/><circle cx="734.59" cy="193.32" r="12.89" fill="#f7f8f9"/><circle cx="760.36" cy="193.32" r="12.89" fill="#f9f9fa"/><rect x="773.25" y="154.64999999999998" width="51.55" height="51.55" fill="#ffffff"/><circle cx="786.14" cy="167.54000000000002" r="12.89" fill="#ffffff"/><circle cx="811.92" cy="167.54000000000002" r="12.89" fill="#fbfbfc"/><circle cx="786.14" cy="193.32" r="12.89" fill="#ffffff"/><circle cx="811.92" cy="193.32" r="12.89" fill="#f9fafb"/><circle cx="850.5749999999999" cy="180.425" r="25.775" fill="#fbfbfc"/><rect x="876.3499999999999" y="154.64999999999998" width="51.55" height="51.55" fill="#ffffff"/><circle cx="889.24" cy="193.32" r="12.89" fill="#f7f8f9"/><rect x="979.4499999999999" y="154.64999999999998" width="51.55" height="51.55" fill="#ffffff"/><circle cx="992.34" cy="167.54000000000002" r="12.89" fill="#f9f9fa"/><circle cx="1018.11" cy="167.54000000000002" r="12.89" fill="#fbfbfc"/><circle cx="992.34" cy="193.32" r="12.89" fill="#fafbfb"/><circle cx="1018.11" cy="193.32" r="12.89" fill="#f5f6f7"/><rect x="0" y="206.2" width="51.55" height="51.55" fill="#ffffff"/><circle cx="12.89" cy="219.08999999999997" r="12.89" fill="#fefefe"/><circle cx="38.67" cy="219.08999999999997" r="12.89" fill="#f7f8f9"/><circle cx="38.67" cy="244.87" r="12.89" fill="#f3f4f6"/><rect x="51.55" y="206.2" width="51.55" height="51.55" fill="#ffffff"/><circle cx="90.21" cy="219.08999999999997" r="12.89" fill="#f9fafb"/><circle cx="64.44" cy="244.87" r="12.89" fill="#f4f5f6"/><rect x="206.2" y="206.2" width="51.55" height="51.55" fill="#ffffff"/><circle cx="219.08999999999997" cy="219.08999999999997" r="12.89" fill="#fefeff"/><circle cx="244.87" cy="219.08999999999997" r="12.89" fill="#f7f8f9"/><circle cx="219.08999999999997" cy="244.87" r="12.89" fill="#f3f4f6"/><circle cx="244.87" cy="244.87" r="12.89" fill="#fafafb"/><rect x="257.75" y="206.2" width="51.55" height="51.55" fill="#ffffff"/><circle cx="270.64" cy="244.87" r="12.89" fill="#f5f6f8"/><circle cx="296.40999999999997" cy="244.87" r="12.89" fill="#f5f6f8"/><rect x="309.29999999999995" y="206.2" width="51.55" height="51.55" fill="#ffffff"/><circle cx="347.96" cy="219.08999999999997" r="12.89" fill="#f4f5f7"/><circle cx="322.19" cy="244.87" r="12.89" fill="#f7f8f9"/><rect x="412.4" y="206.2" width="51.55" height="51.55" fill="#ffffff"/><circle cx="451.06" cy="219.08999999999997" r="12.89" fill="#f8f8f9"/><circle cx="425.28999999999996" cy="244.87" r="12.89" fill="#fbfcfc"/><circle cx="451.06" cy="244.87" r="12.89" fill="#f4f5f7"/><rect x="515.5" y="206.2" width="51.55" height="51.55" fill="#ffffff"/><circle cx="528.39" cy="219.08999999999997" r="12.89" fill="#fefefe"/><circle cx="554.17" cy="219.08999999999997" r="12.89" fill="#fafbfc"/><circle cx="528.39" cy="244.87" r="12.89" fill="#f9fafb"/><circle cx="554.17" cy="244.87" r="12.89" fill="#f6f7f8"/><circle cx="644.375" cy="231.975" r="25.775" fill="#f8f9fa"/><rect x="721.6999999999999" y="206.2" width="51.55" height="51.55" fill="#ffffff"/><circle cx="734.59" cy="219.08999999999997" r="12.89" fill="#f9fafb"/><circle cx="799.025" cy="231.975" r="25.775" fill="#f6f6f8"/><rect x="876.3499999999999" y="206.2" width="51.55" height="51.55" fill="#ffffff"/><rect x="927.9" y="206.2" width="51.55" height="51.55" fill="#ffffff"/><circle cx="940.79" cy="219.08999999999997" r="12.89" fill="#fcfcfd"/><circle cx="966.5699999999999" cy="219.08999999999997" r="12.89" fill="#f5f5f7"/><circle cx="940.79" cy="244.87" r="12.89" fill="#f6f6f8"/><circle cx="966.5699999999999" cy="244.87" r="12.89" fill="#fefefe"/><rect x="979.4499999999999" y="206.2" width="51.55" height="51.55" fill="#ffffff"/><circle cx="992.34" cy="244.87" r="12.89" fill="#fafafb"/><circle cx="1018.11" cy="244.87" r="12.89" fill="#fdfdfd"/><rect x="0" y="257.75" width="51.55" height="51.55" fill="#ffffff"/><circle cx="12.89" cy="270.64" r="12.89" fill="#f6f7f9"/><circle cx="38.67" cy="296.40999999999997" r="12.89" fill="#fefefe"/><rect x="51.55" y="257.75" width="51.55" height="51.55" fill="#ffffff"/><circle cx="64.44" cy="270.64" r="12.89" fill="#fbfcfc"/><circle cx="64.44" cy="296.40999999999997" r="12.89" fill="#f5f6f7"/><circle cx="128.875" cy="283.525" r="25.775" fill="#f6f7f9"/><rect x="206.2" y="257.75" width="51.55" height="51.55" fill="#ffffff"/><circle cx="219.08999999999997" cy="270.64" r="12.89" fill="#f5f6f8"/><circle cx="244.87" cy="296.40999999999997" r="12.89" fill="#fefefe"/><rect x="360.84999999999997" y="257.75" width="51.55" height="51.55" fill="#ffffff"/><circle cx="373.74" cy="270.64" r="12.89" fill="#fefefe"/><circle cx="373.74" cy="296.40999999999997" r="12.89" fill="#fdfdfe"/><circle cx="399.51" cy="296.40999999999997" r="12.89" fill="#f5f6f7"/><circle cx="438.17499999999995" cy="283.525" r="25.775" fill="#fafafb"/><rect x="515.5" y="257.75" width="51.55" height="51.55" fill="#ffffff"/><circle cx="528.39" cy="270.64" r="12.89" fill="#f5f6f8"/><circle cx="554.17" cy="270.64" r="12.89" fill="#fefefe"/><circle cx="528.39" cy="296.40999999999997" r="12.89" fill="#f9f9fa"/><circle cx="554.17" cy="296.40999999999997" r="12.89" fill="#fdfdfd"/><rect x="567.05" y="257.75" width="51.55" height="51.55" fill="#ffffff"/><circle cx="605.71" cy="270.64" r="12.89" fill="#fefefe"/><circle cx="579.9399999999999" cy="296.40999999999997" r="12.89" fill="#f7f8f9"/><circle cx="605.71" cy="296.40999999999997" r="12.89" fill="#f7f8f9"/><rect x="618.5999999999999" y="257.75" width="51.55" height="51.55" fill="#ffffff"/><circle cx="657.26" cy="270.64" r="12.89" fill="#f8f8f9"/><circle cx="631.49" cy="296.40999999999997" r="12.89" fill="#ffffff"/><rect x="773.25" y="257.75" width="51.55" height="51.55" fill="#ffffff"/><circle cx="811.92" cy="270.64" r="12.89" fill="#f4f5f7"/><circle cx="786.14" cy="296.40999999999997" r="12.89" fill="#fdfdfe"/><circle cx="811.92" cy="296.40999999999997" r="12.89" fill="#ffffff"/><rect x="824.8" y="257.75" width="51.55" height="51.55" fill="#ffffff"/><circle cx="863.47" cy="270.64" r="12.89" fill="#f9f9fa"/><circle cx="837.6899999999999" cy="296.40999999999997" r="12.89" fill="#f6f7f8"/><circle cx="863.47" cy="296.40999999999997" r="12.89" fill="#fcfcfd"/><circle cx="902.125" cy="283.525" r="25.775" fill="#fefefe"/><rect x="927.9" y="257.75" width="51.55" height="51.55" fill="#ffffff"/><circle cx="940.79" cy="270.64" r="12.89" fill="#f8f8fa"/><circle cx="966.5699999999999" cy="270.64" r="12.89" fill="#f9f9fa"/><circle cx="966.5699999999999" cy="296.40999999999997" r="12.89" fill="#ffffff"/><rect x="979.4499999999999" y="257.75" width="51.55" height="51.55" fill="#ffffff"/><circle cx="992.34" cy="296.40999999999997" r="12.89" fill="#fafbfb"/><circle cx="1018.11" cy="296.40999999999997" r="12.89" fill="#f8f8fa"/></g></svg>