<?xml version="1.0" standalone="no"?><svg xmlns:xlink="http://www.w3.org/1999/xlink" xmlns="http://www.w3.org/2000/svg" viewBox="0 0 1000 299.9970902036858" preserveAspectRatio="xMaxYMax slice"><g transform="scale(0.9699321047526673)"><rect x="0" y="0" width="1031" height="309.29999999999995" fill="#ffffff"/><rect x="0" y="0" width="51.55" height="51.55" fill="#ffffff"/><g transform="translate(0,0) scale(1.2890000000000001) rotate(0)"><path d="M10 5L5 0L0 5L5 10L0 15L5 20L10 15L15 20L20 15L15 10L20 5L15 0L10 5Z" fill="#f5f6f8"/></g><g transform="translate(25.78,0) scale(1.2890000000000001) rotate(0)"><path d="M10 5L5 0L0 5L5 10L0 15L5 20L10 15L15 20L20 15L15 10L20 5L15 0L10 5Z" fill="#f7f7f9"/></g><g transform="translate(0,25.78) scale(1.2890000000000001) rotate(0)"><path d="M10 5L5 0L0 5L5 10L0 15L5 20L10 15L15 20L20 15L15 10L20 5L15 0L10 5Z" fill="#f9f9fa"/></g><g transform="translate(25.78,25.78) scale(1.2890000000000001) rotate(0)"><path d="M10 5L5 0L0 5L5 10L0 15L5 20L10 15L15 20L20 15L15 10L20 5L15 0L10 5Z" fill="#f4f5f6"/></g><rect x="51.55" y="0" width="51.55" height="51.55" fill="#ffffff"/><g transform="translate(77.32,0) scale(1.2890000000000001) rotate(0)"><path d="M10 5L5 0L0 5L5 10L0 15L5 20L10 15L15 20L20 15L15 10L20 5L15 0L10 5Z" fill="#f7f8f9"/></g><rect x="154.64999999999998" y="0" width="51.55" height="51.55" fill="#ffffff"/><g transform="translate(154.65,0) scale(1.2890000000000001) rotate(0)"><path d="M10 5L5 0L0 5L5 10L0 15L5 20L10 15L15 20L20 15L15 10L20 5L15 0L10 5Z" fill="#ffffff"/></g><g transform="translate(180.43,0) scale(1.2890000000000001) rotate(0)"><path d="M10 5L5 0L0 5L5 10L0 15L5 20L10 15L15 20L20 15L15 10L20 5L15 0L10 5Z" fill="#fcfcfd"/></g><g transform="translate(180.43,25.78) scale(1.2890000000000001) rotate(0)"><path d="M10 5L5 0L0 5L5 10L0 15L5 20L10 15L15 20L20 15L15 10L20 5L15 0L10 5Z" fill="#fcfdfd"/></g><rect x="206.2" y="0" width="51.55" height="51.55" fill="#ffffff"/><g transform="translate(206.2,0) scale(1.2890000000000001) rotate(0)"><path d="M10 5L5 0L0 5L5 10L0 15L5 20L10 15L15 20L20 15L15 10L20 5L15 0L10 5Z" fill="#fcfcfc"/></g><g transform="translate(206.2,25.78) scale(1.2890000000000001) rotate(0)"><path d="M10 5L5 0L0 5L5 10L0 15L5 20L10 15L15 20L20 15L15 10L20 5L15 0L10 5Z" fill="#feffff"/></g><g transform="translate(231.98,25.78) scale(1.2890000000000001) rotate(0)"><path d="M10 5L5 0L0 5L5 10L0 15L5 20L10 15L15 20L20 15L15 10L20 5L15 0L10 5Z" fill="#ffffff"/></g><rect x="309.29999999999995" y="0" width="51.55" height="51.55" fill="#ffffff"/><g transform="translate(335.07,0) scale(1.2890000000000001) rotate(0)"><path d="M10 5L5 0L0 5L5 10L0 15L5 20L10 15L15 20L20 15L15 10L20 5L15 0L10 5Z" fill="#fdfdfd"/></g><g transform="translate(335.07,25.78) scale(1.2890000000000001) rotate(0)"><path d="M10 5L5 0L0 5L5 10L0 15L5 20L10 15L15 20L20 15L15 10L20 5L15 0L10 5Z" fill="#f8f9fa"/></g><g transform="translate(412.4,0) scale(2.5774999999999997) rotate(0)"><path d="M10 5L5 0L0 5L5 10L0 15L5 20L10 15L15 20L20 15L15 10L20 5L15 0L10 5Z" fill="#f4f5f7"/></g><rect x="463.95" y="0" width="51.55" height="51.55" fill="#ffffff"/><g transform="translate(489.73,0) scale(1.2890000000000001) rotate(0)"><path d="M10 5L5 0L0 5L5 10L0 15L5 20L10 15L15 20L20 15L15 10L20 5L15 0L10 5Z" fill="#f4f5f7"/></g><rect x="515.5" y="0" width="51.55" height="51.55" fill="#ffffff"/><g transform="translate(515.5,0) scale(1.2890000000000001) rotate(0)"><path d="M10 5L5 0L0 5L5 10L0 15L5 20L10 15L15 20L20 15L15 10L20 5L15 0L10 5Z" fill="#f8f9fa"/></g><g transform="translate(541.28,0) scale(1.2890000000000001) rotate(0)"><path d="M10 5L5 0L0 5L5 10L0 15L5 20L10 15L15 20L20 15L15 10L20 5L15 0L10 5Z" fill="#f7f8f9"/></g><g transform="translate(541.28,25.78) scale(1.2890000000000001) rotate(0)"><path d="M10 5L5 0L0 5L5 10L0 15L5 20L10 15L15 20L20 15L15 10L20 5L15 0L10 5Z" fill="#fafbfb"/></g><rect x="773.25" y="0" width="51.55" height="51.55" fill="#ffffff"/><g transform="translate(773.25,0) scale(1.2890000000000001) rotate(0)"><path d="M10 5L5 0L0 5L5 10L0 15L5 20L10 15L15 20L20 15L15 10L20 5L15 0L10 5Z" fill="#f4f5f7"/></g><g transform="translate(799.03,0) scale(1.2890000000000001) rotate(0)"><path d="M10 5L5 0L0 5L5 10L0 15L5 20L10 15L15 20L20 15L15 10L20 5L15 0L10 5Z" fill="#f7f7f9"/></g><rect x="979.4499999999999" y="0" width="51.55" height="51.55" fill="#ffffff"/><g transform="translate(979.45,0) scale(1.2890000000000001) rotate(0)"><path d="M10 5L5 0L0 5L5 10L0 15L5 20L10 15L15 20L20 15L15 10L20 5L15 0L10 5Z" fill="#fafbfb"/></g><g transform="translate(1005.22,0) scale(1.2890000000000001) rotate(0)"><path d="M10 5L5 0L0 5L5 10L0 15L5 20L10 15L15 20L20 15L15 10L20 5L15 0L10 5Z" fill="#f6f6f8"/></g><g transform="translate(979.45,25.78) scale(1.2890000000000001) rotate(0)"><path d="M10 5L5 0L0 5L5 10L0 15L5 20L10 15L15 20L20 15L15 10L20 5L15 0L10 5Z" fill="#f4f5f7"/></g><g transform="translate(1005.22,25.78) scale(1.2890000000000001) rotate(0)"><path d="M10 5L5 0L0 5L5 10L0 15L5 20L10 15L15 20L20 15L15 10L20 5L15 0L10 5Z" fill="#fbfbfc"/></g><rect x="0" y="51.55" width="51.55" height="51.55" fill="#ffffff"/><g transform="translate(0,51.55) scale(1.2890000000000001) rotate(0)"><path d="M10 5L5 0L0 5L5 10L0 15L5 20L10 15L15 20L20 15L15 10L20 5L15 0L10 5Z" fill="#fcfcfd"/></g><g transform="translate(0,77.32) scale(1.2890000000000001) rotate(0)"><path d="M10 5L5 0L0 5L5 10L0 15L5 20L10 15L15 20L20 15L15 10L20 5L15 0L10 5Z" fill="#fefefe"/></g><g transform="translate(25.78,77.32) scale(1.2890000000000001) rotate(0)"><path d="M10 5L5 0L0 5L5 10L0 15L5 20L10 15L15 20L20 15L15 10L20 5L15 0L10 5Z" fill="#fefefe"/></g><g transform="translate(103.1,51.55) scale(2.5774999999999997) rotate(0)"><path d="M10 5L5 0L0 5L5 10L0 15L5 20L10 15L15 20L20 15L15 10L20 5L15 0L10 5Z" fill="#f7f7f9"/></g><rect x="206.2" y="51.55" width="51.55" height="51.55" fill="#ffffff"/><g transform="translate(206.2,51.55) scale(1.2890000000000001) rotate(0)"><path d="M10 5L5 0L0 5L5 10L0 15L5 20L10 15L15 20L20 15L15 10L20 5L15 0L10 5Z" fill="#fafbfc"/></g><g transform="translate(231.98,51.55) scale(1.2890000000000001) rotate(0)"><path d="M10 5L5 0L0 5L5 10L0 15L5 20L10 15L15 20L20 15L15 10L20 5L15 0L10 5Z" fill="#f9fafb"/></g><g transform="translate(231.98,77.32) scale(1.2890000000000001) rotate(0)"><path d="M10 5L5 0L0 5L5 10L0 15L5 20L10 15L15 20L20 15L15 10L20 5L15 0L10 5Z" fill="#f9fafb"/></g><rect x="257.75" y="51.55" width="51.55" height="51.55" fill="#ffffff"/><g transform="translate(257.75,77.32) scale(1.2890000000000001) rotate(0)"><path d="M10 5L5 0L0 5L5 10L0 15L5 20L10 15L15 20L20 15L15 10L20 5L15 0L10 5Z" fill="#fdfdfe"/></g><g transform="translate(283.52,77.32) scale(1.2890000000000001) rotate(0)"><path d="M10 5L5 0L0 5L5 10L0 15L5 20L10 15L15 20L20 15L15 10L20 5L15 0L10 5Z" fill="#f4f5f6"/></g><rect x="360.84999999999997" y="51.55" width="51.55" height="51.55" fill="#ffffff"/><g transform="translate(360.85,77.32) scale(1.2890000000000001) rotate(0)"><path d="M10 5L5 0L0 5L5 10L0 15L5 20L10 15L15 20L20 15L15 10L20 5L15 0L10 5Z" fill="#ffffff"/></g><g transform="translate(386.62,77.32) scale(1.2890000000000001) rotate(0)"><path d="M10 5L5 0L0 5L5 10L0 15L5 20L10 15L15 20L20 15L15 10L20 5L15 0L10 5Z" fill="#f9fafb"/></g><g transform="translate(412.4,51.55) scale(2.5774999999999997) rotate(0)"><path d="M10 5L5 0L0 5L5 10L0 15L5 20L10 15L15 20L20 15L15 10L20 5L15 0L10 5Z" fill="#f4f5f6"/></g><rect x="567.05" y="51.55" width="51.55" height="51.55" fill="#ffffff"/><g transform="translate(567.05,51.55) scale(1.2890000000000001) rotate(0)"><path d="M10 5L5 0L0 5L5 10L0 15L5 20L10 15L15 20L20 15L15 10L20 5L15 0L10 5Z" fill="#f6f6f8"/></g><g transform="translate(592.82,51.55) scale(1.2890000000000001) rotate(0)"><path d="M10 5L5 0L0 5L5 10L0 15L5 20L10 15L15 20L20 15L15 10L20 5L15 0L10 5Z" fill="#fefefe"/></g><g transform="translate(567.05,77.32) scale(1.2890000000000001) rotate(0)"><path d="M10 5L5 0L0 5L5 10L0 15L5 20L10 15L15 20L20 15L15 10L20 5L15 0L10 5Z" fill="#f9f9fa"/></g><g transform="translate(592.82,77.32) scale(1.2890000000000001) rotate(0)"><path d="M10 5L5 0L0 5L5 10L0 15L5 20L10 15L15 20L20 15L15 10L20 5L15 0L10 5Z" fill="#f4f5f7"/></g><rect x="618.5999999999999" y="51.55" width="51.55" height="51.55" fill="#ffffff"/><g transform="translate(618.6,77.32) scale(1.2890000000000001) rotate(0)"><path d="M10 5L5 0L0 5L5 10L0 15L5 20L10 15L15 20L20 15L15 10L20 5L15 0L10 5Z" fill="#fbfbfc"/></g><g transform="translate(644.37,77.32) scale(1.2890000000000001) rotate(0)"><path d="M10 5L5 0L0 5L5 10L0 15L5 20L10 15L15 20L20 15L15 10L20 5L15 0L10 5Z" fill="#f6f7f8"/></g><rect x="721.6999999999999" y="51.55" width="51.55" height="51.55" fill="#ffffff"/><g transform="translate(721.7,51.55) scale(1.2890000000000001) rotate(0)"><path d="M10 5L5 0L0 5L5 10L0 15L5 20L10 15L15 20L20 15L15 10L20 5L15 0L10 5Z" fill="#f7f7f9"/></g><g transform="translate(721.7,77.32) scale(1.2890000000000001) rotate(0)"><path d="M10 5L5 0L0 5L5 10L0 15L5 20L10 15L15 20L20 15L15 10L20 5L15 0L10 5Z" fill="#fdfdfd"/></g><g transform="translate(747.47,77.32) scale(1.2890000000000001) rotate(0)"><path d="M10 5L5 0L0 5L5 10L0 15L5 20L10 15L15 20L20 15L15 10L20 5L15 0L10 5Z" fill="#fcfcfd"/></g><g transform="translate(824.8,51.55) scale(2.5774999999999997) rotate(0)"><path d="M10 5L5 0L0 5L5 10L0 15L5 20L10 15L15 20L20 15L15 10L20 5L15 0L10 5Z" fill="#fdfdfd"/></g><g transform="translate(876.35,51.55) scale(2.5774999999999997) rotate(0)"><path d="M10 5L5 0L0 5L5 10L0 15L5 20L10 15L15 20L20 15L15 10L20 5L15 0L10 5Z" fill="#fbfbfc"/></g><rect x="927.9" y="51.55" width="51.55" height="51.55" fill="#ffffff"/><g transform="translate(927.9,51.55) scale(1.2890000000000001) rotate(0)"><path d="M10 5L5 0L0 5L5 10L0 15L5 20L10 15L15 20L20 15L15 10L20 5L15 0L10 5Z" fill="#fafafb"/></g><g transform="translate(953.68,51.55) scale(1.2890000000000001) rotate(0)"><path d="M10 5L5 0L0 5L5 10L0 15L5 20L10 15L15 20L20 15L15 10L20 5L15 0L10 5Z" fill="#fafbfb"/></g><g transform="translate(953.68,77.32) scale(1.2890000000000001) rotate(0)"><path d="M10 5L5 0L0 5L5 10L0 15L5 20L10 15L15 20L20 15L15 10L20 5L15 0L10 5Z" fill="#f6f7f8"/></g><rect x="51.55" y="103.1" width="51.55" height="51.55" fill="#ffffff"/><g transform="translate(51.55,103.1) scale(1.2890000000000001) rotate(0)"><path d="M10 5L5 0L0 5L5 10L0 15L5 20L10 15L15 20L20 15L15 10L20 5L15 0L10 5Z" fill="#ffffff"/></g><g transform="translate(77.32,128.88) scale(1.2890000000000001) rotate(0)"><path d="M10 5L5 0L0 5L5 10L0 15L5 20L10 15L15 20L20 15L15 10L20 5L15 0L10 5Z" fill="#f3f4f6"/></g><rect x="103.1" y="103.1" width="51.55" height="51.55" fill="#ffffff"/><g transform="translate(103.1,103.1) scale(1.2890000000000001) rotate(0)"><path d="M10 5L5 0L0 5L5 10L0 15L5 20L10 15L15 20L20 15L15 10L20 5L15 0L10 5Z" fill="#fafafb"/></g><g transform="translate(128.88,103.1) scale(1.2890000000000001) rotate(0)"><path d="M10 5L5 0L0 5L5 10L0 15L5 20L10 15L15 20L20 15L15 10L20 5L15 0L10 5Z" fill="#ffffff"/></g><g transform="translate(103.1,128.88) scale(1.2890000000000001) rotate(0)"><path d="M10 5L5 0L0 5L5 10L0 15L5 20L10 15L15 20L20 15L15 10L20 5L15 0L10 5Z" fill="#f7f7f9"/></g><g transform="translate(128.88,128.88) scale(1.2890000000000001) rotate(0)"><path d="M10 5L5 0L0 5L5 10L0 15L5 20L10 15L15 20L20 15L15 10L20 5L15 0L10 5Z" fill="#fafbfb"/></g><rect x="206.2" y="103.1" width="51.55" height="51.55" fill="#ffffff"/><g transform="translate(206.2,103.1) scale(1.2890000000000001) rotate(0)"><path d="M10 5L5 0L0 5L5 10L0 15L5 20L10 15L15 20L20 15L15 10L20 5L15 0L10 5Z" fill="#fefefe"/></g><rect x="309.29999999999995" y="103.1" width="51.55" height="51.55" fill="#ffffff"/><g transform="translate(309.3,103.1) scale(1.2890000000000001) rotate(0)"><path d="M10 5L5 0L0 5L5 10L0 15L5 20L10 15L15 20L20 15L15 10L20 5L15 0L10 5Z" fill="#f8f9fa"/></g><g transform="translate(335.07,103.1) scale(1.2890000000000001) rotate(0)"><path d="M10 5L5 0L0 5L5 10L0 15L5 20L10 15L15 20L20 15L15 10L20 5L15 0L10 5Z" fill="#f4f5f7"/></g><g transform="translate(335.07,128.88) scale(1.2890000000000001) rotate(0)"><path d="M10 5L5 0L0 5L5 10L0 15L5 20L10 15L15 20L20 15L15 10L20 5L15 0L10 5Z" fill="#f6f7f8"/></g><g transform="translate(412.4,103.1) scale(2.5774999999999997) rotate(0)"><path d="M10 5L5 0L0 5L5 10L0 15L5 20L10 15L15 20L20 15L15 10L20 5L15 0L10 5Z" fill="#fafafb"/></g><rect x="463.95" y="103.1" width="51.55" height="51.55" fill="#ffffff"/><g transform="translate(463.95,103.1) scale(1.2890000000000001) rotate(0)"><path d="M10 5L5 0L0 5L5 10L0 15L5 20L10 15L15 20L20 15L15 10L20 5L15 0L10 5Z" fill="#fcfcfc"/></g><g transform="translate(489.73,103.1) scale(1.2890000000000001) rotate(0)"><path d="M10 5L5 0L0 5L5 10L0 15L5 20L10 15L15 20L20 15L15 10L20 5L15 0L10 5Z" fill="#f4f5f7"/></g><g transform="translate(463.95,128.88) scale(1.2890000000000001) rotate(0)"><path d="M10 5L5 0L0 5L5 10L0 15L5 20L10 15L15 20L20 15L15 10L20 5L15 0L10 5Z" fill="#fafafb"/></g><rect x="515.5" y="103.1" width="51.55" height="51.55" fill="#ffffff"/><g transform="translate(515.5,103.1) scale(1.2890000000000001) rotate(0)"><path d="M10 5L5 0L0 5L5 10L0 15L5 20L10 15L15 20L20 15L15 10L20 5L15 0L10 5Z" fill="#f3f4f6"/></g><g transform="translate(515.5,128.88) scale(1.2890000000000001) rotate(0)"><path d="M10 5L5 0L0 5L5 10L0 15L5 20L10 15L15 20L20 15L15 10L20 5L15 0L10 5Z" fill="#ffffff"/></g><g transform="translate(618.6,103.1) scale(2.5774999999999997) rotate(0)"><path d="M10 5L5 0L0 5L5 10L0 15L5 20L10 15L15 20L20 15L15 10L20 5L15 0L10 5Z" fill="#fcfcfd"/></g><rect x="721.6999999999999" y="103.1" width="51.55" height="51.55" fill="#ffffff"/><g transform="translate(747.47,103.1) scale(1.2890000000000001) rotate(0)"><path d="M10 5L5 0L0 5L5 10L0 15L5 20L10 15L15 20L20 15L15 10L20 5L15 0L10 5Z" fill="#fdfdfd"/></g><g transform="translate(747.47,128.88) scale(1.2890000000000001) rotate(0)"><path d="M10 5L5 0L0 5L5 10L0 15L5 20L10 15L15 20L20 15L15 10L20 5L15 0L10 5Z" fill="#f6f7f8"/></g><g transform="translate(773.25,103.1) scale(2.5774999999999997) rotate(0)"><path d="M10 5L5 0L0 5L5 10L0 15L5 20L10 15L15 20L20 15L15 10L20 5L15 0L10 5Z" fill="#f8f8fa"/></g><rect x="824.8" y="103.1" width="51.55" height="51.55" fill="#ffffff"/><g transform="translate(824.8,103.1) scale(1.2890000000000001) rotate(0)"><path d="M10 5L5 0L0 5L5 10L0 15L5 20L10 15L15 20L20 15L15 10L20 5L15 0L10 5Z" fill="#fafbfc"/></g><g transform="translate(824.8,128.88) scale(1.2890000000000001) rotate(0)"><path d="M10 5L5 0L0 5L5 10L0 15L5 20L10 15L15 20L20 15L15 10L20 5L15 0L10 5Z" fill="#f9fafb"/></g><g transform="translate(850.58,128.88) scale(1.2890000000000001) rotate(0)"><path d="M10 5L5 0L0 5L5 10L0 15L5 20L10 15L15 20L20 15L15 10L20 5L15 0L10 5Z" fill="#f6f7f9"/></g><g transform="translate(927.9,103.1) scale(2.5774999999999997) rotate(0)"><path d="M10 5L5 0L0 5L5 10L0 15L5 20L10 15L15 20L20 15L15 10L20 5L15 0L10 5Z" fill="#f8f8f9"/></g><rect x="979.4499999999999" y="103.1" width="51.55" height="51.55" fill="#ffffff"/><g transform="translate(979.45,103.1) scale(1.2890000000000001) rotate(0)"><path d="M10 5L5 0L0 5L5 10L0 15L5 20L10 15L15 20L20 15L15 10L20 5L15 0L10 5Z" fill="#f8f9fa"/></g><g transform="translate(1005.22,103.1) scale(1.2890000000000001) rotate(0)"><path d="M10 5L5 0L0 5L5 10L0 15L5 20L10 15L15 20L20 15L15 10L20 5L15 0L10 5Z" fill="#f9fafb"/></g><g transform="translate(979.45,128.88) scale(1.2890000000000001) rotate(0)"><path d="M10 5L5 0L0 5L5 10L0 15L5 20L10 15L15 20L20 15L15 10L20 5L15 0L10 5Z" fill="#f4f5f7"/></g><g transform="translate(1005.22,128.88) scale(1.2890000000000001) rotate(0)"><path d="M10 5L5 0L0 5L5 10L0 15L5 20L10 15L15 20L20 15L15 10L20 5L15 0L10 5Z" fill="#f6f6f8"/></g><rect x="51.55" y="154.64999999999998" width="51.55" height="51.55" fill="#ffffff"/><g transform="translate(77.32,154.65) scale(1.2890000000000001) rotate(0)"><path d="M10 5L5 0L0 5L5 10L0 15L5 20L10 15L15 20L20 15L15 10L20 5L15 0L10 5Z" fill="#ffffff"/></g><g transform="translate(51.55,180.43) scale(1.2890000000000001) rotate(0)"><path d="M10 5L5 0L0 5L5 10L0 15L5 20L10 15L15 20L20 15L15 10L20 5L15 0L10 5Z" fill="#fefefe"/></g><g transform="translate(77.32,180.43) scale(1.2890000000000001) rotate(0)"><path d="M10 5L5 0L0 5L5 10L0 15L5 20L10 15L15 20L20 15L15 10L20 5L15 0L10 5Z" fill="#f9f9fa"/></g><g transform="translate(206.2,154.65) scale(2.5774999999999997) rotate(0)"><path d="M10 5L5 0L0 5L5 10L0 15L5 20L10 15L15 20L20 15L15 10L20 5L15 0L10 5Z" fill="#fbfbfc"/></g><g transform="translate(257.75,154.65) scale(2.5774999999999997) rotate(0)"><path d="M10 5L5 0L0 5L5 10L0 15L5 20L10 15L15 20L20 15L15 10L20 5L15 0L10 5Z" fill="#f9f9fa"/></g><g transform="translate(360.85,154.65) scale(2.5774999999999997) rotate(0)"><path d="M10 5L5 0L0 5L5 10L0 15L5 20L10 15L15 20L20 15L15 10L20 5L15 0L10 5Z" fill="#f9f9fa"/></g><rect x="463.95" y="154.64999999999998" width="51.55" height="51.55" fill="#ffffff"/><g transform="translate(489.73,180.43) scale(1.2890000000000001) rotate(0)"><path d="M10 5L5 0L0 5L5 10L0 15L5 20L10 15L15 20L20 15L15 10L20 5L15 0L10 5Z" fill="#f9f9fa"/></g><rect x="515.5" y="154.64999999999998" width="51.55" height="51.55" fill="#ffffff"/><g transform="translate(515.5,154.65) scale(1.2890000000000001) rotate(0)"><path d="M10 5L5 0L0 5L5 10L0 15L5 20L10 15L15 20L20 15L15 10L20 5L15 0L10 5Z" fill="#fdfdfd"/></g><g transform="translate(515.5,180.43) scale(1.2890000000000001) rotate(0)"><path d="M10 5L5 0L0 5L5 10L0 15L5 20L10 15L15 20L20 15L15 10L20 5L15 0L10 5Z" fill="#f5f6f8"/></g><g transform="translate(541.28,180.43) scale(1.2890000000000001) rotate(0)"><path d="M10 5L5 0L0 5L5 10L0 15L5 20L10 15L15 20L20 15L15 10L20 5L15 0L10 5Z" fill="#f9f9fa"/></g><rect x="567.05" y="154.64999999999998" width="51.55" height="51.55" fill="#ffffff"/><g transform="translate(567.05,180.43) scale(1.2890000000000001) rotate(0)"><path d="M10 5L5 0L0 5L5 10L0 15L5 20L10 15L15 20L20 15L15 10L20 5L15 0L10 5Z" fill="#f5f6f7"/></g><g transform="translate(592.82,180.43) scale(1.2890000000000001) rotate(0)"><path d="M10 5L5 0L0 5L5 10L0 15L5 20L10 15L15 20L20 15L15 10L20 5L15 0L10 5Z" fill="#fcfcfd"/></g><rect x="618.5999999999999" y="154.64999999999998" width="51.55" height="51.55" fill="#ffffff"/><g transform="translate(618.6,180.43) scale(1.2890000000000001) rotate(0)"><path d="M10 5L5 0L0 5L5 10L0 15L5 20L10 15L15 20L20 15L15 10L20 5L15 0L10 5Z" fill="#f6f6f8"/></g><g transform="translate(644.37,180.43) scale(1.2890000000000001) rotate(0)"><path d="M10 5L5 0L0 5L5 10L0 15L5 20L10 15L15 20L20 15L15 10L20 5L15 0L10 5Z" fill="#f9fafb"/></g><g transform="translate(721.7,154.65) scale(2.5774999999999997) rotate(0)"><path d="M10 5L5 0L0 5L5 10L0 15L5 20L10 15L15 20L20 15L15 10L20 5L15 0L10 5Z" fill="#fdfdfd"/></g><g transform="translate(773.25,154.65) scale(2.5774999999999997) rotate(0)"><path d="M10 5L5 0L0 5L5 10L0 15L5 20L10 15L15 20L20 15L15 10L20 5L15 0L10 5Z" fill="#f6f7f8"/></g><g transform="translate(824.8,154.65) scale(2.5774999999999997) rotate(0)"><path d="M10 5L5 0L0 5L5 10L0 15L5 20L10 15L15 20L20 15L15 10L20 5L15 0L10 5Z" fill="#f6f7f8"/></g><rect x="979.4499999999999" y="154.64999999999998" width="51.55" height="51.55" fill="#ffffff"/><g transform="translate(979.45,154.65) scale(1.2890000000000001) rotate(0)"><path d="M10 5L5 0L0 5L5 10L0 15L5 20L10 15L15 20L20 15L15 10L20 5L15 0L10 5Z" fill="#f4f5f7"/></g><g transform="translate(1005.22,154.65) scale(1.2890000000000001) rotate(0)"><path d="M10 5L5 0L0 5L5 10L0 15L5 20L10 15L15 20L20 15L15 10L20 5L15 0L10 5Z" fill="#fefefe"/></g><g transform="translate(1005.22,180.43) scale(1.2890000000000001) rotate(0)"><path d="M10 5L5 0L0 5L5 10L0 15L5 20L10 15L15 20L20 15L15 10L20 5L15 0L10 5Z" fill="#fbfbfc"/></g><rect x="0" y="206.2" width="51.55" height="51.55" fill="#ffffff"/><g transform="translate(0,206.2) scale(1.2890000000000001) rotate(0)"><path d="M10 5L5 0L0 5L5 10L0 15L5 20L10 15L15 20L20 15L15 10L20 5L15 0L10 5Z" fill="#f9fafb"/></g><g transform="translate(25.78,206.2) scale(1.2890000000000001) rotate(0)"><path d="M10 5L5 0L0 5L5 10L0 15L5 20L10 15L15 20L20 15L15 10L20 5L15 0L10 5Z" fill="#f8f8fa"/></g><g transform="translate(25.78,231.98) scale(1.2890000000000001) rotate(0)"><path d="M10 5L5 0L0 5L5 10L0 15L5 20L10 15L15 20L20 15L15 10L20 5L15 0L10 5Z" fill="#ffffff"/></g><g transform="translate(154.65,206.2) scale(2.5774999999999997) rotate(0)"><path d="M10 5L5 0L0 5L5 10L0 15L5 20L10 15L15 20L20 15L15 10L20 5L15 0L10 5Z" fill="#f5f6f8"/></g><rect x="206.2" y="206.2" width="51.55" height="51.55" fill="#ffffff"/><g transform="translate(231.98,206.2) scale(1.2890000000000001) rotate(0)"><path d="M10 5L5 0L0 5L5 10L0 15L5 20L10 15L15 20L20 15L15 10L20 5L15 0L10 5Z" fill="#f3f4f6"/></g><g transform="translate(206.2,231.98) scale(1.2890000000000001) rotate(0)"><path d="M10 5L5 0L0 5L5 10L0 15L5 20L10 15L15 20L20 15L15 10L20 5L15 0L10 5Z" fill="#fafafb"/></g><g transform="translate(231.98,231.98) scale(1.2890000000000001) rotate(0)"><path d="M10 5L5 0L0 5L5 10L0 15L5 20L10 15L15 20L20 15L15 10L20 5L15 0L10 5Z" fill="#fafafb"/></g><rect x="257.75" y="206.2" width="51.55" height="51.55" fill="#ffffff"/><g transform="translate(257.75,206.2) scale(1.2890000000000001) rotate(0)"><path d="M10 5L5 0L0 5L5 10L0 15L5 20L10 15L15 20L20 15L15 10L20 5L15 0L10 5Z" fill="#fafafb"/></g><g transform="translate(283.52,231.98) scale(1.2890000000000001) rotate(0)"><path d="M10 5L5 0L0 5L5 10L0 15L5 20L10 15L15 20L20 15L15 10L20 5L15 0L10 5Z" fill="#f4f5f7"/></g><rect x="309.29999999999995" y="206.2" width="51.55" height="51.55" fill="#ffffff"/><rect x="360.84999999999997" y="206.2" width="51.55" height="51.55" fill="#ffffff"/><g transform="translate(360.85,206.2) scale(1.2890000000000001) rotate(0)"><path d="M10 5L5 0L0 5L5 10L0 15L5 20L10 15L15 20L20 15L15 10L20 5L15 0L10 5Z" fill="#fbfbfc"/></g><g transform="translate(360.85,231.98) scale(1.2890000000000001) rotate(0)"><path d="M10 5L5 0L0 5L5 10L0 15L5 20L10 15L15 20L20 15L15 10L20 5L15 0L10 5Z" fill="#fefefe"/></g><g transform="translate(386.62,231.98) scale(1.2890000000000001) rotate(0)"><path d="M10 5L5 0L0 5L5 10L0 15L5 20L10 15L15 20L20 15L15 10L20 5L15 0L10 5Z" fill="#f6f6f8"/></g><rect x="463.95" y="206.2" width="51.55" height="51.55" fill="#ffffff"/><g transform="translate(463.95,206.2) scale(1.2890000000000001) rotate(0)"><path d="M10 5L5 0L0 5L5 10L0 15L5 20L10 15L15 20L20 15L15 10L20 5L15 0L10 5Z" fill="#f5f6f7"/></g><g transform="translate(489.73,206.2) scale(1.2890000000000001) rotate(0)"><path d="M10 5L5 0L0 5L5 10L0 15L5 20L10 15L15 20L20 15L15 10L20 5L15 0L10 5Z" fill="#f8f9fa"/></g><g transform="translate(463.95,231.98) scale(1.2890000000000001) rotate(0)"><path d="M10 5L5 0L0 5L5 10L0 15L5 20L10 15L15 20L20 15L15 10L20 5L15 0L10 5Z" fill="#f9fafb"/></g><g transform="translate(489.73,231.98) scale(1.2890000000000001) rotate(0)"><path d="M10 5L5 0L0 5L5 10L0 15L5 20L10 15L15 20L20 15L15 10L20 5L15 0L10 5Z" fill="#fefefe"/></g><rect x="567.05" y="206.2" width="51.55" height="51.55" fill="#ffffff"/><g transform="translate(592.82,206.2) scale(1.2890000000000001) rotate(0)"><path d="M10 5L5 0L0 5L5 10L0 15L5 20L10 15L15 20L20 15L15 10L20 5L15 0L10 5Z" fill="#f4f5f7"/></g><g transform="translate(567.05,231.98) scale(1.2890000000000001) rotate(0)"><path d="M10 5L5 0L0 5L5 10L0 15L5 20L10 15L15 20L20 15L15 10L20 5L15 0L10 5Z" fill="#fafbfc"/></g><g transform="translate(592.82,231.98) scale(1.2890000000000001) rotate(0)"><path d="M10 5L5 0L0 5L5 10L0 15L5 20L10 15L15 20L20 15L15 10L20 5L15 0L10 5Z" fill="#f8f9fa"/></g><rect x="670.15" y="206.2" width="51.55" height="51.55" fill="#ffffff"/><g transform="translate(670.15,206.2) scale(1.2890000000000001) rotate(0)"><path d="M10 5L5 0L0 5L5 10L0 15L5 20L10 15L15 20L20 15L15 10L20 5L15 0L10 5Z" fill="#f3f4f6"/></g><g transform="translate(695.93,206.2) scale(1.2890000000000001) rotate(0)"><path d="M10 5L5 0L0 5L5 10L0 15L5 20L10 15L15 20L20 15L15 10L20 5L15 0L10 5Z" fill="#fbfbfc"/></g><g transform="translate(670.15,231.98) scale(1.2890000000000001) rotate(0)"><path d="M10 5L5 0L0 5L5 10L0 15L5 20L10 15L15 20L20 15L15 10L20 5L15 0L10 5Z" fill="#fbfbfc"/></g><g transform="translate(695.93,231.98) scale(1.2890000000000001) rotate(0)"><path d="M10 5L5 0L0 5L5 10L0 15L5 20L10 15L15 20L20 15L15 10L20 5L15 0L10 5Z" fill="#feffff"/></g><rect x="721.6999999999999" y="206.2" width="51.55" height="51.55" fill="#ffffff"/><g transform="translate(721.7,206.2) scale(1.2890000000000001) rotate(0)"><path d="M10 5L5 0L0 5L5 10L0 15L5 20L10 15L15 20L20 15L15 10L20 5L15 0L10 5Z" fill="#f5f6f7"/></g><g transform="translate(747.47,206.2) scale(1.2890000000000001) rotate(0)"><path d="M10 5L5 0L0 5L5 10L0 15L5 20L10 15L15 20L20 15L15 10L20 5L15 0L10 5Z" fill="#f3f4f6"/></g><g transform="translate(721.7,231.98) scale(1.2890000000000001) rotate(0)"><path d="M10 5L5 0L0 5L5 10L0 15L5 20L10 15L15 20L20 15L15 10L20 5L15 0L10 5Z" fill="#f7f8f9"/></g><g transform="translate(747.47,231.98) scale(1.2890000000000001) rotate(0)"><path d="M10 5L5 0L0 5L5 10L0 15L5 20L10 15L15 20L20 15L15 10L20 5L15 0L10 5Z" fill="#fbfcfc"/></g><g transform="translate(773.25,206.2) scale(2.5774999999999997) rotate(0)"><path d="M10 5L5 0L0 5L5 10L0 15L5 20L10 15L15 20L20 15L15 10L20 5L15 0L10 5Z" fill="#fafafb"/></g><rect x="824.8" y="206.2" width="51.55" height="51.55" fill="#ffffff"/><g transform="translate(850.58,206.2) scale(1.2890000000000001) rotate(0)"><path d="M10 5L5 0L0 5L5 10L0 15L5 20L10 15L15 20L20 15L15 10L20 5L15 0L10 5Z" fill="#f8f8fa"/></g><g transform="translate(876.35,206.2) scale(2.5774999999999997) rotate(0)"><path d="M10 5L5 0L0 5L5 10L0 15L5 20L10 15L15 20L20 15L15 10L20 5L15 0L10 5Z" fill="#f8f9fa"/></g><rect x="979.4499999999999" y="206.2" width="51.55" height="51.55" fill="#ffffff"/><g transform="translate(979.45,206.2) scale(1.2890000000000001) rotate(0)"><path d="M10 5L5 0L0 5L5 10L0 15L5 20L10 15L15 20L20 15L15 10L20 5L15 0L10 5Z" fill="#f7f8f9"/></g><g transform="translate(1005.22,206.2) scale(1.2890000000000001) rotate(0)"><path d="M10 5L5 0L0 5L5 10L0 15L5 20L10 15L15 20L20 15L15 10L20 5L15 0L10 5Z" fill="#fefefe"/></g><rect x="0" y="257.75" width="51.55" height="51.55" fill="#ffffff"/><g transform="translate(0,257.75) scale(1.2890000000000001) rotate(0)"><path d="M10 5L5 0L0 5L5 10L0 15L5 20L10 15L15 20L20 15L15 10L20 5L15 0L10 5Z" fill="#fdfdfe"/></g><g transform="translate(25.78,257.75) scale(1.2890000000000001) rotate(0)"><path d="M10 5L5 0L0 5L5 10L0 15L5 20L10 15L15 20L20 15L15 10L20 5L15 0L10 5Z" fill="#fafbfb"/></g><g transform="translate(25.78,283.52) scale(1.2890000000000001) rotate(0)"><path d="M10 5L5 0L0 5L5 10L0 15L5 20L10 15L15 20L20 15L15 10L20 5L15 0L10 5Z" fill="#f3f4f6"/></g><rect x="103.1" y="257.75" width="51.55" height="51.55" fill="#ffffff"/><g transform="translate(103.1,257.75) scale(1.2890000000000001) rotate(0)"><path d="M10 5L5 0L0 5L5 10L0 15L5 20L10 15L15 20L20 15L15 10L20 5L15 0L10 5Z" fill="#f6f7f8"/></g><g transform="translate(103.1,283.52) scale(1.2890000000000001) rotate(0)"><path d="M10 5L5 0L0 5L5 10L0 15L5 20L10 15L15 20L20 15L15 10L20 5L15 0L10 5Z" fill="#fdfdfe"/></g><g transform="translate(128.88,283.52) scale(1.2890000000000001) rotate(0)"><path d="M10 5L5 0L0 5L5 10L0 15L5 20L10 15L15 20L20 15L15 10L20 5L15 0L10 5Z" fill="#f6f7f8"/></g><rect x="154.64999999999998" y="257.75" width="51.55" height="51.55" fill="#ffffff"/><g transform="translate(154.65,257.75) scale(1.2890000000000001) rotate(0)"><path d="M10 5L5 0L0 5L5 10L0 15L5 20L10 15L15 20L20 15L15 10L20 5L15 0L10 5Z" fill="#f3f4f6"/></g><g transform="translate(180.43,257.75) scale(1.2890000000000001) rotate(0)"><path d="M10 5L5 0L0 5L5 10L0 15L5 20L10 15L15 20L20 15L15 10L20 5L15 0L10 5Z" fill="#fdfdfe"/></g><g transform="translate(154.65,283.52) scale(1.2890000000000001) rotate(0)"><path d="M10 5L5 0L0 5L5 10L0 15L5 20L10 15L15 20L20 15L15 10L20 5L15 0L10 5Z" fill="#f8f9fa"/></g><g transform="translate(180.43,283.52) scale(1.2890000000000001) rotate(0)"><path d="M10 5L5 0L0 5L5 10L0 15L5 20L10 15L15 20L20 15L15 10L20 5L15 0L10 5Z" fill="#fbfbfc"/></g><rect x="206.2" y="257.75" width="51.55" height="51.55" fill="#ffffff"/><g transform="translate(206.2,257.75) scale(1.2890000000000001) rotate(0)"><path d="M10 5L5 0L0 5L5 10L0 15L5 20L10 15L15 20L20 15L15 10L20 5L15 0L10 5Z" fill="#fbfbfc"/></g><g transform="translate(231.98,257.75) scale(1.2890000000000001) rotate(0)"><path d="M10 5L5 0L0 5L5 10L0 15L5 20L10 15L15 20L20 15L15 10L20 5L15 0L10 5Z" fill="#f5f6f8"/></g><g transform="translate(231.98,283.52) scale(1.2890000000000001) rotate(0)"><path d="M10 5L5 0L0 5L5 10L0 15L5 20L10 15L15 20L20 15L15 10L20 5L15 0L10 5Z" fill="#f6f6f8"/></g><g transform="translate(309.3,257.75) scale(2.5774999999999997) rotate(0)"><path d="M10 5L5 0L0 5L5 10L0 15L5 20L10 15L15 20L20 15L15 10L20 5L15 0L10 5Z" fill="#f7f8f9"/></g><rect x="360.84999999999997" y="257.75" width="51.55" height="51.55" fill="#ffffff"/><g transform="translate(360.85,257.75) scale(1.2890000000000001) rotate(0)"><path d="M10 5L5 0L0 5L5 10L0 15L5 20L10 15L15 20L20 15L15 10L20 5L15 0L10 5Z" fill="#f8f9fa"/></g><g transform="translate(386.62,283.52) scale(1.2890000000000001) rotate(0)"><path d="M10 5L5 0L0 5L5 10L0 15L5 20L10 15L15 20L20 15L15 10L20 5L15 0L10 5Z" fill="#ffffff"/></g><g transform="translate(412.4,257.75) scale(2.5774999999999997) rotate(0)"><path d="M10 5L5 0L0 5L5 10L0 15L5 20L10 15L15 20L20 15L15 10L20 5L15 0L10 5Z" fill="#fafafb"/></g><rect x="463.95" y="257.75" width="51.55" height="51.55" fill="#ffffff"/><g transform="translate(463.95,257.75) scale(1.2890000000000001) rotate(0)"><path d="M10 5L5 0L0 5L5 10L0 15L5 20L10 15L15 20L20 15L15 10L20 5L15 0L10 5Z" fill="#f7f8f9"/></g><g transform="translate(489.73,257.75) scale(1.2890000000000001) rotate(0)"><path d="M10 5L5 0L0 5L5 10L0 15L5 20L10 15L15 20L20 15L15 10L20 5L15 0L10 5Z" fill="#fbfbfc"/></g><g transform="translate(515.5,257.75) scale(2.5774999999999997) rotate(0)"><path d="M10 5L5 0L0 5L5 10L0 15L5 20L10 15L15 20L20 15L15 10L20 5L15 0L10 5Z" fill="#f5f6f8"/></g><rect x="567.05" y="257.75" width="51.55" height="51.55" fill="#ffffff"/><g transform="translate(567.05,257.75) scale(1.2890000000000001) rotate(0)"><path d="M10 5L5 0L0 5L5 10L0 15L5 20L10 15L15 20L20 15L15 10L20 5L15 0L10 5Z" fill="#f4f4f6"/></g><g transform="translate(592.82,283.52) scale(1.2890000000000001) rotate(0)"><path d="M10 5L5 0L0 5L5 10L0 15L5 20L10 15L15 20L20 15L15 10L20 5L15 0L10 5Z" fill="#f7f8f9"/></g><rect x="618.5999999999999" y="257.75" width="51.55" height="51.55" fill="#ffffff"/><g transform="translate(618.6,257.75) scale(1.2890000000000001) rotate(0)"><path d="M10 5L5 0L0 5L5 10L0 15L5 20L10 15L15 20L20 15L15 10L20 5L15 0L10 5Z" fill="#f7f7f9"/></g><g transform="translate(644.37,257.75) scale(1.2890000000000001) rotate(0)"><path d="M10 5L5 0L0 5L5 10L0 15L5 20L10 15L15 20L20 15L15 10L20 5L15 0L10 5Z" fill="#f3f4f6"/></g><rect x="670.15" y="257.75" width="51.55" height="51.55" fill="#ffffff"/><g transform="translate(695.93,257.75) scale(1.2890000000000001) rotate(0)"><path d="M10 5L5 0L0 5L5 10L0 15L5 20L10 15L15 20L20 15L15 10L20 5L15 0L10 5Z" fill="#fafbfc"/></g><g transform="translate(670.15,283.52) scale(1.2890000000000001) rotate(0)"><path d="M10 5L5 0L0 5L5 10L0 15L5 20L10 15L15 20L20 15L15 10L20 5L15 0L10 5Z" fill="#f7f7f9"/></g><g transform="translate(695.93,283.52) scale(1.2890000000000001) rotate(0)"><path d="M10 5L5 0L0 5L5 10L0 15L5 20L10 15L15 20L20 15L15 10L20 5L15 0L10 5Z" fill="#fdfdfe"/></g><g transform="translate(824.8,257.75) scale(2.5774999999999997) rotate(0)"><path d="M10 5L5 0L0 5L5 10L0 15L5 20L10 15L15 20L20 15L15 10L20 5L15 0L10 5Z" fill="#f5f6f8"/></g><rect x="979.4499999999999" y="257.75" width="51.55" height="51.55" fill="#ffffff"/><g transform="translate(1005.22,257.75) scale(1.2890000000000001) rotate(0)"><path d="M10 5L5 0L0 5L5 10L0 15L5 20L10 15L15 20L20 15L15 10L20 5L15 0L10 5Z" fill="#f6f6f8"/></g><g transform="translate(979.45,283.52) scale(1.2890000000000001) rotate(0)"><path d="M10 5L5 0L0 5L5 10L0 15L5 20L10 15L15 20L20 15L15 10L20 5L15 0L10 5Z" fill="#f6f7f8"/></g><g transform="translate(1005.22,283.52) scale(1.2890000000000001) rotate(0)"><path d="M10 5L5 0L0 5L5 10L0 15L5 20L10 15L15 20L20 15L15 10L20 5L15 0L10 5Z" fill="#fafbfb"/></g></g></svg>