<?xml version="1.0" standalone="no"?><svg xmlns:xlink="http://www.w3.org/1999/xlink" xmlns="http://www.w3.org/2000/svg" viewBox="0 0 1000 299.9970902036858" preserveAspectRatio="xMaxYMax slice"><g transform="scale(0.9699321047526673)"><rect x="0" y="0" width="1031" height="309.29999999999995" fill="#ffffff"/><rect x="103.1" y="0" width="51.55" height="51.55" fill="#ffffff"/><path d="M 128.88 25.78 A 25.78 25.78 0 0 1  154.66 0 L 128.88 25.78 A 25.78 25.78 0 0 0 154.66 0" fill="#f6f7f8"/><path d="M 103.1 51.56 A 25.78 25.78 0 0 1  128.88 25.78 L 128.88 51.56L103.1 51.56" fill="#fbfbfc"/><path d="M 128.88 51.56 A 25.78 25.78 0 0 1  154.66 25.78 L 128.88 51.56 A 25.78 25.78 0 0 0 154.66 25.78" fill="#f9fafb"/><rect x="206.2" y="0" width="51.55" height="51.55" fill="#ffffff"/><path d="M 231.98 25.78 A 25.78 25.78 0 0 0 257.76 0 L 231.98 0L231.98 25.78" fill="#fcfcfc"/><path d="M 231.98 51.56 A 25.78 25.78 0 0 0 257.76 25.78 L 231.98 25.78L231.98 51.56" fill="#f4f5f6"/><path d="M 257.75 0 A 51.55 51.55 0 0 0 309.3 51.55 L 309.3 0L257.75 0" fill="#f9f9fa"/><path d="M 412.4 51.55 A 51.55 51.55 0 0 0 463.95 0 L 412.4 0L412.4 51.55" fill="#f8f9fa"/><path d="M 463.95 51.55 A 51.55 51.55 0 0 1  515.5 0 L 515.5 51.55L463.95 51.55" fill="#f8f9fa"/><rect x="567.05" y="0" width="51.55" height="51.55" fill="#ffffff"/><path d="M 567.05 0 A 25.78 25.78 0 0 1  592.8299999999999 25.78 L 567.05 0 A 25.78 25.78 0 0 0 592.8299999999999 25.78" fill="#f5f6f7"/><path d="M 567.05 25.78 A 25.78 25.78 0 0 1  592.8299999999999 51.56 L 567.05 25.78 A 25.78 25.78 0 0 0 592.8299999999999 51.56" fill="#fafafb"/><path d="M 592.82 51.56 A 25.78 25.78 0 0 0 618.6 25.78 L 592.82 25.78L592.82 51.56" fill="#f5f6f7"/><rect x="618.5999999999999" y="0" width="51.55" height="51.55" fill="#ffffff"/><path d="M 618.6 0 A 25.78 25.78 0 0 1 644.38 25.78 L 618.6 25.78L618.6 0" fill="#fefefe"/><path d="M 618.6 25.78 A 25.78 25.78 0 0 0 644.38 51.56 L 644.38 25.78L618.6 25.78" fill="#f7f8f9"/><rect x="773.25" y="0" width="51.55" height="51.55" fill="#ffffff"/><path d="M 773.25 25.78 A 25.78 25.78 0 0 0 799.03 0 L 773.25 0L773.25 25.78" fill="#f8f9fa"/><path d="M 799.03 25.78 A 25.78 25.78 0 0 0 824.81 0 L 799.03 0L799.03 25.78" fill="#fafafb"/><path d="M 773.25 25.78 A 25.78 25.78 0 0 1 799.03 51.56 L 773.25 51.56L773.25 25.78" fill="#f7f8f9"/><path d="M 799.03 51.56 A 25.78 25.78 0 0 1  824.81 25.78 L 799.03 51.56 A 25.78 25.78 0 0 0 824.81 25.78" fill="#ffffff"/><rect x="824.8" y="0" width="51.55" height="51.55" fill="#ffffff"/><path d="M 824.8 25.78 A 25.78 25.78 0 0 1  850.5799999999999 0 L 850.5799999999999 25.78L824.8 25.78" fill="#fbfbfc"/><path d="M 850.58 25.78 A 25.78 25.78 0 0 1  876.36 0 L 876.36 25.78L850.58 25.78" fill="#f8f8fa"/><path d="M 824.8 25.78 A 25.78 25.78 0 0 1  850.5799999999999 51.56 L 824.8 25.78 A 25.78 25.78 0 0 0 850.5799999999999 51.56" fill="#f7f8f9"/><path d="M 850.58 25.78 A 25.78 25.78 0 0 0 876.36 51.56 L 876.36 25.78L850.58 25.78" fill="#fbfcfc"/><rect x="876.3499999999999" y="0" width="51.55" height="51.55" fill="#ffffff"/><path d="M 902.12 0 A 25.78 25.78 0 0 0 927.9 25.78 L 927.9 0L902.12 0" fill="#f8f9fa"/><path d="M 876.35 51.56 A 25.78 25.78 0 0 1  902.13 25.78 L 876.35 51.56 A 25.78 25.78 0 0 0 902.13 25.78" fill="#fafbfb"/><path d="M 902.12 25.78 A 25.78 25.78 0 0 1 927.9 51.56 L 902.12 51.56L902.12 25.78" fill="#f9f9fa"/><rect x="51.55" y="51.55" width="51.55" height="51.55" fill="#ffffff"/><path d="M 51.55 77.33 A 25.78 25.78 0 0 0 77.33 51.55 L 51.55 51.55L51.55 77.33" fill="#f6f7f9"/><path d="M 51.55 103.1 A 25.78 25.78 0 0 0 77.33 77.32 L 51.55 77.32L51.55 103.1" fill="#f7f8f9"/><path d="M 77.32 103.1 A 25.78 25.78 0 0 1  103.1 77.32 L 103.1 103.1L77.32 103.1" fill="#fdfdfe"/><rect x="463.95" y="51.55" width="51.55" height="51.55" fill="#ffffff"/><path d="M 489.73 77.33 A 25.78 25.78 0 0 1  515.51 51.55 L 515.51 77.33L489.73 77.33" fill="#fbfcfc"/><path d="M 489.73 103.1 A 25.78 25.78 0 0 0 515.51 77.32 L 489.73 77.32L489.73 103.1" fill="#f4f5f7"/><rect x="515.5" y="51.55" width="51.55" height="51.55" fill="#ffffff"/><path d="M 515.5 77.33 A 25.78 25.78 0 0 1  541.28 51.55 L 541.28 77.33L515.5 77.33" fill="#f5f6f8"/><path d="M 541.28 51.55 A 25.78 25.78 0 0 1 567.06 77.33 L 541.28 77.33L541.28 51.55" fill="#f8f9fa"/><path d="M 515.5 103.1 A 25.78 25.78 0 0 0 541.28 77.32 L 515.5 77.32L515.5 103.1" fill="#fcfcfd"/><path d="M 541.28 77.32 A 25.78 25.78 0 0 1  567.06 103.1 L 541.28 77.32 A 25.78 25.78 0 0 0 567.06 103.1" fill="#f5f6f8"/><rect x="567.05" y="51.55" width="51.55" height="51.55" fill="#ffffff"/><path d="M 592.82 51.55 A 25.78 25.78 0 0 0 618.6 77.33 L 618.6 51.55L592.82 51.55" fill="#fcfcfc"/><path d="M 567.05 77.32 A 25.78 25.78 0 0 0 592.8299999999999 103.1 L 592.8299999999999 77.32L567.05 77.32" fill="#fafbfb"/><path d="M 773.25 51.55 A 51.55 51.55 0 0 0 824.8 103.1 L 824.8 51.55L773.25 51.55" fill="#f8f9fa"/><rect x="824.8" y="51.55" width="51.55" height="51.55" fill="#ffffff"/><path d="M 824.8 77.33 A 25.78 25.78 0 0 1  850.5799999999999 51.55 L 824.8 77.33 A 25.78 25.78 0 0 0 850.5799999999999 51.55" fill="#f9f9fa"/><path d="M 850.58 77.33 A 25.78 25.78 0 0 0 876.36 51.55 L 850.58 51.55L850.58 77.33" fill="#f9f9fa"/><path d="M 850.58 103.1 A 25.78 25.78 0 0 0 876.36 77.32 L 850.58 77.32L850.58 103.1" fill="#f9f9fa"/><rect x="876.3499999999999" y="51.55" width="51.55" height="51.55" fill="#ffffff"/><path d="M 902.12 77.33 A 25.78 25.78 0 0 1  927.9 51.55 L 927.9 77.33L902.12 77.33" fill="#f9f9fa"/><path d="M 902.12 103.1 A 25.78 25.78 0 0 1  927.9 77.32 L 927.9 103.1L902.12 103.1" fill="#fdfefe"/><rect x="927.9" y="51.55" width="51.55" height="51.55" fill="#ffffff"/><path d="M 927.9 77.33 A 25.78 25.78 0 0 1  953.68 51.55 L 927.9 77.33 A 25.78 25.78 0 0 0 953.68 51.55" fill="#fafafb"/><path d="M 953.68 51.55 A 25.78 25.78 0 0 1  979.4599999999999 77.33 L 953.68 51.55 A 25.78 25.78 0 0 0 979.4599999999999 77.33" fill="#fafbfc"/><path d="M 927.9 103.1 A 25.78 25.78 0 0 1  953.68 77.32 L 953.68 103.1L927.9 103.1" fill="#f7f8f9"/><path d="M 953.68 103.1 A 25.78 25.78 0 0 0 979.4599999999999 77.32 L 953.68 77.32L953.68 103.1" fill="#f6f7f8"/><rect x="51.55" y="103.1" width="51.55" height="51.55" fill="#ffffff"/><path d="M 51.55 128.88 A 25.78 25.78 0 0 1  77.33 103.1 L 51.55 128.88 A 25.78 25.78 0 0 0 77.33 103.1" fill="#f5f6f8"/><path d="M 77.32 128.88 A 25.78 25.78 0 0 1  103.1 103.1 L 103.1 128.88L77.32 128.88" fill="#f8f9fa"/><path d="M 51.55 154.66 A 25.78 25.78 0 0 0 77.33 128.88 L 51.55 128.88L51.55 154.66" fill="#fafafb"/><path d="M 77.32 154.66 A 25.78 25.78 0 0 0 103.1 128.88 L 77.32 128.88L77.32 154.66" fill="#fcfcfd"/><rect x="103.1" y="103.1" width="51.55" height="51.55" fill="#ffffff"/><path d="M 103.1 128.88 A 25.78 25.78 0 0 0 128.88 103.1 L 103.1 103.1L103.1 128.88" fill="#ffffff"/><path d="M 128.88 128.88 A 25.78 25.78 0 0 1  154.66 103.1 L 128.88 128.88 A 25.78 25.78 0 0 0 154.66 103.1" fill="#fcfcfd"/><path d="M 103.1 154.66 A 25.78 25.78 0 0 0 128.88 128.88 L 103.1 128.88L103.1 154.66" fill="#fbfbfc"/><path d="M 128.88 128.88 A 25.78 25.78 0 0 0 154.66 154.66 L 154.66 128.88L128.88 128.88" fill="#f8f8f9"/><rect x="206.2" y="103.1" width="51.55" height="51.55" fill="#ffffff"/><path d="M 206.2 103.1 A 25.78 25.78 0 0 0 231.98 128.88 L 231.98 103.1L206.2 103.1" fill="#f9f9fa"/><path d="M 231.98 128.88 A 25.78 25.78 0 0 1  257.76 103.1 L 231.98 128.88 A 25.78 25.78 0 0 0 257.76 103.1" fill="#f9f9fa"/><path d="M 206.2 128.88 A 25.78 25.78 0 0 1 231.98 154.66 L 206.2 154.66L206.2 128.88" fill="#fafbfc"/><path d="M 231.98 154.66 A 25.78 25.78 0 0 0 257.76 128.88 L 231.98 128.88L231.98 154.66" fill="#fcfcfd"/><rect x="412.4" y="103.1" width="51.55" height="51.55" fill="#ffffff"/><path d="M 412.4 128.88 A 25.78 25.78 0 0 0 438.17999999999995 103.1 L 412.4 103.1L412.4 128.88" fill="#f9fafb"/><path d="M 438.17 128.88 A 25.78 25.78 0 0 1  463.95000000000005 154.66 L 438.17 128.88 A 25.78 25.78 0 0 0 463.95000000000005 154.66" fill="#fcfdfd"/><path d="M 567.05 103.1 A 51.55 51.55 0 0 1  618.5999999999999 154.64999999999998 L 567.05 103.1 A 51.55 51.55 0 0 0 618.5999999999999 154.64999999999998" fill="#fdfdfe"/><rect x="618.5999999999999" y="103.1" width="51.55" height="51.55" fill="#ffffff"/><path d="M 618.6 103.1 A 25.78 25.78 0 0 1  644.38 128.88 L 618.6 103.1 A 25.78 25.78 0 0 0 644.38 128.88" fill="#f8f8f9"/><path d="M 644.37 128.88 A 25.78 25.78 0 0 1 670.15 154.66 L 644.37 154.66L644.37 128.88" fill="#f6f7f8"/><rect x="670.15" y="103.1" width="51.55" height="51.55" fill="#ffffff"/><path d="M 670.15 103.1 A 25.78 25.78 0 0 0 695.93 128.88 L 695.93 103.1L670.15 103.1" fill="#f7f8f9"/><path d="M 695.93 128.88 A 25.78 25.78 0 0 0 721.7099999999999 103.1 L 695.93 103.1L695.93 128.88" fill="#f5f6f8"/><path d="M 670.15 154.66 A 25.78 25.78 0 0 1  695.93 128.88 L 670.15 154.66 A 25.78 25.78 0 0 0 695.93 128.88" fill="#f9fafb"/><rect x="773.25" y="103.1" width="51.55" height="51.55" fill="#ffffff"/><path d="M 799.03 128.88 A 25.78 25.78 0 0 1  824.81 103.1 L 799.03 128.88 A 25.78 25.78 0 0 0 824.81 103.1" fill="#fbfbfc"/><path d="M 799.03 154.66 A 25.78 25.78 0 0 1  824.81 128.88 L 824.81 154.66L799.03 154.66" fill="#fbfbfc"/><rect x="824.8" y="103.1" width="51.55" height="51.55" fill="#ffffff"/><path d="M 824.8 128.88 A 25.78 25.78 0 0 1  850.5799999999999 103.1 L 824.8 128.88 A 25.78 25.78 0 0 0 850.5799999999999 103.1" fill="#f6f7f8"/><path d="M 850.58 103.1 A 25.78 25.78 0 0 1  876.36 128.88 L 850.58 103.1 A 25.78 25.78 0 0 0 876.36 128.88" fill="#f7f8f9"/><path d="M 824.8 128.88 A 25.78 25.78 0 0 0 850.5799999999999 154.66 L 850.5799999999999 128.88L824.8 128.88" fill="#fbfbfc"/><rect x="876.3499999999999" y="103.1" width="51.55" height="51.55" fill="#ffffff"/><path d="M 902.12 103.1 A 25.78 25.78 0 0 1  927.9 128.88 L 902.12 103.1 A 25.78 25.78 0 0 0 927.9 128.88" fill="#f6f7f8"/><path d="M 876.35 128.88 A 25.78 25.78 0 0 0 902.13 154.66 L 902.13 128.88L876.35 128.88" fill="#f6f7f8"/><path d="M 902.12 128.88 A 25.78 25.78 0 0 0 927.9 154.66 L 927.9 128.88L902.12 128.88" fill="#f7f7f9"/><rect x="927.9" y="103.1" width="51.55" height="51.55" fill="#ffffff"/><path d="M 927.9 128.88 A 25.78 25.78 0 0 1  953.68 103.1 L 953.68 128.88L927.9 128.88" fill="#f8f9fa"/><path d="M 927.9 128.88 A 25.78 25.78 0 0 1  953.68 154.66 L 927.9 128.88 A 25.78 25.78 0 0 0 953.68 154.66" fill="#f6f7f9"/><path d="M 953.68 154.66 A 25.78 25.78 0 0 0 979.4599999999999 128.88 L 953.68 128.88L953.68 154.66" fill="#f5f5f7"/><rect x="979.4499999999999" y="103.1" width="51.55" height="51.55" fill="#ffffff"/><path d="M 979.45 128.88 A 25.78 25.78 0 0 0 1005.23 154.66 L 1005.23 128.88L979.45 128.88" fill="#f3f4f6"/><path d="M 1005.22 154.66 A 25.78 25.78 0 0 1  1031 128.88 L 1005.22 154.66 A 25.78 25.78 0 0 0 1031 128.88" fill="#f8f8fa"/><rect x="51.55" y="154.64999999999998" width="51.55" height="51.55" fill="#ffffff"/><path d="M 51.55 180.43 A 25.78 25.78 0 0 1  77.33 154.65 L 77.33 180.43L51.55 180.43" fill="#fdfdfd"/><path d="M 77.32 154.65 A 25.78 25.78 0 0 1 103.1 180.43 L 77.32 180.43L77.32 154.65" fill="#fdfdfd"/><path d="M 51.55 206.21 A 25.78 25.78 0 0 1  77.33 180.43 L 77.33 206.21L51.55 206.21" fill="#fefeff"/><rect x="103.1" y="154.64999999999998" width="51.55" height="51.55" fill="#ffffff"/><path d="M 103.1 154.65 A 25.78 25.78 0 0 1  128.88 180.43 L 103.1 154.65 A 25.78 25.78 0 0 0 128.88 180.43" fill="#f8f8fa"/><path d="M 128.88 154.65 A 25.78 25.78 0 0 1 154.66 180.43 L 128.88 180.43L128.88 154.65" fill="#f3f4f6"/><path d="M 103.1 180.43 A 25.78 25.78 0 0 1  128.88 206.21 L 103.1 180.43 A 25.78 25.78 0 0 0 128.88 206.21" fill="#fcfcfc"/><path d="M 128.88 206.21 A 25.78 25.78 0 0 1  154.66 180.43 L 128.88 206.21 A 25.78 25.78 0 0 0 154.66 180.43" fill="#fcfcfd"/><path d="M 154.65 206.2 A 51.55 51.55 0 0 1  206.2 154.65 L 206.2 206.2L154.65 206.2" fill="#f5f6f7"/><path d="M 206.2 206.2 A 51.55 51.55 0 0 0 257.75 154.65 L 206.2 154.65L206.2 206.2" fill="#f4f5f7"/><rect x="257.75" y="154.64999999999998" width="51.55" height="51.55" fill="#ffffff"/><path d="M 283.52 154.65 A 25.78 25.78 0 0 0 309.29999999999995 180.43 L 309.29999999999995 154.65L283.52 154.65" fill="#fdfdfd"/><path d="M 257.75 206.21 A 25.78 25.78 0 0 0 283.53 180.43 L 257.75 180.43L257.75 206.21" fill="#fcfdfd"/><rect x="309.29999999999995" y="154.64999999999998" width="51.55" height="51.55" fill="#ffffff"/><path d="M 309.3 154.65 A 25.78 25.78 0 0 1 335.08000000000004 180.43 L 309.3 180.43L309.3 154.65" fill="#fefefe"/><path d="M 335.07 180.43 A 25.78 25.78 0 0 1  360.85 154.65 L 360.85 180.43L335.07 180.43" fill="#ffffff"/><path d="M 309.3 206.21 A 25.78 25.78 0 0 1  335.08000000000004 180.43 L 335.08000000000004 206.21L309.3 206.21" fill="#f8f9fa"/><rect x="360.84999999999997" y="154.64999999999998" width="51.55" height="51.55" fill="#ffffff"/><path d="M 360.85 206.21 A 25.78 25.78 0 0 1  386.63 180.43 L 386.63 206.21L360.85 206.21" fill="#fdfefe"/><path d="M 386.62 206.21 A 25.78 25.78 0 0 0 412.4 180.43 L 386.62 180.43L386.62 206.21" fill="#fafafb"/><rect x="412.4" y="154.64999999999998" width="51.55" height="51.55" fill="#ffffff"/><path d="M 412.4 154.65 A 25.78 25.78 0 0 1  438.17999999999995 180.43 L 412.4 154.65 A 25.78 25.78 0 0 0 438.17999999999995 180.43" fill="#fcfdfd"/><path d="M 438.17 180.43 A 25.78 25.78 0 0 1  463.95000000000005 154.65 L 463.95000000000005 180.43L438.17 180.43" fill="#f5f5f7"/><path d="M 438.17 180.43 A 25.78 25.78 0 0 0 463.95000000000005 206.21 L 463.95000000000005 180.43L438.17 180.43" fill="#f4f5f6"/><rect x="515.5" y="154.64999999999998" width="51.55" height="51.55" fill="#ffffff"/><path d="M 541.28 180.43 A 25.78 25.78 0 0 1  567.06 154.65 L 567.06 180.43L541.28 180.43" fill="#fafafb"/><path d="M 515.5 206.21 A 25.78 25.78 0 0 1  541.28 180.43 L 515.5 206.21 A 25.78 25.78 0 0 0 541.28 180.43" fill="#f4f5f7"/><path d="M 567.05 206.2 A 51.55 51.55 0 0 1  618.5999999999999 154.65 L 618.5999999999999 206.2L567.05 206.2" fill="#fbfbfc"/><rect x="618.5999999999999" y="154.64999999999998" width="51.55" height="51.55" fill="#ffffff"/><path d="M 618.6 180.43 A 25.78 25.78 0 0 1  644.38 206.21 L 618.6 180.43 A 25.78 25.78 0 0 0 644.38 206.21" fill="#fbfcfc"/><path d="M 644.37 180.43 A 25.78 25.78 0 0 1  670.15 206.21 L 644.37 180.43 A 25.78 25.78 0 0 0 670.15 206.21" fill="#fdfdfd"/><path d="M 670.15 206.2 A 51.55 51.55 0 0 0 721.6999999999999 154.65 L 670.15 154.65L670.15 206.2" fill="#fafafb"/><rect x="773.25" y="154.64999999999998" width="51.55" height="51.55" fill="#ffffff"/><path d="M 773.25 180.43 A 25.78 25.78 0 0 1  799.03 154.65 L 773.25 180.43 A 25.78 25.78 0 0 0 799.03 154.65" fill="#fafafb"/><path d="M 799.03 154.65 A 25.78 25.78 0 0 1  824.81 180.43 L 799.03 154.65 A 25.78 25.78 0 0 0 824.81 180.43" fill="#f9f9fa"/><path d="M 824.8 154.65 A 51.55 51.55 0 0 0 876.3499999999999 206.2 L 876.3499999999999 154.65L824.8 154.65" fill="#f9fafb"/><path d="M 51.55 257.75 A 51.55 51.55 0 0 1  103.1 206.2 L 103.1 257.75L51.55 257.75" fill="#fefefe"/><rect x="103.1" y="206.2" width="51.55" height="51.55" fill="#ffffff"/><path d="M 103.1 206.2 A 25.78 25.78 0 0 0 128.88 231.98 L 128.88 206.2L103.1 206.2" fill="#fbfcfc"/><path d="M 103.1 257.76 A 25.78 25.78 0 0 1  128.88 231.98 L 103.1 257.76 A 25.78 25.78 0 0 0 128.88 231.98" fill="#ffffff"/><path d="M 128.88 257.76 A 25.78 25.78 0 0 1  154.66 231.98 L 128.88 257.76 A 25.78 25.78 0 0 0 154.66 231.98" fill="#f9fafb"/><rect x="154.64999999999998" y="206.2" width="51.55" height="51.55" fill="#ffffff"/><path d="M 154.65 206.2 A 25.78 25.78 0 0 0 180.43 231.98 L 180.43 206.2L154.65 206.2" fill="#f7f7f9"/><path d="M 180.43 257.76 A 25.78 25.78 0 0 1  206.21 231.98 L 180.43 257.76 A 25.78 25.78 0 0 0 206.21 231.98" fill="#f8f9fa"/><rect x="206.2" y="206.2" width="51.55" height="51.55" fill="#ffffff"/><path d="M 206.2 257.76 A 25.78 25.78 0 0 1  231.98 231.98 L 231.98 257.76L206.2 257.76" fill="#f4f5f6"/><path d="M 231.98 231.98 A 25.78 25.78 0 0 1 257.76 257.76 L 231.98 257.76L231.98 231.98" fill="#fbfbfc"/><path d="M 257.75 206.2 A 51.55 51.55 0 0 1 309.3 257.75 L 257.75 257.75L257.75 206.2" fill="#f5f6f7"/><rect x="309.29999999999995" y="206.2" width="51.55" height="51.55" fill="#ffffff"/><path d="M 309.3 206.2 A 25.78 25.78 0 0 1 335.08000000000004 231.98 L 309.3 231.98L309.3 206.2" fill="#fefefe"/><path d="M 309.3 257.76 A 25.78 25.78 0 0 1  335.08000000000004 231.98 L 309.3 257.76 A 25.78 25.78 0 0 0 335.08000000000004 231.98" fill="#f6f7f8"/><rect x="360.84999999999997" y="206.2" width="51.55" height="51.55" fill="#ffffff"/><path d="M 386.62 231.98 A 25.78 25.78 0 0 1  412.4 206.2 L 412.4 231.98L386.62 231.98" fill="#fefefe"/><path d="M 360.85 231.98 A 25.78 25.78 0 0 1 386.63 257.76 L 360.85 257.76L360.85 231.98" fill="#f9f9fa"/><rect x="515.5" y="206.2" width="51.55" height="51.55" fill="#ffffff"/><path d="M 515.5 231.98 A 25.78 25.78 0 0 0 541.28 206.2 L 515.5 206.2L515.5 231.98" fill="#fbfcfc"/><path d="M 541.28 231.98 A 25.78 25.78 0 0 0 567.06 206.2 L 541.28 206.2L541.28 231.98" fill="#f9fafb"/><path d="M 541.28 231.98 A 25.78 25.78 0 0 1 567.06 257.76 L 541.28 257.76L541.28 231.98" fill="#f4f5f7"/><rect x="618.5999999999999" y="206.2" width="51.55" height="51.55" fill="#ffffff"/><path d="M 618.6 231.98 A 25.78 25.78 0 0 1  644.38 206.2 L 644.38 231.98L618.6 231.98" fill="#f8f8fa"/><path d="M 644.37 206.2 A 25.78 25.78 0 0 1  670.15 231.98 L 644.37 206.2 A 25.78 25.78 0 0 0 670.15 231.98" fill="#f8f9fa"/><path d="M 644.37 257.76 A 25.78 25.78 0 0 1  670.15 231.98 L 670.15 257.76L644.37 257.76" fill="#fafafb"/><path d="M 773.25 206.2 A 51.55 51.55 0 0 1  824.8 257.75 L 773.25 206.2 A 51.55 51.55 0 0 0 824.8 257.75" fill="#f9fafb"/><rect x="824.8" y="206.2" width="51.55" height="51.55" fill="#ffffff"/><path d="M 850.58 231.98 A 25.78 25.78 0 0 1  876.36 206.2 L 850.58 231.98 A 25.78 25.78 0 0 0 876.36 206.2" fill="#fdfdfe"/><path d="M 824.8 231.98 A 25.78 25.78 0 0 1 850.5799999999999 257.76 L 824.8 257.76L824.8 231.98" fill="#f8f9fa"/><rect x="876.3499999999999" y="206.2" width="51.55" height="51.55" fill="#ffffff"/><path d="M 876.35 231.98 A 25.78 25.78 0 0 0 902.13 206.2 L 876.35 206.2L876.35 231.98" fill="#f5f6f8"/><path d="M 902.12 231.98 A 25.78 25.78 0 0 0 927.9 206.2 L 902.12 206.2L902.12 231.98" fill="#fbfbfc"/><path d="M 876.35 231.98 A 25.78 25.78 0 0 1 902.13 257.76 L 876.35 257.76L876.35 231.98" fill="#fafbfb"/><rect x="927.9" y="206.2" width="51.55" height="51.55" fill="#ffffff"/><path d="M 953.68 231.98 A 25.78 25.78 0 0 1  979.4599999999999 206.2 L 953.68 231.98 A 25.78 25.78 0 0 0 979.4599999999999 206.2" fill="#fdfefe"/><path d="M 927.9 231.98 A 25.78 25.78 0 0 0 953.68 257.76 L 953.68 231.98L927.9 231.98" fill="#f4f5f7"/><path d="M 953.68 231.98 A 25.78 25.78 0 0 1 979.4599999999999 257.76 L 953.68 257.76L953.68 231.98" fill="#f6f7f8"/><rect x="979.4499999999999" y="206.2" width="51.55" height="51.55" fill="#ffffff"/><path d="M 979.45 231.98 A 25.78 25.78 0 0 0 1005.23 206.2 L 979.45 206.2L979.45 231.98" fill="#f8f8fa"/><path d="M 1005.22 206.2 A 25.78 25.78 0 0 1  1031 231.98 L 1005.22 206.2 A 25.78 25.78 0 0 0 1031 231.98" fill="#f9f9fa"/><path d="M 979.45 231.98 A 25.78 25.78 0 0 1  1005.23 257.76 L 979.45 231.98 A 25.78 25.78 0 0 0 1005.23 257.76" fill="#f5f6f8"/><path d="M 1005.22 231.98 A 25.78 25.78 0 0 1  1031 257.76 L 1005.22 231.98 A 25.78 25.78 0 0 0 1031 257.76" fill="#f9fafb"/><path d="M 0 257.75 A 51.55 51.55 0 0 0 51.55 309.3 L 51.55 257.75L0 257.75" fill="#ffffff"/><rect x="154.64999999999998" y="257.75" width="51.55" height="51.55" fill="#ffffff"/><path d="M 154.65 283.53 A 25.78 25.78 0 0 1  180.43 257.75 L 154.65 283.53 A 25.78 25.78 0 0 0 180.43 257.75" fill="#fafafb"/><path d="M 180.43 257.75 A 25.78 25.78 0 0 0 206.21 283.53 L 206.21 257.75L180.43 257.75" fill="#fbfcfc"/><path d="M 154.65 283.52 A 25.78 25.78 0 0 0 180.43 309.29999999999995 L 180.43 283.52L154.65 283.52" fill="#fbfbfc"/><rect x="206.2" y="257.75" width="51.55" height="51.55" fill="#ffffff"/><path d="M 206.2 257.75 A 25.78 25.78 0 0 1 231.98 283.53 L 206.2 283.53L206.2 257.75" fill="#f4f5f7"/><path d="M 206.2 283.52 A 25.78 25.78 0 0 0 231.98 309.29999999999995 L 231.98 283.52L206.2 283.52" fill="#f9fafb"/><path d="M 231.98 309.29999999999995 A 25.78 25.78 0 0 1  257.76 283.52 L 231.98 309.29999999999995 A 25.78 25.78 0 0 0 257.76 283.52" fill="#fcfcfc"/><rect x="257.75" y="257.75" width="51.55" height="51.55" fill="#ffffff"/><path d="M 257.75 283.53 A 25.78 25.78 0 0 1  283.53 257.75 L 257.75 283.53 A 25.78 25.78 0 0 0 283.53 257.75" fill="#fdfdfd"/><path d="M 257.75 283.52 A 25.78 25.78 0 0 1 283.53 309.29999999999995 L 257.75 309.29999999999995L257.75 283.52" fill="#fafbfc"/><path d="M 283.52 283.52 A 25.78 25.78 0 0 1 309.29999999999995 309.29999999999995 L 283.52 309.29999999999995L283.52 283.52" fill="#f6f6f8"/><rect x="309.29999999999995" y="257.75" width="51.55" height="51.55" fill="#ffffff"/><path d="M 335.07 257.75 A 25.78 25.78 0 0 1 360.85 283.53 L 335.07 283.53L335.07 257.75" fill="#f5f6f8"/><rect x="360.84999999999997" y="257.75" width="51.55" height="51.55" fill="#ffffff"/><path d="M 386.62 309.29999999999995 A 25.78 25.78 0 0 1  412.4 283.52 L 386.62 309.29999999999995 A 25.78 25.78 0 0 0 412.4 283.52" fill="#fcfcfd"/><rect x="412.4" y="257.75" width="51.55" height="51.55" fill="#ffffff"/><path d="M 412.4 283.53 A 25.78 25.78 0 0 0 438.17999999999995 257.75 L 412.4 257.75L412.4 283.53" fill="#f8f9fa"/><path d="M 412.4 309.29999999999995 A 25.78 25.78 0 0 1  438.17999999999995 283.52 L 412.4 309.29999999999995 A 25.78 25.78 0 0 0 438.17999999999995 283.52" fill="#f8f9fa"/><rect x="463.95" y="257.75" width="51.55" height="51.55" fill="#ffffff"/><path d="M 463.95 257.75 A 25.78 25.78 0 0 1 489.73 283.53 L 463.95 283.53L463.95 257.75" fill="#fdfdfd"/><path d="M 463.95 283.52 A 25.78 25.78 0 0 1  489.73 309.29999999999995 L 463.95 283.52 A 25.78 25.78 0 0 0 489.73 309.29999999999995" fill="#f7f8f9"/><rect x="515.5" y="257.75" width="51.55" height="51.55" fill="#ffffff"/><path d="M 515.5 257.75 A 25.78 25.78 0 0 1 541.28 283.53 L 515.5 283.53L515.5 257.75" fill="#f3f4f6"/><path d="M 515.5 309.29999999999995 A 25.78 25.78 0 0 1  541.28 283.52 L 541.28 309.29999999999995L515.5 309.29999999999995" fill="#fefefe"/><path d="M 541.28 309.29999999999995 A 25.78 25.78 0 0 1  567.06 283.52 L 567.06 309.29999999999995L541.28 309.29999999999995" fill="#fefefe"/><path d="M 567.05 309.3 A 51.55 51.55 0 0 1  618.5999999999999 257.75 L 567.05 309.3 A 51.55 51.55 0 0 0 618.5999999999999 257.75" fill="#ffffff"/><rect x="773.25" y="257.75" width="51.55" height="51.55" fill="#ffffff"/><path d="M 773.25 283.53 A 25.78 25.78 0 0 1  799.03 257.75 L 799.03 283.53L773.25 283.53" fill="#f4f5f7"/><path d="M 773.25 283.52 A 25.78 25.78 0 0 1 799.03 309.29999999999995 L 773.25 309.29999999999995L773.25 283.52" fill="#fefefe"/><path d="M 799.03 309.29999999999995 A 25.78 25.78 0 0 1  824.81 283.52 L 824.81 309.29999999999995L799.03 309.29999999999995" fill="#f7f8f9"/><rect x="824.8" y="257.75" width="51.55" height="51.55" fill="#ffffff"/><path d="M 850.58 283.53 A 25.78 25.78 0 0 0 876.36 257.75 L 850.58 257.75L850.58 283.53" fill="#fdfdfd"/><path d="M 824.8 309.29999999999995 A 25.78 25.78 0 0 0 850.5799999999999 283.52 L 824.8 283.52L824.8 309.29999999999995" fill="#ffffff"/><path d="M 850.58 309.29999999999995 A 25.78 25.78 0 0 1  876.36 283.52 L 876.36 309.29999999999995L850.58 309.29999999999995" fill="#fafbfc"/><rect x="876.3499999999999" y="257.75" width="51.55" height="51.55" fill="#ffffff"/><path d="M 876.35 283.53 A 25.78 25.78 0 0 1  902.13 257.75 L 902.13 283.53L876.35 283.53" fill="#ffffff"/><path d="M 876.35 283.52 A 25.78 25.78 0 0 0 902.13 309.29999999999995 L 902.13 283.52L876.35 283.52" fill="#fcfcfd"/><rect x="927.9" y="257.75" width="51.55" height="51.55" fill="#ffffff"/><path d="M 927.9 257.75 A 25.78 25.78 0 0 1 953.68 283.53 L 927.9 283.53L927.9 257.75" fill="#fbfbfc"/><path d="M 927.9 309.29999999999995 A 25.78 25.78 0 0 0 953.68 283.52 L 927.9 283.52L927.9 309.29999999999995" fill="#f6f7f8"/><path d="M 953.68 309.29999999999995 A 25.78 25.78 0 0 1  979.4599999999999 283.52 L 953.68 309.29999999999995 A 25.78 25.78 0 0 0 979.4599999999999 283.52" fill="#fdfdfe"/></g></svg>